<mxfile host="Electron" modified="2024-06-18T10:10:39.331Z" agent="Mozilla/5.0 (Windows NT 10.0; Win64; x64) AppleWebKit/537.36 (KHTML, like Gecko) draw.io/21.7.5 Chrome/114.0.5735.289 Electron/25.8.1 Safari/537.36" etag="7wKRr57rRrc40klQGT9X" version="21.7.5" type="device">
  <diagram name="Page-1" id="jObUDZKykUbr4co6Fqti">
    <mxGraphModel dx="2178" dy="2085" grid="1" gridSize="10" guides="1" tooltips="1" connect="1" arrows="1" fold="1" page="1" pageScale="1" pageWidth="1169" pageHeight="827" math="0" shadow="0">
      <root>
        <mxCell id="0" />
        <mxCell id="1" parent="0" />
        <mxCell id="GEeOSVL4NO5q1AFvLIhu-3" value="" style="shape=image;verticalLabelPosition=bottom;labelBackgroundColor=default;verticalAlign=top;aspect=fixed;imageAspect=0;image=data:image/png,iVBORw0KGgoAAAANSUhEUgAAA4sAAAQHCAYAAABVxvxOAAAAAXNSR0IArs4c6QAAAARnQU1BAACxjwv8YQUAAAAJcEhZcwAADsMAAA7DAcdvqGQAAP+lSURBVHhe7N0LYBTV2T7wB++o9QLeEMUQQjQrgrb10u+rEpFSiFSDRhQvVaNSSbEYXbSmam218RNWU2oMihqhKiqiRIsBU8Co/VfFW7m4sSHExYoKCqJVwSv/ec+c2Z3dzM5esptsdp9fe8zc3tnZTbLsm/ecM702b/5sO4iIiIiIiIhsdtBfiYiIiIiIiIKYLBIREREREVEHTBaJiIiIiIioAyaLRERERERE1AEnuCEiIiIioqzWHtiglygRTBaJiIiIiCirSbL4o2MK9BrFi91QiYiIiIiIqIMuSRZfXbQR831teL/tc72FiIiIiIiIMlnak0VJFF9v2oCP12/FM/eswz8b3seWDV/pvURERERERJSJ0posrnx+E/617CO9Bnz37fdq2/Pz1mPN61v0ViIiIiIiIso0SSeLWz//Fk2z38WDf3gbG9/dqreGbP5gG15d9KFKECN90P4Flj70H1V1TFwzbjx6CI62tQlzAnpfCgQewISjxyOVpwzpeO03Pq93dZqcO8HrTutzTa3nbzRerxub9VqS4nq+SbyOqaau0/ZzMuEBqMvp0u9X5M9qko+b0a95On8fLfbnlgE/W2E6Pv/43ksz7Xmkn3r/iXit4n+9ulZK3iuVJL/PPejflXAdfx9S/37QVbrgufTY73NXSPa9taeJ9h5h2x72cxJx/PPXm6+P9RmnO614EFdddZVuD2KF3py4FXjwqulo+kCvpsEHTdNx1YP6ClN23e6SShYl2Zt/exvaV3yKL7Z8g7/Vtattlq3//QbPzArgm686Jop20j01OR5UNqzGv/4lrRaDa8bG8Y9jtB/qCHkX45F/zcOFeXo95WzX3nA11ky5Ht3271HYc43z9ekOxpvN3WtKcdqaus5dX6e/t13wGskba+kijA7+fK/GjMFrsU72dfn3K/Sz2lAJ1FyXxBt6p17zrn2O0v44XG+OKYN/XxKSzHtp7hn+x9BrdJrtNXsk7h/sLvp5SdV7ZWek/d/QdErk/SDT3wOSfW+LU0/5/NBtwl//+N8r4tGDXu+o7wfGc5jSgNNmGK/PIxejW98uPmjC9DnAhXfcgTukTT0QG9KVdXWWca0PrRiGqRcMc7nu1CesCSeLb/1zk5EcvqOSRIskhY1GcigJoywvum9d2P70KsYfjaSr6Okl3Zd0JStvIAajFQG+wboKPL8IGH0pykcDi5/P5hcrgDnX3Y7BM8LfWIf/8Rak+t/5ROVdWIHTWhYhq1/+nNeD30tJyZ33SiLq+TwYdJhe7E4bN+CDfgfiAL2KfqMwysjFMtEHq4xscNhR6CcrXXjdCSeL/1zwIb7/ruOtGa2EcbGRKDp1S02rvJMxuqgBS/UnnLAuQ+qv5PJXmMl4Gn7UlFrbDKo8bh1rVfi68C82zy/B06dVhBIDx+txej7CvM4bbxwfdizWhc4R1u3B9bkm8frM0d0HjJbe7hUBPL/Y+PwzPA95w8cYn4Ces1W33K7FSLwmWNdudcGxnq86wOB0jNbhdYzyGqVS4DksbinFKVEzQ+v6u+BaXJnXEfazF/azYn8tI17zKD/jIXK8PKfru/E5Rj6/yJ+TKK9/zOcWISN+vyJEvJe6PifH95qI77fL93/CnAeS2pcxr5VwvK44f15SLtn3ymj/xljM5xP2/ijdx1TXsTjeZ12+d9HfQzLle2w+v+BjBp+30/e043Nyfl2dXrOuEn6NdxnX5/pe7freZh3v9FoY4vq+Rzxm2Lpejva9t52/x7xfiISvLc73k7he7+6gn1vYSx3+HILP1fE5dIFhQ3HMB4vxUIdSXGSFLnL9AzRNt7qAXgWrZ6iysQnT9fbp9vNKNVBvD3Ub1edtCnUpDYsJ+gBmrqhSxSjXLeeagzeNYxfLtamLMs//4IPTQ49pu47pTU0Rz0vIcwt1a004WbSPQez9g531kkkSxvVRbo8xdPh+ein9wroMPS3dcYrxR3v3oT8WG0cZP6z27n4zgLu75I1D/4LLL8MUYIa6FhH9ejo+H7XZ4MeaQdOM7VblyTj33cCtcmzD1UDNNaE3XdfnmujrYzzO2pF6eylaau5L3y+1JFAYA+Pzj/lBFpHVrSjX8vx9qBlca243WscuOPIGPBaLRy90OMb2OgbP6fQapUHRIFh/aAvMkTd4+VmJfKPtomuxCcypw9NF+vug2H/25GdFKqLm62h2r468ZhHr51C+J5ONXwp5Trd00XO0/T6G/eNke34dfpZS8X6SIb9frmJco+N7jZvwn5Nbjd/lp/We2Psy8bWKcl1x/bykQbLvlYbo/8aIPFx4eSmeXmolO8ZTXNqA0y6/GHkx32fdv3fh7yGZ8D02Hivs/cB47o9I92x5TOMa5d9s1WUu2vc0/N9kx9c15muWKpHPxRK6xl+fYvu+Pr8Ea4pCFWlVpR4kP0xu3xuR6Pth+GvkLtr3Xs6f6e8X9tff9oeURK+t0//+JPJ6JyP8eZpNEkE34c/B7KLr9hzSbRguuGMqhq2QZCoi6YtKkqnpWDFsqtkF1GjSM9RkJGpNwPmy/cJj8MHiJTrpMpK26SswbKruNnohjATRytCMmA1D9XZ7jN1GbPjgIByoc0Xn65ZtF+IY9MNoeZzgRX2ADw883zj/BcYRch2LcdCF5nWcb6y/qY+KJukJbsQvJuVh511jn0ISxf8pDT67NLGVs61Bs24/sIF3sMb+Qz6lAS1ru+IHU/+Cyy9DwyDcbSUCbtcT9fl41F+RQ4xz36r7fuddjMtP82OtDHZL5rm6xhiPU67/cRw+0viFT19XWrNb1cm6P3seho82PpfWhz60RL2Wwwah6OnJ0f9yqKt4lzuOI7C9jml+fh206PGJhrwL5xk/J/KG2l1C3//SmkL9Icli+9lTPyu2iqj9Z88uxs/h4uvGquQ9fR+enNh+H8P+MbU9v1g/SyLR37EM+f1ypt9LY12j03uNGzlf0dUo1y+y6tpsLsbel4mvVbTriufnJQ2Sfq8Usf7NlOOD3ZObsXSN/l7FfJ91/96Fv4dkwvfYeKwO7wfGB1vjg+sU47XBjFgfuCP+TXZ6Xbvs58PpuYiI97Y170Cu5PmlrRh9uVWRDlWp3b83UcT7fY8pyvdezp/x7xf211//USCZa+v0vz+JvN7JCH+eZkvic4vrc+gK/TBKkqupo/HhnDgSxg9WYcUHx2DUKKfcxkjUzh9ldhWV6h8+NJI8Y/mDDcaSrvhJVW/Om8Yma6JPI2akTuzsMTHFe939QhVJuY5+o2E9XL9Ro4zH04IVx+lY/MGbmKOWr+pcstin324YXT4AO+zYS2/pqEsSRfXBvxB58vsgZWz565/6gV2IyiLzEGel+jjd0vUX32hUly/7hyyH60no+dgZb/dr9KKSzHPt5tfH+FBSX+NHi0y6IW8eRis11hHPmCo1qFr+4niNiuvarj5JyrgxrPZ/BFL1V8loP1PG99V4vK79xyFOcf8sJfr70t2/Xw7s76VKPNcY+V6TDhn4WikO19Ut7z2deK+M69+YYpRXtqq/9EsvgzVWUhrXc433e5ep3+MkRXtdM+nfpmAFWv4AMAbDh8v6WqyzV6mVZL433fn9zOSfpQSvLW3//mSiDHgO/Ubh/NH98ObKWNliso4JTUgjLVSO7JxUXbdxnqnq2qZidL/QtXYqWRS77rETdtzJOVmUJHLPfcO7qqae1R1Bf5hdtxYtVlc+9cFHFhyoD+YNXVjmdqCuT/8VP9r1xPt8FH9oUgN1rK72JPNcM+H1kTGdRVejwf7mof7RtY2pikGqcw2VHqyJzMD02KxufX4dyAcyoKa0u8YWJEn/rNjHud39tMPYS9efKQ9G3zoPM9D1FZl4Rf1ZEon+vmTC71cHEe+lrtcY5b3GSCEG2f8AJr/DelGdr+V21OufE9W12VyMvS/jXitDjOty/XlJtc68V8b5b4w5DvI+1FsVJ5vo77Nxfu8y9XusGL8XKumrBRKZvTzG69qlPx9RmRXoxdfV6T8AyHorltavDVWpk/nexB3j8n7hRs7f094vRCeuLaX//mSi7nwOK5rCxiGuWvEB+h0o08YcgAP7fYBg8W/FylB3zX5HYVi/N23dSOPQ70AcZJwhoZgwcj22imPU645BruODxVii88oPmprS2w1VZjx95p51UW+RIRPh/LPhA6x8/mO9JVVspeqj6zCowdbvf/ilqMTtKJV9163F4OBfSYtxymk6Tg0ILlYz/8H2l9jQAPR0sl276p9tzXwZ5XqiPh8nHgxea/716Wj7h764nmumvD4hMi6mKNityiL/mHnCxs84Cnb/MbtQduxuao1FCT2/2H/hjXyNUk/+QZC++lP0NUn3pTWV0xymnU7/tcTP/FlZM0Vfs/q5dqpExv6ZGv7HhRi92NivJpHoiudo+300mmOi6viz1Nnfl+7//TLZn3/Ee6nrNUZ7r9Hj26yfhaWwdUcyzjcjtO86jIl/X0a8VpGiXFdcPy+p1an3ynj/jcm7GJcPbsDTg22TssV8n433e5cp3+PI94NmNY56TeWlxs+3WV2dErwnXIzvabTXNeZrliqRz8X5Q7j6I4CRyFp/AJD1NU+32v4gEM/3Jtn3Q7f3CzfG+Xvc+4VI4trS8u9PJurG5zDsQGwITlQzHYsPuhBTVffSfhg16hi8OUfvWyl1QYt0/7wQBy02xwtKiz3WcRgumCp/nQnFBO+XGJd+OGqYkSOu0hli1OsehqHH2Ce4iWRcx4Wh5/WQsR56XhZ5fjK+0dRr8+bPOk5t6uLuylV6CdjngF2xZeNXes2ddEWVxDHS5TVH6SUiyj7NuPHoJTglbYPrqceSbnqla3G508+G2z7qNjK759JT0jkpC1ES+H5BcWoPbMCPjinQaz2QjCl8CDh/qh4TmQpyzukbMEpNfuMs4cqifXxiZKIo+2QcoxOnRJGIspzqHhea4ZXI8nz97aFuehHc9lE3ke7l1sQ2RBmE7xeUM2Rs4rAVmJ5QRdLdiiWLw+/X6CDhyuKrizbi9aYNei1EEsWRFxyKfvm746nad+KuOLKySJSF1F96jX/A1SQ5Vldrym3m7WpqgmO3ZDIDqxLgto+6l/W94e8yZQq+X1ByenxlMSXM234sDtbwZCKb6FVFkXCyKNre3ILnH1sfHKtoJYr5w/ZW65IoSsK49b/fqHU3TBaJiIiIiCidmCwmJ6kJbgqO2QdlVw/GAQN6Y8eddghLFIWMZRx10aFqn5vCH++jl4iIiIiIiCiTJFVZtJPqYrQb87ev+BRNs9/VayG79t4RPynthyOO21dvISIiIiIiSg9WFpPT6WQxljf+vhHLG80xjlJpPPJ/94XnJ32xz4G7qm1ERERERETpJMkiJS7tyaJ46ekP8fbLm1lNJCIiIiIi6iG6JFkkIiIiIiKiniWpCW6IiIiIiIgouzFZJCIiIiIiog6YLBIREREREVEHTBaJiIiIiIioAyaLRERERERE1AGTRSIiIiIiIuqAt84gopTgzW6B/LwD9VI4vjY9U7TvJxERUa5gsthJ8iGw6PCD8dVX3+ktlOn4PUtOrNdN9v/omAK9lntef7PNNVnM5demJ3L7fhKlQnf9W8R/A+OXba8Vnw8lI+FuqI8//oheMkWuExERERF1Bj9vEmWGhJPFs86aoJdMkevkbOtn76uvj1y/l/pqrWey2iXv4R+tn+o1IiKi3LF9+3Zs2fIJ1q0LoLX132hrW4PPP/9c76V06ymfNz/5ZLNeonh9883X+O47VgO7yqZNH2Pr1q16zchBjGXZFq+ku6HKX3iS+cV9qe1T3Pv8h3hp7RZ88uW36LP7TvhJwd64bPjBOGGQmUh1hS+//FL9gstX+YHdcccdsfvuu2Pfffuor/GKpwT+5Wfr8WzdSfifs2dj2f2n4pRLGvH/HrsQP694Abvv1V8flXleXvsZLrzPj3svOgInHb6P3ups2A2v4D+ffK3X3P1gtx3x8MQj8dPCvfWW2C594N/Y+NlXei26/zV+lq4ePQA77dhLb+ko3m4Lr7/+Gn70ox/rNRjHb8MHH3yAzz77DN9++y123XU37LdfXxxwwIHo1Sv646WKfHDZuHEDPv54k7qWnXbaCXvttRcOPvhg7LLLrvqojtedKrFeN9nPbqjshpotEumG+qv5l2J4/sk455gJ2KEX541LtYnzL8FJA4tx7g/P67LXVz7Mvvvuu+p91/iohO+//w4DB+Zj5513Ng9IgXj/LUq17nrcZCX7eTMV4nmtWlr8OPTQAdhzzz31ltSSD/W77dYbe+yxh1pftWolvv46+uctt3//u+t7L69RUZFHJSnvv79ebZPP3vKaHXRQP+ywQ3K/14k8n1NP/bn6DOemX79+eOaZZ/Va/GJ9T8Quu+yCo44aqtfik6rzyuv+n/+8i/79D1GvtSwfcsih+Pzz/xrL/9FHhbOft8vGLH773XZcM68NS1s+waUnHqySj74/2Bmb/vsNnv/3J7j/xQ/wM08f/N9Zg1w/6HeWvPFv2PCh+uvgvvvua/zy7akSRfmh/eKLz40E8hO17aCDDoorAYj3B3XjO/9A+5sPIf+Y89XXgUefiwPzT1L7fvvba7B58ya1HKlPn774v/+bptfS7+tvv0f1wnV4bPlGbPjM/AE9/KDeeOl69+Sjz+QX0VJ9nFouqloeXI4k+x6a6MGVc9fgvotjJ6GJkJ+x2xrXYacdeuHaUw/TWzuK93tmT7r++9//or19rUoM+/btY/zM7KR++davf0/94hUUDE5rwig/t2vWtKqv8sveu3dv42f2W5U4fvTRRuTnD8IPfvADdSyTxe7BZDG7JJIsHn3HEPV12MFH448/vwWH7Zun1ik15PUdeuAw7LjTjvjDqFswYN8Bek9qff31V+oPb/J5YO3aNuy6667qQ7pUFyUZSOQPyfGI59+ihmlF2PqZ+eHabqdd9sBJF8zDgQNP1FviF8/jjh072vhQn1gPKPnD5cKFi/VaZvjhD4fijTdW6rXExfNaSSIknwPkjwnyATvVpKjx3nv/UR/u5WdQ/o0fOnSY3tuR2x804nk+6SCv0WGH5anncfDB/VWSKJ9nPvjgfeO121F95k5GIs9HfhaampbqNWejRp2S1M9LrO+JWLlyRcKfzeS8w4Ydrf9o5Sze81oJo5D3M3l/c6vu2s/bZWMWJVFcu3ErFlxxFMYfvz8O2mdn7Lwj1Nezjz8AT04egtYNX+K3j6/VEekhieJXX31l/NAehr333kdVZ+RDvnyVddku/2B8+OGHOqLzpOvp0vtLMPCY83DAwJ+qr8vqxwa7pEqiOG3a7Y4tWhKZLrc+sw5vf/gFll17NJ7+zVDst+fOmD5+sN6bGj/K2xO3nzMI59/zlt4SnVQsJRGN1S6c1QL5Vbq25DD8v7bUdp21EsVBgwrUX53kw4T8gUHe7A4//Ah8//33quKXTnJ+ebOQx5PHlceX65B/nOW65PrkOjPLEniN3yf5nbLaqfe0631uJO5UxHVoFljiNV4b7xK9lmrtuOdU2/fg1HuMLSLye2N/vZ1e/9z6niRrxfv/wvi/luGBV+/Hd9sT+zD2/I1DcOPzekVpxo1Hj8ecgF4Vz1+Po29s1isu5Lijh+DoCQ8gLNx4jLjiE6Ee63qEXXoa3F5ag+H5xfjlo+fi/uX3Jvz6upH3cPnDn3yYEhs3bjQ+E+yM3r131wnkLilPFOMlieJRI67r0PY79FjVU0k+R0Q2STA7SxJF+WCdSEs0uYwl2c+b3UF+huSDuPQ6ShX5g4UkWdINWj7Uf/hheFVMPszbWypJt2urRa47tXhYCa9VgZXP3vvvf4Cqbsnr5nReaT3Bfvvtp5dSa7/99lf5iXzm605dMmbxn8aH92Vvf4Kacwdjj13Nh1ze/hnufyH0g7/nbjuiZkIBmt76BK8Y+9JB/jrzxRdfqA/YvWxdWaSaaP0jIdtlv1QZrW2dNeGWzzDikmfwzpsPqwqjfJV12S5Voa70lO/IsH9U5t/cHxveeVHvhaoo3nGOkRTtvSv+9e5/UV9elFB30Xgdl78XPv/6e70WnXRtlSqlVam0lu3bVt58HLZ++x0uvf/tlFel7Ymi9QYXSf5KtmlTescsSAVRKopO5LoyN2Ecgqrn1hn/2Em7H0XVJ6cxMeqB2u9BTctZOKulJvWJmHHuUw87GWsqrdffaHcCfw++/KHvzXNVQPUVViJJnfHVd9sw48UalD92IdZ9Yk/V3A0/pRRPL7UlcoF3sAZ+LH4+dI5AoBVFg2JVLY0kc0oDTpuxGv965GIEjw48gLvXlOK0NXXhCWjSApgzwUg+lwKn6S3pJB8sxx75C9SOm4l/GP9mXfzoLxN6faORD/kB47XesmWLkRDugW+++UZVEq3k8Kuvvla9kIS8v8owhK62atmtHdqGdS9j4I8ucEwknSqRPVGinzebm5/DKacU4+c/H6mqSJbTTitRFaNly5aq7/dNN92A//3f4/H731+vj0gN6S4of3RwqwIlQs4nXTelIifJgnTXtJNKlr2lUmHh4cEWue7UYpE/uEjCK4mvJMB28npJQuR0XmmZTPKKd955R32P0tG7TP6YK+fftm1bpxJGq6ooybpUFWVZtsV7zuQ6CRsS+QvPfc9/iEt+enAwUXztnf/iqkfX4sj+4X+pk4TxkpMOMo5PzxudjFHcZ599whJFsdtuu6lSuHzTheyXfxxSNWhZxiz+87GLVEXRqjDKumz/wQ+6bpym+HLLfzDu2tZgO/7MOjw3p0wljuLDT7/GwfvshqdvH4LJIw9JS6KYalKhvmPCYPxtZfyDdeMVK1EU0iVUxhCmk/x1W35Oo7EnjJlrJHxGVjLk8cVgumhq//vTxieZClQYn7af/nsqU7V23HNFNYruXwffSL1J5P8Kv7Kva/m/qsRZq59GSi8hxyVcZTxsEIrWvBOsBAaeX4TBlVcDa4Nb8PxiYPTweLq4ejAooie+nA+jL0X5aIQloMnLw4WPGAnpHx1+oNLooL0OwrSxPowoOAUXPnp+p6uM0ovo+++3q/dXGUsl4xQlUbTGUH377TfYeeddVJXn3XfXqQ+1Xc0pIRxyUiX23Nv5D4ipIP+uSYKVSJOYdIj38+bNN/8BNTUzcNtt0/UW0y233Ipp03z4059uVgml/IGsqWkZrrhiij4ideRzZGQFsLO2bv1S/bHYXt2OrCraWzo4VfzsLRb5fCKJr9UsH3/8kfocLEPDnM4rLVNZ3YMPPNAcriDvDdIF2N5SQc4vj9OZhPHLL78IdqWX31NZ3rZta9wJbtLJYiKDjWUyG2tsmiSKVz7SBt/Z+ThhUMdE5KTCffHPtvRUR+QbK+MRI8kL16/fweoX3EoY5TipQqaCTGIzuuJFWGML5Kus/3vtBpx88kl47bVXMWLEScF23nlnq+O6wv6HHo/Sq1eoxHHbfz/E+7cOVl+/+MTs15yM/vvsqsYmOjXZlw6SMKaa9OeWrhH//vfbqt+41SLJ2MF0dxGQ88vjRLJfl1ynOfFOel7jlMj/GU4b8jgWW9miqn5ZXSG94UmkbV+o+2pkd8iI9bCYezK862Q7VK74s3zjZVHZoq2yp5/XPV792livgdmtNKw4u8Q4Jti9VGv/O55efRZGd+3neIqQUJUx72SMxiKYeZyZGA4aPhCDn16iu3gGsLalEHkqV9RdVJ9/ABOku6nRJqhyoWyfjKfhR02ptU2EEs284WOMbPG5YFIa/Vyx9nWfVFUZpXLz2WefqvHee+5pjvneZRez+6mVLEolasOGDeq9VSYU667uqG522b0PBhx1Bgb9byUOOe43OKHsPr0neUceOQTLlr2QUJOYdIj386Z8z+T7FVnZs7bJfvv3NV2kSp3KGVL79t0vOLmNJbKqaG/p4FTxs7dkyGQzMizsgAMOUH/wdjqvtEwlOYO9WhrZkuF0Hns35GSrl/IzZP9jjnT9lTlR3MYs2iWcLCbTh1xmPZXJbMRNDe9g0+ff4OL7/90hkRD77bUzNn/xjVp28/zzz+Hmm38f1mSbG3lRrA/1MlmIvUnWLvutbqHmh/PUjYnovdfB6i8o0vVU3qTmzG3AgAED8Le/PaP+4mXv9x9rtiZLMq9BV1hyzbAO3UWtJvuS5ZSEpiv5FEOGHKUG90a2SJs3f6I+RMSjdc2/sbDxb2FNtsUiH2bkcSI5XZ9cdzySvZbUMRKik5/GaVY31fuBmmBmtxrVNcCdst3sIxlH0ifnM6tpcr47jY/Mj+s9nbV48WJcddVVYU22dYokdDgNP8s3liWJNtbCK3vGa7BmtH5tzsLq6jrjGebjV5Vn4fFgtm0868WP46zKXxl7IgwZ3HFbFO331ODxIfpackBavp8upMr4+2dv0GvRGIncYD/WrpNlIzHEGAzPK8Ypp7UiIHnQ80vw9GkjMVx2K0ZCeDdw679W418NVxu/PNdgTqAYf/xXrfGz5EFlw2o8cqGuQgaew2J1PmM5LCm1OJ1L73LdF790/HslVcb/O3Uatn+/HTcuSrxL4aZNm1RFUT6ASZMkUSa0kQrBTjuZnxWkOmD+QXAnNVu6m+54T925dx8cfNQFuHbRdhx69Wso+O2buPafHmz8b+zPUfFKZZUkEYl+3rzhht/jmmu8xlfj3wwbmURQ2u9+dwNOOmm4+uPb6NEjUVv7F31E58kHcflDrXTzkwnvnAoT6dITKouRpKIv3SClwiVjXZ3OabVMJd2CJVeQLqj2qmlk9TQRTuexd0NOVRdn6UEhOU6850s4WUy0D7nYd/ed8LF+4/rDuHz03XNnPHDJ4R0SCfHxZ9+gzx6x35SGDz8ZJ5zwE70GtSzb3NgTwMGDC8Oa/ILLfhlsK+yJZapUVf1W/cVJxjzMmnV3p7/pybwGYusXG/G3P/8IC24rjNqENa5x2QO/UOvxuPqRNlx439uuTY5JhlMS2pnkMxVkDItMPiMT38SjcPDhyB8Y+kQuy7ItFhlHK4+TyjGJyV5L5w3BYHnY9rVokYToZF1ZvORxrF5jZUtDUHWnToDyf4XKs1YjuCsaOd+QKlToaprqWmkudtro0aON363Qx3RZlm2dYXZB/ZlO6PIhxcXqOnvJ0HgNrCczcrTxXFqwVl4DWQ525V2CxS2h5xxm9ZrwamMHodf+5Ooi3P+MQ8KZpdLx/XRjzZIaS3DcoiSGgweq8YaHDTK7jXYcr2gkhLfqMYl5F+Py06xEsyOzC+rJevxiHoYbT7Wm3j7Rjdu54n8cN8n+e+Xmw88+xG+fuQa9duiFm8f8SW+Nn8xNYPXEMJPF3YwP+ZIw7hrsbioT30mThDFWN8vueE/tV1CMPyx8HxuMz04yMd3Sa47GN8bHnMvnvK2P6ByppAa2GD9DRuvqqmqinzclEZQ/uMuMrNaMlvJ18eK/49lnl6C4+GRVWbzpppvx//7fK+prKsiwJflAL8OcpGIjiXU6ZkWNpqdVFiVRlF588m+PfM4+5JBDHM9ptUwlvw+SO0jPAyG9D2TMs72lgpxfHkf+sJXKIlYiOUjS3VDj7UMu/qdgb7z4b+OdxiAzYc44dzC8j7Xj5bUdZ61sfnuzcbzZHSSWn/1stPoHR5osxyLfWPnHIZL8dUPGLErWbr0ZSv/pyLJ/Jkr0NRDvrlqAffsd5TgOwmr7D/xp8OsP+sY/5f/HX3yLOZce4drkmES5JaHJJp+dJT8jMkZQblsh91yMl6foSPUhQposx0POn45JbJK5lk5R3SOLMCj4eeos3C+VM6uFDbCztGNti17sRqeffrpKKqTJcucsQV31aqyWCX8kUVYJ22rjjTWe8ZwjUVHVoqqwUhFsCSacNpHdfR3ZJx/yGWe15GNwZG8yldjbv289X2q/n8523XE3TDmxEg+c/VcM2Df67XyC9LjF543E8LRTitUm1W107XMxxisayeQavdhBM+pr/GipGWvOkGq0UmMdwe6tkdzO5bYvtmT+vXIiH3IWvvU3TF4wCSflD8fscx6M7/WNIB/mZNp+IQmi/Q/E9i6LQj6k2dej6er31D32zcOTr3+E3582EAfuvbOaYf73p+epW5J1hiTP8nloeWArSv+ySjVZ7uqEUSTyeTMer/3nVcx+rV6vdZ58dpTXa6+99lb/Pqeq+hOvnlRZlIRKxgHn5ZnVMuF0PntLB+nh5/NNV60zXZLl92HgwIHGv6GBsO+7TCBj3aaiM+TfZzm/lSim6ryRYp036WQx3j7kQm64f9+L7+PzbWZGLAnjHecMwlvrzfGBlv9u/U7db/Gy4fHfqF7+wYn3Hx3pQiIzn27fHv6DIYNGZcyi9SYoN9+V2dBidTnJFIm8BuKdNx/BvgfF/kdMXqdPN7yFwhMm6i3dxy0JTSb57CxJFGXCA/v9DRMhHyIS/SCRrllPk7mW5FjdRHViYrx2RXjc1vXUbnVowpew8XeSyNiqjEsWh7qayvlWV8MqzqmuleZiykhSkZLEQq57SBWesyfK655DVcwEz2SOcaxDnR7z2JHurnpJxPjG9ntwT8zz52NQ0eqw2VGX1FVj9VmjbQlldkjZ99OBVBMf/+UTuPjYS+K/kbzqIno7ptQgNEFNnoxbvB01wfGKFttMqdLNtKUUp4SKpSFSpSy6Gg3SjTTYFqKyqAFLg9mi27nifJw4JfrvVSSpJl6z0ItlbUvx13MeTuz1deGWCMqHQNkvCUE8uu49VZK67Wm5N/Uvf3kRXn93K8rrW+A7Jx8zzhusll9+58suTxgT+bwZyxvrX8fUZ66C54DUf3/ks6RUqmUcrCQP9jkFnJrccD0VelJlUSr2UiWz/745nc/e0mHmzDp1azppstxZH38cmmBRJsoyk+Jv1XJnyPA1OY8kiqk8r1085034HTbRPuTihEF7qRvuVz7SFkwY5dYJl5wU6ronieKVc1tRMrSv2pcO8gYn/cilf7Q9YZQuBFb3EkkUZb8cF6vLSarI/fL+9a83g01cc83VqskA1FTbcefdsevuse8J89nHa7HnPgOw9wGdv2dTNulsotgZmX2bDCe2bqaH1WDwc/bZOc3ZUY0DgtW10G01hqBozRXmNnuCaUuC1L7FUpu0GOe7P7TvCpyWsm6oqSbjDId0qAhKV9QhYeMRo5KuuUWP4/GiSvwqWrVvpE+N92yxXitpVxgf1uPI+Eb6jMQV1ThZx13SYiS2jlVfipRwNTGMdBH1AEV6fKEi4xaNL2HjFYUHg9deY1YLS2/H4Bm3ROw3Pb+0AUXBLqgW83FCt+pwO1d8j5Nuqaom2sksp1LlEJHVBVm3tskx8u90ptlu5IhffbEZpx+zH256KoAPt3yDD4x201PvYOywzt33bfv+R6HsrtXqnsgyGaF1f+QJd7/VqQpj5LhVqzlJ5vOmRSqHUkG0k/Wrn74S00+9A8cNOF5vTZ1Nmz6G3FxebsEit9SKTOIim0ywlApdUVm0S2f1L53ntjzyyFysXr0Kt9/+Z9TU/AVvv92CRx9NTfVa7tH6+edfqM+H8lntiy++VNs6Q9770nFeEe95e23e/FmX1Mu//W67uuH+s29txqVGkiiznu6/18746LNvVNdTqShKolh95qC0/JXMIi+69JeW7qiSJEpSKKVwydolCZCKomyTX/h4/orYHtiAosMPxldfxe5HPHHiJepG+0JmPZW+9U5kCmqrv32qyRjEQzy/wL4Huc9a9uE7L2Lb5x/hSONDz8Afnqu3Ric3xpcxhNItVKp9bqxjZIKazbXmDLHRxHPeyPNd+sC/cd/F0f8alcj3LFJ3Jop23XEdsV432f+jY+Lvspx2MjPqyWtQGdbFMn1ef9P4fuSZU2hHSsdrIzfzXzw64tYYlDJu389IR99hvp9KNfHmn/+p00lMbDJLaR0GNcyDNYdN8tzOlcrHSZ68vkcdOBQ77bAT/jD6FuP1HaD3dI5ZWTAnKJNKx6677qK+yueBr7/+Jpgs/ve/n6Fv377YZx/zfoupEs+/RU9NK1K32Yq03fh8MuSkq/Bt4VUqgRvp6YPFqzbhq2+/x7gf7o9bzxqEPXd1nnch1uO+u3kbRk77Fz7+/Bv176+d/Du73547Y8k1R+MAI1+UappF/sA9a9b9eq17vbn+DVz1tym4rcSnEsPI9XjF8z2yvPnmG8EJ5tySNkkUhRwjk9JFI//G2xNKmexESFXSOocTt8mIEnk+PUEiz0fuvXnttdfhgQfq8de/PoQDDjDf36V6d9FFF2DChPOMBHJ6Up+/5Xsik1ZKfnH44UcEx6xKV3eZqX7//ffHe++95/r9dhLrvDKT7H/+85+0nzfpvhuJ9iGXBNB3ToHxIf4IrHrvS5w/y48f/+E19dX//hfq5u/TxhekNVEUkgDKZCRyzxqZslf66MovpHyVe9nJdtkfb3eTREiV0KoYdpfd9zkU7/n/5niTX3v76J1/4Jttn2LA0HE6sudwSxQ7I1MSRdHzKoxdT3WdTGBG0B7FSIRrok1sQ13u+AEn4Jpi40NIUtVEikU+3I8pOhX3nzM7ZYmikKEm8k+93MdOEsOtW7epv6xv2/ZVMFGU+5PJUCSZ5KY7nH5Ni5pFPbKde/On2DaoEufMfAt/njAYd11QiLXTfoL37vhf3Hl+YdREMR4D+uymkkFL7ZL1qllk345bN6Gq6trgZxppMj1/OiT6eVMc0/+HqoJ47TNezHntAVz19JS0VRQt1s+MsFcQI1u85N94+6yY0dirim5Jamc4VfzsrTOczmdvqXTffffinnvuDSaKYr/99sddd92N2bMf0FuSI3cyKCwsDCZeQhL3wYMHByfBSYbbeSXZS1Yi5+2yymK2SvavNPIXju6oLKbLsBuW4z+ffKXX4nPovrtixc3hf7WMdNT1y7F+S3znHdBnV/zrj+7nE8l+z+QeN1J17u5E0U4SRamSywD7dIv1usn+7q0syj0IT4bME2OSyXO6pqoouqayaD1HmZzmmehdUKnTEqksdr3cqiymk4zTkfFlQiaR2Gknsyojs5/K5HdCZrpMx834k/23SLy89jNceJ8f91x4OIqPSKziGe/jWj17rERx8sj+cfUIciO3S3nhBftMvDKLaXGnZ8aNRrqe3rz0D7jhlN/jx4ceq7fGL5HvkYxBTKRrqXxIP+qooXotfqwshiTyfK6++kpcfPElUW8vJl1TH3jgftU9NVFSSLDPfRJJZn+ViTTlDwCJyJTzJpwsyl947IONI9dzTbK/eKee+nOV1TuRyuYzzzyr1yjVsu3NsqvEet1kf0Z1Q+1iXd0NldIrs5NFSiUZniI3Uf/kky2qh5GQ8Yx9+uyrq4/p6fHUmX+L7lzyHoYduidOOjzxime8j+v0R+B4/sgby9//vhgvv/ySWnabGTcTPm925nuUifh8KBmsLHYSf1B7Hn7PkhPrdZP9TBaZLGYLJouUbt31b1Em/BsoCaPozMy4XSETXqtU4vOhZHR+vmkiIiIiojh19hYqRNR1WFkkopSQv/DlOrfKIvU8rCwSEVGuY7JIREREREREHbAbKhEREREREXXAZJGIiIiIiIg6YLJIREREREREHTBZJCIiIiIiog6YLBIREREREVEHTBaJiIiIiIioAyaLRERERERE1AGTRSIiIiIiIuqAySIRERERERF1wGSRiIiIiIiIOmCySERERERERB0wWSQiIiIiIqIOmCwSERERERFRB0wWiYiIiIiIqINer72xZrteDpOfd6BeSp/2wAa9REQ9idv7A3+vqascsN+ueomoe+255z56iYgouySRLL6CO8ffhhf1mrPhmDdvil6OTj5UdkVSSkSpE+v3lskidRUmi5QpmCwSUbZKMllchsKaCzBEbwm3Cg9XtuIaJotEWYnJImUKJouUKZgsElG2SnLM4u7o0/8Q9HdsfdBbH0VEREREREQ9Eye4ISIiIiIiog6SSBaPwrk1hXhu/K14dv0mbNVbgS+xaf0iTBs/D5hwgt5GRETUlZbhmgEDMOCaZXo93Dv3jsWAAWNx7zt6g5N37sXYWMcYll0zAOEPI48dEbfsGvNa4jxnRw7nzHg98ZqJiMhJEsni7ujb/3ic4R2AlyqvhPeaq3GNalfBW/kUvjzpFIwZd7w+lojS5eijh3RomWkt/vFgHR6W9rfXsEVvFe++qLc/+BhW2XdEWvd3ddwzKzfrDU42Y9XfzPP9Y53eZHvs4LYtr+EZ2SbXEtd5O9qy8rGIx+lBOjxneY1ivP49zlAM9d/hkKwsw8ybV+plFwMvw8J3F+KygXo9ihGjz8Gji23Z4jtr4cdKPLUk9MDvrPVj6GDjRHGek4iIKJMk2Q21DwqOOw83zbsHf5xyOS4oG4+ysqtx+7y7cdPkEhToo5KxvPYMjB/fsV2z4D19RCJeQe34q7FgfeQyUXb4179Wq5aIu++uU4mlfI3kti8ltqzFf4JJyVq8G9CLKdEHhx7WVy19+qlOhLZ8gk/NpdC2Tz9RCes+h+Uj16ekMJP1Z7EOm7BSEu0X1+o9Xedfby7HnAfuUl8jue2LxeNBWNKmLFuMR885B+fo1U4bONhIStfCepR3ljwFzw03AGuCW2BswukjmSESEVHP1Ikxi9LtdDO2qcTxeBx33GBjqfOOm/wk5s2Tdi1OwkBMqDHXp407RB9BRJ1x+eUVOP/8C1RC+NBDD+qtUMuyTfbJMam2zz6SyG3Cu+/qpG1du5Gk9DW2m6uuDvsZzrugAqcOdX+X2Wdvc/8WIyFUX99daySG5mMEt+mkcW85Ns7zZqsBJ1bgxDy9kvdznHfiIL2SGEnoknX0MccZid0wrPjXq/D7V+itUMuyTfbJMYkaPOkqeG6eiVDd7x3ce4cfN0warddN0pV0gHRbDeu6au9GqZfvvSZ43FirZDlwJE7HUzBzUjMxHDxyEDyPLtaP+w7WrPRgkMoV4zynUF1Wre0RCbxtnzTrksO7xEZ0A5WYsP6yxmsx1vaY0lV27L3GVms1dP4Or8my0OPLLrNbr7ke9hyiMh/bijFP77SNiIgyQRLJojU28XxMqvwNKisvw4Udxi/S448/opdMXM+tdTdW9c6ppa2iF8HrvVYlhT7fbSpJlCbLsk32pcOWffrgMPlqT9r2GYQB9mTR6iJqNavbqr3rpF5++G+PhY61jjssXz2GVBRl/bNPN4UeI9COd61tGIwBcmC85zVYXU/V8SvkHDZWrLVfd/E0K3dWF8/IbrK6i2xE19zg4+gqX9h6tNcn2LXWdu3G4/7jxdA1O1YNjbhVgcE48YJzMHTLs53qVisJo70l4tjjf6qSwldf+YdKEqXJsmyTfckZgdHnPIpgL9F3lhhp3emILPKNmPYu3n1X2myc86hT11WxEjevGW0eN/scrAwmoQMxyLNSFxKNxFCdXx7Xj7WyTVUyRxtX4iTaOY2kbPjN8Mw2r+tO46ofVdtF+L53n78B/ovMpDCsS6zxuP6hocqqVDwhXWGDBuKyhbN1Mm2c8yJg9sLLjK2m6K+Jcc13AHfqa370ogG4wrjCjs8hGkkKh+Op05/X538X0+TFWTYTN3tmh28jIqKMkESyuApzK/+JQ7234W5VAbwP1Wr84kNIrDNcgtY/gWts3VJr7b2S3PZFsh0b1rXV8RzvYcE1tuOWz8D4a55APD1Zzzprgl4ycT231t1I1c6pchdte7rYE8Z0J4qmfAyQKpZK2jbjP+skkdsXe5s7Tfv8GKdeUKGqfeedNNhIZpbj/0UdTzgI/ytVwWF91XGrVaJjnE8SQyNZ/Mzq5mo8xqF7S1VzMz7dIs3ctpfxxZnDeY1kUCWIUn0z9gWrcUISxRfWBPdJ3JYVj6rEay/1uLqausV43jorVF1idRfZyO6w+wz9GYaq5NZI5LasxWp53H2Ow6lS9Yv5+tiu3XjcdfixcayRCAbPpw4KUef7GQagD476RQV+qjLt5Fx48a+DLRn2hLHziaJpxCQjmbrDrJgtm2kkWVeFEqIgqaqpitZFtqQs0lDcMElnMCNG4xzoZFCt6iRNEkPPIHX+gca3RhK14HhFR1HOKeMeh94Aa9fAy64KdZtVYyLPwWgrmRp4Ga46Ryerti6xyxb7cfpVp8tFGOvRusKOwLTZwEXG88bsaeEJbdTXxLjmO/VrqK55aOi8Ea+LI0nYV56DqyIHbsq1P3pRnJVJIiLqSkl2Q90PBcFup9INtQDy0SR9XkFt5cMY4NVdVGvOw7s+21jEqPsivYNH5gNT9HF4pCbGOQ7BuGnXYsAjT2C5HOMzPmBPOxP91bnik+qKFdd71no0khRKcmaR5a5MFC177vkDvRS+nC4DBhiforEG7640E6fDBjh0e7SqZJKAuTESPnuSZY5JtMYtGknhOjMZk8fYR5pK2tpVsug6XtHhvO++a16Ldb1mEmiK3Gc+lpFDvrs2uKyqqTJWcp/BOMzYsGVdu9omXWQHDIjsAmskbicep6535d9kPGFfDD3xx6Frcnt9Iq59n733Nf7bx0ygUyzZKqKbnXfZRS+FLyfN6ia67F7c4Q8lYEHSPVNyJVXReh43DNXbE6GTtGVGYniOzuIGjjQStTVLuna8YrBL7DIs9p+OkSNkfQ3eiVJRjSoVr0mi1OQ/UkW9QiWp7IZKRJQ5kkwWv8TmYLdTc+xiWrugrn8P72I4jrOGrfQ/E2UnvYP1kui57etgICZM0cle3Oc4HpO9gG/8bUamOAWJjpxJdcWK6z1r3Y1V2UumoiddVq2v1rKwL8diH6MoLXIMY1robqKfrpOxhLorqI3qtvm35cCwc8zKWRLMcYtGYrjSHK+4t5QujSRKvmwxHlcSSDVesSvsk292gd3yCVZJUmmsD5Fk1lhfrdYH4dAEErlUvD6pEllJ7GzyaB+jKC1yDGNyBuKyqzy4+aKbJWvrWFV8Zw1WDh1sbldVL7U1MSpJuxnyEMEi4kAZt3gzbg6OV0yAxK68GTN1wvTOvXeEqnuyz1gLda01kuBHrUrjQEiO+tQVd8Cvnqus+7F4pvFzFnzu9rGMuvvpu1JevCbUfTQVr0kY22PKazX0UdwRpYI48LKFeN7ITv2u5UkiIupKSSSLcp/Fo7Gi8ne4rXYGamtvxY2qW2oJkpsaobu8h/UygClNUl2h4nrPWo+XJInJdP20ZkG1ZkKNXI9FEkPpeirVTOsaZFm2pXfc5CDVFXXLFunSaSRSeqtJdxHV1TZrIpqE6YRUPUYwGbO6p25yTFJjsSqJZvVSd6HVzGqptc94CDWpjlVp1JXOLWuDlVQzmV2DdQHj8nSF0xqXaI513IxVLy5Xie7Qk3SF8UUZm5ii1ycDyWyn0vV02NHHqq6n0mRZtiUzE2qYEZNww1CHro9C9hmJ3nDpcnnFGniSqqJJUmYEDrVX72TcovEl6nhFN9I91BwPKFW2K4xUNDR7q7FPjVM09w0Y/hROfz7UhVRVNI3kzqpmyrr/Ub9DdVPGDl4E/w2TjNgRmHSDHxdZE9yk5DWJxhorOdy8fqOpKmKw2+sADL/Z4/y9IiKibtHrtTfWbNfLYfLzDtRL0WxG2/I1xn97o0///ujfv6+xlJj2wAaXx5FbXcxD/5rbMa6/LEtl70lMltKejC+sfA9l86TSF2tf+DnenfAXc2bVhM7xMo6bdwKWq6+JVxeJ0kmqifEmiUKSQWmSHEZ2fXXbZ3H/vTX3h5OJXJ7FOmu2TT3G77CTzDFyUi17MWAkRr84G0d9qsf/GWT2VEn49hl2Dk7d+3W13b5szd4piZaMJ1T71KymMpHMo1gpiZVthk/rODX+7xe6W6e+lnjOa16nOlWQ9RyC4xa10LUYgvtkIhkZH6hfD2OLFW9/rKM+fVQ9jnWO4HXLdQ1oDz5O2OtjbH/mb0aC6Xrt4a9x2DV2klQTkx2rKMmgVBElOYyc9dRtnzhgv131ElH32nPPBLoIEBH1IJ1IFjsv/mTRWFUJ3MMwP6vJLTX0dhF1X2SyOA84CXjhBbOLy0lWcigczyET3PwGL/3ETDDXL7galS/9D2oSHLdIlE6JJoudlXiySJQeTBYpUzBZJKJslUSy+AruHH8bXtRrzoZj3rwpejm6WB86iSg2JouUq5gsUqZgskhE2SqJZNG6GX8bFs/4G/6Nw3HqlBIU6L2m3qpbaixMFol6HiaLlCmYLFKmYLJIRNkqiQludkff/luxasEKbB1wOI7+CfDyjGZs7n+IkSBaLXaiSERERERERJkricriSsy95hls/ckIjB53PPqriW4W4SHfxzh13hQcq4+KByuLRD0PK4tEREREuSHJ+yweiuNUoijkpvzH4YSTBkNu/0xEREREREQ9XwbPhkpEmcjt91b2FeTvr9ec7bzzznrJ2TfffKOXnDGe8W4Yz3g3jGe8G8Yz3k2uxieRLEq30+ewaP7f8UZgI77QW2UG1KlJdEMlop6HyWJ0jGe8G8Yz3g3jGe+G8Yx3k674JG+dsRD7ec/Csf372G7ELzfnT+zG/Fay+KNjwudSJaLM9Pqbbeork8XoGM94N4xnvBvGM94N4xnvJl3xSY5Z3A8Fxw1FQcQMqIkkikRERERERJS5kkgW+2DwSX2xefkabNZbiIiIiIiIKLskkSxuxpoXnsT9vmtx+fgzMD7YZuBVfQQRdb/ly5fjvvvuwy233IK7774b//jHP/D999/rvURERERE7pIYs/glNq3fjG16LYRjFokyxcMPP4zXX39dr4UUFBTg8ssvxw47JNcDnWMWGc94xrthPOPdMJ7xbhifmfFJfGLcHX3DxiqmY8ziCjx41YPGf+O34sGrcNVVHdv0pg/0EYmQx58OM9S+nKl6wjVSV5GKoiSKvXv3xgUXXIDrr78el156KX7wgx+gra0NS5cu1UcSEREREUWX5Gyot+FFvRaS/K0zOlYWJflZiaF3XIBhekv8JLYJB06dilH99KaE2c+RivOlW0+4Ruoq0vXU7/erRPGYY47RW43ft/Z21NbWol+/fphq/KwkI57KYtHhB+s1Z/zLHePdMJ7xbhjPeDeMZ7wbxicXn0Rl8SicW/MX1ATbb/DzvOGY4C3BIH0EEXWf999/X30dOHCg+mrJz89XXz/4gCVoIiIiIootBd1Qi3HJtBPwnq8Ra/URqSVVs+loanowua6lHzRhuq1b6oP2vq1u+yJtDB0b9viO5/gATdNtx60wrn16k7E1knlceKx+vsGDI9edYrS4rtHq3tvJ15Uy1kEHHaS+fvjhh+qrxUoS99tvP/U10uLFi4M/C1aTbURERESUm5Kb5SLMZrQtb8MmvZYeH2DxhqG44447cMeFx+CDxUt0whOLkRBNX4yDLjTiJHbqaHw4x0q83PZFMh6/CThfH4fFD8U4Rz+MmnohDlLXaRwzB7hw6ih06CG6YgkWH3ShGWu0C2L2uZVEcTpWDJvqEGO7xrDXSK5xBYZN1dd4IYwE0XqSyb6ulMn22Wcf9XXevHlYt26dWpZEcc4c4wfRcNRRR6mvkUaPHo3hw4frNahl2UZEREREuSmJZFHGLNpvmXEpqnxv4/C0dkPth9EjdVY0bCiOwYfY4JjURfhgg3HkMRhqJVT9RmHUMR9gw0Zj2W1fB8bjn6+TvbjPMQwXGInZnKskU4wy9vKAA9HvzTnxV/Q+WIUVHxyDUY4DE23XaH+N1DUaSaFVjZzzprHJepJJvq6UsZ5//nm8/PLLannLli2YMWOG+r5Pnz4dGzduxAEHHGD8/IxS+52cfvrpKkmUJstERERElLtSMGbxJvx6wtHYbf1mbNVHZDcjGQzv3Zc8I7mcescdOB8PqQ/0rt1gO+UYXCjVQ6vFLmFSDySJ4lNPPaXXgCOOOAL9+/dXy9L19OSTT0ZlZSV23XVXtS0aSRKZKBIRERFRCsYsDsXwcYfgvUdehjmtRgbpdyAOwptYaSVhHzSh6U1dCXTb18EHWLFKl9x0dS/2OXT3U+n3Ocf9NiD9Rk3F1NH98KEq6x2AA/vZKpwrVhqPoPU7CsP6vWnrRhoHfY0JxVCPI2ML7YmiVA8nTpyIq6++Wv2BoKqqCr/4xS9iJopERERERJYeMmYxWcNwgRpHqLtgqrF7VpdQt32R+uGgDWb17yo1RjHWOWRs4Rx8OHqksTwMI0d/iDlOE9zIxDcSZ7Tpiw/S3Uv7GV+PwZvWOVdKXdBijYWcHoyLXY00rxG2mKvSV8KkbiCJYlNTk14zE0WONSQiIiKizkrRfRYH4sQJ43HGuONhdnqLT/T7LBJRvKSiKF1QRbrHGsZzn8WC/P31mjPex4jxbhjPeDeMZ7wbxjPeDeOTi08iWfwSm9Zvxja9BvRGn/59jf8mjskiUWpYXVDTPdaQySLjGc94N4xnvBvGM94N4zMzvhNjFvtgN72FiLoXJ6UhIiIiolRLIlmUyuIiTBt/PiZV/gaVlZfhwvG34tn1m3JkNlQiIiIiIqLsl0SyuApzK5eg94RrUTPvWpyIY3FJzdFYUfkQVusjiIiIiIiIqGdLcoKbl3HCvClGmmgtn4CXg9viZ41ZJKKehWMWo2M8490wnvFuGM94N4xnvJt0xacgWVyI/bxH4N++j3FqEsli9Mchokzk9nvLZJHxjGe8G8Yz3g3jGe+G8d0Tn0Q31D4YfNJg7BtcPhTb1xfgsgQTRSIiIiIiIspcSVQWU0eqEEWHH6zXiKgnaPn3+66VxVi/0/zLHePdMJ7xbhjPeDeMZ7wbxicXn0RlUbqenoHxHdoMvKqPICIiIiIiop4tiWTxKJxb8xfUBNu1mHDSaJROOAGsERIREREREWWHJJJF66b8Vjse4yYPw6ZHXsb7+ggiIiIiIiLq2ZJIFiNtRtvyNmzSa0RERERERNTzpWDM4qWo8r2BvhnRDbUZVZ4y1Af0alC07QlorkJRURE8ZfUIBOpR1tnzZawUvFYOmqs8qGrWK4rD4xivsUcdJPs86vVWr3nYceH7pJW5Xaz+vpnnqTKiM0V6XmciIiIiolRJwZjFezFn3u24Ytzx6K+PyHiSlASTvngSCOODfUUDxs1sgX9+OfLyyjHfPx/leXp3zkk80SkeVYqGJtsrHWhHK/xoXBY6SaC9FZ4C60X1YOqiFrS0tKDRC/i8xvdL77HvkzY/2jdCvr8VwEx9nL+xAO3qEpioRTOj9iG9RERERES5LgVjFvuit6o2dt1sqFIl6pTialvSV41ivdmdB8E8hhKXVwBPa3sw4Qssa0Sh18gC24JbYGxCyYiOL3Je+WSU+hthyyvjE2iD31OA4BmN73d5fN/snGQlikwYiYiIiEgkkSyuweLaG/DrsK6ot+FFPI/pajm9SWOnE0WDdIkMdk0M9o2MrDZZ6/K1Agu2v4XpY6wujxHHqgqlec6y+nqHqlUA9WUR3TCt6qYs2+JDXSXNx6iqKlPbqsK6cTo8vrXT5Vz19aEumWFdN8Ouv11v1DqcL/z1CL5+jo9rkzcCJbASPjMxLBiRj8KGJn1sAG3+QuSnMiEvHmUkmT54w74ZiVx/xOscue4SY33f1LZYr42I55g0ikwQO5Mwyn183Jrcx8etOcXYm1OMvTnF2JtTjL05xdibU4y9OcXYm1OMvTnF2JtTjL05xdibU4y9OcXYm1OMvTnF2JtTjL05xdibU4y9OcXYm1OMvTnF2JtTjL05xdibU4y9OcXYm1OMvTnF2JtTjL05xdibU4y9OcXYm1OMvTnF2JtTjL05xdibU4y9OcXYm1OMvTnF2JtTjL05xdibU4y9OcXYm1OMvTnF2JtTjL05xdibU4y9OcXYm1OMvTnF2JtTjL05xdibU4y9OcXYm1OMvTnF2JtTjL05xdibU4y9OcXYm1OMvTnF2JtTjL05xdibU4y9OcXYm1OMvTnF2JtTjL05xdibU4y9OcXYm1OMvTnF2JtTjL05xUhLIlncjDUv7I7TwrqiXoYf41hcopbPxxB9ZKrJB+nY/CoJkGNDbRIa9F5RXO3XXRhnorShNiKxi1SMan8dxvU6UnV97Njl0UgOSnworDPP6TMSIvtjmfJQPjm8G2ZzUwNKJ5cbeyS+ESWNZrzxUKgNXpAfrQU++P3VqLZ342xuQqsHwS6cUqUzy57u5/K1jTKf98xx8Ptm6YTE7fqdzpcX9nr4q6VU5/a4ljzkF/p1IdFIDI3UcUReMUaVtqJdthnPqaF0lGOVN1BfiwaPHK83RHyPw5LwMPK9k+sqsR0X/v2M//ojub/W1vetOK5zJ/P4qRMtMWSFkYiIiCi3JZEs9sHgk4ZhUFhX1AIMDW6TbqmpJx/24xM+ns1sRlKo9yrBSU/Ck8ikyNg7jxcTdZajukyai+GkyhWsojWjqVXH6LF7weRn0gL4g10zPaFumbZunM1NrSiZXCLZorFu674Z41xe6yLlWowjVZLmdv2u57OJ87jguEVJDAvzVfdQ42mppDd8vKIIna/EV4g66Tas90R+j1W+F7UyZyTq840kbNFUtFZETrKjxfs87WK81sHvWzznTubxUyRWQsiEkYiIiCh3JZEsDsZoI1EpwJfYtP49rF+/CVuD29JDPkCnjCQVwUlPFsHr0dvTrhgTva2qYiSVstaSEbbkpzQ4CYs0s9oVIdiNUxLNEowolvU2BALLjK32qlsc50pIvOeL5zmYCW+zkRiWjjL3540wkt62ZQ7jFUMJoVmhi0GNP9WVOafjjf0+45sdNslOmGRetxS+Nkk9fudNmXx+zEZEREREuSnOZHEl5l7zEFapZbmv4sO4afyvcOOMGsyY8TtUjL8Vz6qkMfVSmigK+6Qnkmj51VZDHgo8VjdJg1S/9KKrvHwU+n2YpXMQ1WXSXOxAJUaNszCrsRCTre6sEm9ExO52mAcV7rUSTVlvRdOsNsmyzOcT97ls3K4/3vPFfZwkuD5U+HSvWbXNiG3wwZfq8Yqiud7WxVgqsP6I6qUW9fpdfiZS+dpEPabZNkYy2jIRERERUXrEmSxuxabAJmxTy2uwyPc2DvfeiJun3Y5p06rxO+8AvFT5EFar/allVVoiW9KKJ8JrJCxjjCTU421DYbCyaI4rXDDJ7AroaZJaTzyKUV0XivMa6VDUOJUsNaCh0D42z4hX94Ywx9Wpx44yCE8lm0Zya1XgZL21odVWkYv/XCFu1x/tfDLW0Ow2aa3H97iS4BoveNj4QzmX8SXKeMVOKc5Hm/F45jWNga+wTo85jff63X4m4n3O8RwX77mIiIiIiLpOr9feWLNdL4fJzztQLwm5NcbLOGHeFBwbtmxx2hZbe2ADig7v/lv5p5R0cy1pw+S4b8lB1LO0/Pv9iPeHEPmdLsjfX685kxm33MjMW24Yz3g3jGe8G8Yz3g3jGe8mV+MTGLPYgmdqn8Dy9b0xdMIheG/BK1ivtr+H5QvewyETTkCWpX1JaZ7lC7+3HxERERERUQ8UZ2VRyLjFOvw9sBFf6C3hhmNqTlYW5R6KJZj+lvky9uo1DnWsKlIWi1VZjPU7zb/cMd4N4xnvhvGMd8N4xrthfHLxCSSLFpkFdbMev2jXG30SvG1GVnZDJepBXn8j9kjjH/0w/M6pTBYZ74bxjHfDeMa7YTzj3TC+e+KTuHXG7ugbdo9Fq6Xn/opERERERJmmaZVjvYUoqySRLMpkNmdgvGuboY8lIiIiIso+TSu/10tE2SuF3VDteqtKYyz2LmvStY2I0iNa11B2Q+2I8Yx3w3jGu2F8bsV7H/4OvvN21Gt8/RifnfFJJIuxSDK5FX2ZLBJlDCaLIYxnvBvGM94N4xlvJ8niuLzleo0oO6WwG+oMvKr2r8LcyofUEhERERFRtloQOA7/+78/4Vd+zdqvaZgNNXMqi/YKByuXlMtYWQxhPOPdMJ7xbhjPeDursigfqlNFHiPWddi5H/8N/vvfb/GDH3AKSkpeJ7qhWklj4rfMsHRFsvjnP/8ZV155pVpnwki5qiuTxYL8/fWas572YSAS4xnvhvGMd8P47IqfMntb3MniczedgtfGLMbU4+Uc3+CVml+gadhi3DDC3G9qw6JF2zBmjP3f3Q8x37cYR3svQsGnz+CqP2zH7+8Yi71fqcH0L8ZgyFffRhxv14bZs9/FRReFPQhRQpLohipJ4iJMG38+JlX+BpWVl+HC8bfi2fWbsFUfkUmWLFmiEkYRq+LRWe83TMIZpad0aGf+5SV9hIP1j2HquEl4ar1eJyIiIqLskvcjfPLSEnwqy58uxZsr91ObP/33Qtx7+114/PVNxto2bJUP06ufxON/fw733jYb/9x0EI7e7yO8+YGRYr7xEb7+ugWvGzntile/RtGPvnU4Xs66CW88ehduf+B5rP/OXH+r4QHcftdsvPjuFrzauAz/Mba+t6wJ/zLO9ekrTfjHR3IcUUdJJIsyJnEJek+4FjXzrsWJOBaX1ByNFZUPIXaNont0VcJ4cOlMPNmwNNR+93P06vVzXPcbl7849T8b0xfMxOn99ToRERERZRkPxh70bywysrT3/v4hDjuzAN8aW3cfcArOnzgOO778N7ThI6xcsRH4aCVe+GIoLruqP16ofwUFx/RGu5FM/uOtbbj4zF5Y8cY7WPVNPn60t/Pxny42ksbBE3H1+cdgTyOZlPXnDj0fV/96JNbPbcD3X/4bL3/wHl5e/iTefuMbvNGyEQe5dwqiHJZEsigG4IRxx8PMb3ZHn/59kuqG2pW6ssJoegl3VjehuOoa/FhvISIiIqLcdMCYYdiydDYaPizEyD1ky6f45301mPfGBny7kzokqM9efYGdd8K2z78Ahp2IfQL1eGvHY/CjHxbh6+Z52LLvMeinjxX24z/6cFfkFexsrO+Fvfc0cskPv8eBB0v310Nw4E4fAUf3xoZnm7H9uF9iW8vDWIejUGCehqiDJJNFu4/RtrwNquqd4bq2S+pf0XzyzbjiWL1BqC6nI82uqeOm4TW10Ugq7d1QbcdMbXgs6r7I+Dv/Msm2jYiIiIgyyt4n46df+bHn6P+BOfrxS2ze+Dmw5S28GVAbohiGo7ctxkeH/9A4x08xZNP/w05HR0/vCn7aF6/c9Riemv0Q/m7khgU/PQSvzJyDZ5+qxav9f4EfFvwU+7xgXMeP/gdFnyzBtqOH6UiijpKY4GYNFteuQcHkEhSo5eewuf8wDA9WGuPXFRPcjB07Vq+FjBw5Mr2T3khSN7kZP621dy+VpO6vGGBte3Uapq4/F9NL/2PbLsfcAFQtUUmmjIG8Yg7wy+C+aPE34N0LZxvLh6hHIooU7Y8jnOCmI8Yz3g3jGe+G8T0/vmnl92ha5fjRuIOCg3bAUbu9nNLZUIkyTdbPhuqULAorYUz9476Hp7wX4R8/jUjeVAJ5L9ZuD73cvUbcgid+g1ASCOOYGqDSdzbMV8WWIMq+WPGJZuuUM5gshjCe8W4Yz3g3jGd8pCefXIDdd+etKSh7JZEsbkbb8kV4yLcYH+UdgD3wBT4KHIZzaibipASTxq5KFiUxXLVqFTZs2IDrr78eJ5xwgj4i9Y+rqoH/KMadwYRPU8niOpy9IHIMY0RC6JosxohnskhRMFkMYTzj3TCe8W4Yn3vxci9F33k7qmWn+Dlz5kQtTBBlgySSxVdw5/iF2M/7S/z8uMHoE0weP8ap86bAPkQvlq5IFq37LC5duhQ1NTU48MADcf/996v9qX9Mt8RN9jl1F7XHmMdE74YaK15vIorQlclitMey8MMI490wnvFuGM94N90RP3fuXEyaNEmvEWWfJCe42Q8FKlEUfYzlAvRVy5nHGpt4yimnqERRqouSOKbDa3+5Ac9tb8WcXzvdZ/EnuKL2MmDORRHb7YxjqkbhuT+Z+2tQbPzPEk88EREREaWK3HifKJclUVl8D8sXvIL1OATHqUltItfjl+7Kop08TtdUF1MoatdVosSwshjCeMa7YTzj3TCe8ZFYWaRsl0RlcT1eeeRhPPLIbagcfwbGj/8NfGHr0mboYzOLVBcXLlwYTBQz3WtP3Iv2QYeFj30kIiIioi7ByiLluiQqi9YsqG56o3//2B1Tu7Ky2DOYM6nOaTO/Jb16/RzXsapIKcDKYgjjGe+G8Yx3w3jGR2JlkbJdEpXF3dG3/yFGMtgHu6l1uXWGrNtbpo5gzHSH4HTfEjzZsFS1J5goEhEREXUbVhYp1yWRLEplcRGmjT8fkyp/g8rKy3Dh+Fvx7PpN2KqPICIiIiLq6WZcZJZGiHJVEsniKsytXILeE65FzbxrcSKOxSU1R2NF5UOI3aGNiIiIiKhnYGWRcl2S91l8GSeoeypayyfg5eC2+MUzvomI0oc35e+I8Yx3w3jGu2F87sXLTfk5ZpGyWZL3WbT7GG3L27BJrxERERERZQPvw9/pJaLclESy2AeDTxqMfYPLh2L7+gJclmBVkYiIiIgok/nO21EvEeWmJJLFwRg9uQQFweWJODfBm/ETEREREWU6VhYp1yWRLMo4Revm+/Y2A6/qI7rT2LFjgy2WRI4lIiIiotzCyiLluiSSxaNwbs1fUBNsN+HXE87Az4NdU4mIiIiIej5WFinXJZEsWjflt9pQDB83GF++sAaf6CMyhb1y6NRSrxlVHg+KioqCrapZ7+oUOW8Z6gN6lYiIiIjSjpVFynVJJItOjscVGTLBzcKFC1UTTzz5pGsT9uNTw4Opi1rQ0mK0RVPRWlFlpHpERERE1NOwski5Lon7LG5G2/LnsGj+3/FGYCO+0FuB4ZiaQfdZlMqhlRBGc+YZZ6Q4UZQKYC0KGuejPM9pPVmpOg9RuHTcZzHW7zTv48V4N4xnvBvGM95Nd8TPnTuX91mkrJZEZXENFvn+hf3KKvC7sLGL5yP8IyWhuQkNpZNDCV6gHmW2bqqhLqpmN9OqqjJ4PLoSaTu2rL5dHRVk2xc83ukcRERERJS0KbO36SWi3JRkN9T9UHDcUBSEjV3si956b27zY/oYMxn0VAB11cV6u5HMlfhQWOe3dVG1j0P0o7XAB7+/GsURx/rQiAZ9lHmeRpQ0mvv8dUBt8CT2cxARERFRZ8y4aDe9RJSbkkgW5Ub8fbF5+Rps1lvILjRm0d9YgFprYppAO1pRilFWFpdXjsmlfrQFk0UPSkboEqQc6/Fioj42r3yyEamp84QS0qJJC+APnsR2DiIiIiLqFFYWKdclkSxuxpoXnsT9vmtxeQbeZzGj5I1AiceeEKZKKWZKdVI3f7B6SURERESpwsoi5bokksXI+yxyzGJUgWVo9HtQIMW+vHwUogFN1mDCQD1qG2yVRjs51u/DLH1soL421A1VnyfU9ZSIiIiI0oGVRcp1SSSLkfdZ5JjFcLYxi2psoTWDaTGqG71ordAT06h90cYWGsfWlWLBJPM8XpSEuqHq88BXYnZDlXOl5maORERERGTDyiLluiRunfEK7hx/G17UayGZceuMZG+2n9pbaBD1DLx1RkeMZ7wbxjPeDeOzL14qi1bC6BTPW2dQtksiWfwSm9ZvRqgovx7LF6zA1v7DMHzc8eivt8Yj3clirAQwkWOJslE6ksWC/P31mjN+GGG8G8Yz3g3jGe+mO+LnzJnDZJGyWgq6oR6PcZOHYdMjL+N9fQQRERERUU/nffg7vUSUm5JIFiNtRtvyNmzSa91NKoRWiyWRY4mIiIgot/jO21EvEeWmJJJFGbNov2XGpajyvYG+E05AajuUEhERERF1H1YWKdel4NYZ92LOvNtxRYLjFYmIiIiIMhkri5TrOjFmsQ84mTARERERZStWFinXxZksrsTcax7CKrUsYxQfxk3jf4UbZ9RgxozfoWL8rXh2/SZsVfuJiIiIiHo+VhYp18WZLG7FpsAmfbuMNVjkexuHe2/EzdNux7Rp1fiddwBeqnwIsSfhJyIiIiLqGVhZpFwX530WZVKbl3GCuum+fdnitC22dNxnkYjix5vyd8R4xrthPOPdMD734nlTfsp2CYxZbMEztU9g+freGDrhELy34BWsV9vfw/IF7+GQDJoNdfbs2eqG+/G0u+66C9u3O+bLRERERJTDpsw2+9UR5ao4K4tCxi3W4e+BjfhCbwk3HFMzoLIoieL69etxtdeLXr166a3OJEm83efDPvvsg1//+td6K1HuYGWxI8Yz3g3jGe+G8bkXz8oiZbsEKotDce60u/HAvIcwM+zWGVY7H+EfKbvH/Pnz40oUhRwjxy5atEhv6axmVHk8KCoqCraqZr2LiIiIiHoUVhYp1+0gFQKnFp1164zI1he99RHdLVqiuPNOO+mlkHiSysR4MHVRC1pajLZoKlorqowUMhZJMstQH9CrHdaJiIiIqKvNuIg3iqPclsR9FnuuHXbYQSWMqU4Po8rLRyFa0c6kj4iIiKjHYWWRcl1OJYuirq4OO+64I1JeUHTS3ISG0skoz1MrUaqH8rUCC7a/heljiuCpqopY13XJQD3KbF1cQ91b9Xnqq4L7yliSJCIiIuo0VhYp1+Vcsrh48WL4fD7s0GuHNCWMfpXkSdJm5Hyoqy7W26MpRrW/DuN6Ham6r/qrqyPWJd5ICEt8KKzz27q32hNPP3xto8x9M8fB75tlRBARERFRZ7CySLkuK5PFWLfCePHFF/HHP/4R27/fju++S/XNVkNjFv2NBahNxdjDQDtaUYpRVt6ZV47JpX60Bc/rgXei3lk8yjiSXV+p+8hscW5NZptza04x9uYUY29OMfbmFGNvTjH25hRjb04x9uYUY29OMfbmFGNvTjH25hRjb04x9uYUY29OMfbmFGNvTjH25hRjb04x9uYUY29OMfbmFGNvTjH25hRjb04x9uYUY29OMfbmFGNvTjH25hRjb04x9uYUY29OMfbmFGNvTjH25hRjb04x9uYUY29OMfbmFGNvTjH25hRjb04x9uYUY29OMfbmFGNvTjH25hRjb04x9uYUY29OMfbmFGNvTjG+83YMLjvFEGW7rEsWy8rK1O0wYiWMb7zxBn73u9/hi88/x6WXXqq3pljeCJR47EkdEREREfUU3odTXVQg6lmyLlm86KKL0L9/f5SdeSbOPOOMsBbp7bffxk033YThw4frLSkWWIZGvwcFasxiHgrsiaOMZ9SLMamJchrQZPUtDdSjtsFWaSQiIiKilJPKIlEuy8puqJIwPvbYYx2a5ZBDDlG3zJg1axbuuusu7LvvvnpPKtjGLJY0oqRxvp7gJg/lk0uxYJLe1wSUquNFMUaVmnHmhDYd16sbvWitMCe4Mc9bbWwlIiIionRhZZFyXa/Nmz9z76+ZRu2BDSg6/GC91jWkknjttdeqrqcnnngiLr/8cr2HKPe8/sZqvRTdj344RC+ZWv79ftR7scrvdEH+/nrNWawxHjIuxA3jGe+G8Yx3w3jGu0kmfs6cOZg0aZJeI8o+OTcb6nXXXYfevXvj1FNPxZYtW/RWIiIiIqJwrCxSrsu5ZHHXXXdVXydMmIDf/va3apmIiIiIKBLHLFKuy7lk0SJjFomIiIiIomFlkbLRm7cWoJfnD3j1C73BRa/X3ljjOGYx2pikVOqOMYtEFJKOMYuxfqc5JobxbhjPeDeMZ7yb7oifO3cuxyxSl1j/xDk4quwxfKLXTePw6EdP4uz99GqcJFn84YMXYPmrv8exe+iNUSRRWXwFd44/A+Nd2wx9LBERERFRzzRl9ja9RJQJJDncru4nL+2N6pU4Z/8z8NjHenecjrmuDdv9sRNFkWQ31GNxSc1fUOPYLsOP9VFERERERD3VjIt200tEmeeYX96Gs/d9G2+/E0d/0iQlmSzujj79D0F/x9YHvfVRREREREQ9FSuL1COtfwLn9Oml5miR5vnDq7Cnk2rM4hmPIVSQXI8nzukTPF7aGbpcmbMT3BARERERuWFlkTKXkeBdfRlWTpkDr70/6Zu3ouCQMnw98yPdXfUNXPDgcTg2ImG0e/PW4Sj7eiY+0t1bt79RjX56XxLJ4lE4t6YQz42/Fc+u34SteivwJTatX4Rp4+cBE07Q24iIiIiIeiZWFimzLMA5+1vVv0NQtnIK5niPRShVNBLI26Zj7bhHMSs4680xuO7xanx9061Y6Di28U0svn8txp19CoLz5BxzHe7S8Ukki7ujb//jcYZ3AF6qvBLea67GNapdBW/lU/jypFMwZtzx+tiuN3bs2KQaEREREZEdK4uUWcInuHnv5hb8fE8P/mDdA2P9y3i86ZPwxE8cUIgfRx3beAxGXzIIC845KXQemyS7ofZBwXHn4aZ59+CPUy7HBWXjUVZ2NW6fdzdumlyCAn1Ud3niyScTakREREREkVhZpEzW/8xHsbT6a9x060Lb+EMYid/+YeMPex1ShsfC77kRRmZHfUPOc9ye6nhrvKJI8j6Lm9G2/D3jCvsb/++b9IQ26bjPolQJE00AzzzjDCxcuFCvpUIA9WUlmP6W+dL2OnIqGueXIw/NqPLUoqBxPsrz1K5OiHYu2V6BBdtD39ZxM1tQXaxXiGzScZ/Fgvz99Zoz3seL8W4Yz3g3jGe8m+6InzNnDu+zSF3CvM/i15gZcV9Ftf2GIjwr90zc8gTOOeoGFD37Kn7vcl8MdZ/FV/+Ej548O7wCabDu53jQTcvx6u+PTaayuBJzr/kTZs2vw58q/4yG5WuM1HENFtc2ok0fkck2btyoksPaO2v1lhQL1KPMU4K2yX60tLSo5vcBy5r1/i7hwdRF5mO3LJqK1ooqI4UkIiIiokR4H/5OLxFlpo2tr+GTI47AQMkN+5+As0Z9iMca/VEns4nFrFYOQsuKdjU3TRLJ4lZsCgzAWdPuxgPzxuJjXyPWSrr4whq4VDczxrzH5qmv488er76mVgD1Xh8K6/zhlby8cpR3V2UvLx+FaEV7QK8TERERUVx85+2ol4gyj1QBT6naBTddN1ZXCPvjzGun4uubjsMF9jv1y600fmm/VYbdm7j11/Z95oQ3RcPyVe/RJJLF3uib1xtfhs2E2jNIVfG555bh5JNH4IADDtBbUyiwDI3+UoyKlRiq6qMHRUVFKKu3ZXG27R6PvRoo3VrN7dKqOpQJpeupB56OO4xdTWgonRzqqmp7jNC5zPMHr6W5Cp6yemMrERERUe5iZZEyi3021F44RHVL9Yd3OT3mOrS9UY2V9nGLh9yAoiushNLBs+dgf+vYXj/EgxeYXVDlrElOcPMGZquZUB8wlp7H9PEPYNNJg7Gv3pup0ltV1DwFcB+O6IevFvD5/WiZOQ5+3yydFBoJX0kjShrN7qv+OqBWJW/m+MdGY5/VrTV8/KHsrwDq/PAHd/gxfYyZDHpkV3C7PIZZ+Qx1US1DfSAP5fPrUKiuxThGYtQYSyIiIqLcxcoiZQrpHrpZz4IaauHjF4MkYQw7LjyhlAlttgfHKx6D69rsx26HXyeKIolksQA/n3I9bqm5FVXq619QU/MnXJsBs6BGuu3/blPjE6WimPaqosXfFqMi54HXpxOx4lEotbqIBtqNpVCSVzRpgXEqY4euVk6OMiNOo9dMJMMTyNCYRX9jAWo9khAam9Vj2CqfeeWYXOqHPIxxMag2EtRJRZMkuzTWiIiIiHIbK4uU65JIFuU+i4egf1hrw33jZ+BVfUSmuLj8YvVVKopdUlXMG4ESTwOaHHqDxqcUM3X1UCV64RmgA7/RPGZSGY26JishJCIiIqJ4sbJIuS6JZFFmPr0Bvx5/BsYH2214UXVHleXMSRqlgiiVRKkodklVEXkon1yKBZMixhUG6lEfK4FUE9E06K6nNjoB7bBd8aDENx91qAgf+2inKpMeFEhhUj9GMJk1rqu2wao0mt1PZ7bMBDh7KhEREREri5TzkrjP4iu4c/wyFNZcgNDd11bh4cp/YZja1ht94rz3YlfcZ1G6n066/HK1PPPuux2TxZTfZ1EmkSnx4a3tse6zGLEeGTdupq4uynGheyea9020x5rjGn3wGo+Tj1m2Y3v1OhJe+70YbY8R2hcaFznfODBQX4aSRmOd4xazXjrusxjrd5r38WK8G8Yz3g3jGe+mO+Lnzp3L+yxSVksiWZTK4hoUhI1RdNoWW/belJ+oZ2Cy2BHjGe+G8Yx3w/jsi58yextmXLSbWnaKZ7JI2S6JbqiDMVolhV9i0/r3sF7dQsPaRkRERESUHaxEkShXJVFZlCTxedxfeS9e01uAY3FJzUScFGf3U0u6KovJYGWRchErix0xnvFuGM94N4zPvnhWFinXJTlmcR4wYTzOGAc8qcYvHo0Vla04ed4UI22MXzqSRSKKH5PFjhjPeDeMZ7wbxudePJNFynZJ3pR/AE4Ydzz6q+Xd0ad/n4QqikREREREmU4qi0S5LMlk0e5jtC1vwya9RkRERESUDThmkXJdEsliHww+aTD2DS4fiu3rC3BZgl1QiYiIiIgyGSuLlOuSGLOYOhyzSNS90jFmsSB/f73mjGNiGO+G8Yx3w3jGu+mO+Dlz5nDMImW1JCqLMsHNGRjfoc3Aq/oIIiIiIqKezvvwd3qJKDclkSwehXNr/oKaYLsWE04ajdIJJ4A1QiIiIiLKFr7zdtRLRLkpiWRxd/Ttfwj6B9vxGDd5GDY98jLe10d0p8HzPk6qERERERHZsbJIuS4Fs6Fu5myoRERERJR1WFmkXJeCMYuXosr3BvpmWDfU1aV7OTZRN+Sb4PqdR32rtqVWAPVlHhQVFanmKas3tqRSM6o8ZahP+KQSF7ouaVXNehcRERERhWFlkXJdCsYs3os5827HFcGb9Ge+itU747m1m1W7YtVOemuKBOpR5ilB22Q/WlpaVPP7gGUZk5R5MHWReV0ti6aitaLKSCGJiIiIKBIri5TrOjFmsQ968m1KJUlMeaIoFUWvD4V1flQX600irxzl9vVMkZePQrSiPbVlTyIiIqKswMoi5bok7rMoYxQX4SHfYnyUdwD2wBf4KHAYzqmZiJP690VvfVQ80nGfxWQnq1kzfj+91AlSVSxpw2R/NaLmhuoYH97abr7s42a26MRSuojWoqCuBI0V5n7ZN7G9DGOmv6WOPXLqIswvz3M8NrTPEOsxGufDPE0VPE2j4LcyW8c46VJrPE5Jo3l+iaktQOP8cuhHox4sHfdZjPU7zft4Md4N4xnvhvGMd9Md8XPnzuV9FimrJVFZXINFvrdxuPdG3DztdkybVo3feQfgpcqHEPtjZ/pJ0ift8L9eFDZW0a3JsSnjKXBJooxkzUjGpPIY6gZqH3voh68W8PmN/TPHYcGkInjhM4811v2+WbYuo7ZjjfPA59Xnif0Y08fosZQVQF2wBBotLg/l8+tQqB7bOEZimCgSERFRDpgye5teIspNSc6Guh8KjhuMPmq5j7FcgL5qOTOdecYZwZZ2/rbok9kE2tGKUoyy8rO8ckwu9aMtGOCB16cTseJRGNfrSJSM0GmZsV4a1mXUdqz9PHE8hjVm0d9YgFprohzXuGJU1wGTiiZJdhm9akpERESURWZc1JMHXRF1XhLJYn8cP+EQvLfgFaxX6+9h+YL3cEgG35T/iSefDLa0yhuBEk8Dmrp8xpgA2lv1YiLU9doTSSIiIiKysLJIuS7OZNF+u4zfwPfIw3jkkdtQGbaeGTfld2KvLNpb6uWhfHKp6j4adkuKQD3qZV1NKGNLJo3ttQ22al5C/GhcprO8wDI0+vV5EnkMFedBgZQnXePM7qczW2YCnD2ViIiIcgQri5Tr4kwWI2+X4dTOR/g0GJnDXlm0t7Qortbj/Wz3WfQCI1TSVYzqRm9wn6ekESWNyXbr9KCwzWs+xpjpKAx2D431GLYxi2qfnuwmapxMcFOBVu9EY7kYE72tqEj5fSOJiIiIMg8ri5TrkpgNNXXSMRuqZezYscGE0F5FdEoSZf/ChQv1GlHu4GyoHTGe8W4Yz3g3jM+9eM6GStkuiTGLcuuMJ3DnNZfj4mDXVGkz8Ko+ItOkvZpIRERERFmHlUXKdUlUFmX84kLs5z0Lx/bvY7uvYm/0yYD7LFqkspgIVhYpF6WjsliQv79ec8a/XDPeDeMZ74bxjHfTHfFz5sxhZZGyWidunTEUBf0PQf9gSyxRTDdJ/hJpRERERER23oe/00tEuSmJZLEPBp/UF5uXr8FmvYWIiIiIKNv4zttRLxHlpqTGLK554Unc77sWl/eQMYtERERERIliZZFyXRLJYrTbaGTurTOIiIiIiBLFyiLluiSSxd3RV41R7APzNqUysU3mjVkkIiIiIuoMVhYp1yWRLH6JTesXYdr48zGp8jeorLwMF46/Fc+u34St+ggiIiIiop6OlUXKdUkki6swt3IJek+4FjXzrsWJOBaX1ByNFZUPIfYk/EREREREPQMri5TrkrzP4ss4Yd4UI020lk/Ay8Ft8UvnfRaF/V6LcnuMWOtEuSYd91mM9TvN+3gx3g3jGe+G8Yx30x3xc+fO5X0WKaslUVmM9DHalrdhk14jIiIiIsoGU2Zv00tEuSmJZFHuszgY+waXD8X29QW4LMGqYnZqRpXHg6KiomArqw/ofSkUqEeZ7XE8ZfVwfBR1XBmcL0GuNdo+IiIiIppxkTmdI1GuSiJZHIzRk0tQEFyeiHPHHY/+aj2zSNdSq8WznhoeTF3UgpYWaTNR6CuBp6pZ74smgcRNEsCSRpQ0+vVjtKCusM05Wcwrx3z/fJTn6XUiIiIiihsri5TrkkgWZZyi/Wb8Tm2GPrbr+T/5Fpf/4zMMnvcxJizboposy7ZX3/tUHWONVZSvVkuPYlQ3euFpaDLSwVQIoN7rQ2FdeAJYXF1tPBIRERERpRIri5TrkkgWo92U397O18d2vQuaP8XJB+2I1aV7YfZPd1dNlmXb5a9+q4/qQnkjUOJpQJPOFpurbN1HVcVRqooVWLD9LUwfY21zOs4QWIZGfylGRc0MzQplVVUZPJ4qYy2iYmnrvlpW3643EhEREZETVhYp1yWRLFo35XdrffWxXe+zbxwnd1Xc9nWV4mqr++hMlDbUGolcMar9dRjX60jVfdVfbWaCHY9TmwFPAayiYqC+zEwmw7qw+tFa4IPfH1ltNBLHEqlKmuf1oRENeg8RERERdcTKIuW6rOuGKq5/YyuGNHyGi/7xpWqyLNss6R2z6MSDAivDa67SFcNJ7slatOP8ofGJeeXzzWRSr5s8KBnhMEgx0I5WjxcTdQaZVz45Io6IiIiI7FhZpFyXxH0Wv8Sm9Zvh/qvTO67qYjrusyjjE92sGb+fGqMoCaJ9rGJqEkbp9lmLgkbbmEI1IU0bJkulz74s4w/LvIBPjo2Ii/c4xb4tcr9tHcY51WnKdWXS6VyUa9Jxn8WC/P31mjPex4vxbhjPeDeMZ7yb7oifM2cO77NIWa0T3VD7wCzM90afDOqGmlmMhEx1/dRdQgNt8FvdSNX4Q1lwEPW4YkyUhK9ExiMmKC8fhX4fZlnDH+tr2Q2ViIiIyIX34e/0ElFuSiJZlMriIkwbfz4mVf4GlZWX4cLxt+LZ9ZsQ6uiZy/xqohpzLKFU7vzQwxCNXG8ivPBhjOzztqHQo7cbSeCoUjNOTWYT9Tiz66m/Dpikuqia3VRbvb44qoPFqK4rxYJJZpwXJeyGSkREROTCd96OeokoNyXRDVXGLM4DJozHGeOAJ8cvQ2HN0VhR2YqTE7wxf3d1QyUiE7uhdsR4xrthPOPdMD774qWyaCWMTvHshkrZLonKohiAE4I34t8dffr3QW+13P322rmXXurIbR8RERERkR0ri5TrkkwW7T5G2/I2bNJr3e3B4r1xysG76LUQ2Sb7iIiIiIjiwTGLlOuSSBb7YPBJg7FvcPlQbF9fgMsS7IKaLp59d8LdP91LdTe1N9km+4iIiIiI4sHKIuW6JJLFwRg9uQQFweWJODfYJZWIiIiIKDuwski5LskJbm7Di3otZDimZsAEN0QUv3RMcBPrd5oTKDDeDeMZ74bxjHfTHfFz587lBDeU1ZKoLB6Fc2v+gppguxYTThqN0gkngGkfEREREWWLKbO36SWi3JREsmjdlN9qx2Pc5GHY9MjLeF8fQURERETU0824aDe9RJSbUjAb6uaMmg2ViIiIiCgVWFmkXJdEsihjFs/A+GC7FFW+N9CX3VCJiIiIKIuwski5LgVjFu/FnHm34wrOiEpEREREWYSVRcp1O8ishk4tusgxi33RW+/JJGPHjg22eNaJiIiIiOxYWaRcl4Ixi9RBoB5lHg+KiopU85TVI6B3hVHHlaHecWczqqLuIyIiIqJ0Y2WRusJX32zHP9/+Kqy9vvZrvbd79dq8+TPH+yx2hXTeZ9FeMVy4cGHM9ZSRBLCkESWN81GeZ25qrqoCqqtRbK7GSZLFWhTYzkOUaum4z2JB/v56zRnv48V4N4xnvBvGM95Nd8TPmTOH91mkTtv03+/x+0c/xY8H7aLWtxnJ47qN3+LWC/ZR690payuLkgBaLZ711Aig3utDYV14gleccKJIRERERN3N+/B3eokofb786nscsPeOuGjEHqqd+qPd0HvXzEjTsjZZtMYjWhXEWOspEViGRn8pRkXNDM2upVVVZfB4qoy1iK6mtu6rZfXteiMRERERdQffeTvqJaLcxDGLqeYpgFVUDNSXmWMWw8Ye+tFa4IPfH1ltNBLHEqlK+tHS0gIfGtGg9xARERFR12NlkbrC7rvugE8+/y44XtH/3jf479bvw8Ywdldjsphq/rbgZDZ55fONxG8mSvW6yYOSEQ6DEAPtaPV4MVFnkHnlkyPiiIiIiKgrsbJIXWHXnXthWN4uaH3/W9Xe3fg9tn61PbjenY1jFvV6SuTloxCtaOcMpkREREQ9HiuL1BX23K1XcLyitNE/3BUH7LMjPl11Hw75/qVubRyzqNdToxgTvYCvRMYjJkgSTb8Ps3RgoL6W3VCJiIiIuhEri9Sdhg4divz8/G5t7IaaYtL11F8HTNL3WCwqmoRWry+O218Uo7quFAsmmXFelLAbKhEREVE3YmWRch3vs2hIaVdUoh4kHfdZjPU7zft4Md4N4xnvhvGMd9Md8XPnzuV9Finl/vPxt3hg2Zc4cf/Xcdhhh+mt3YNjFvU6EREREZHdlNnb9BJRbmI3VCIiIiIiBzMu2k0vEeUmJotERERERA5YWaRcx2SRiIiIiMgBK4uU65gsEhERERE5YGWRch2TRSIiIiIiB6wsUq5jskhERERE5ICVRcp1WXufRSKKLR33WSzI31+vOeN9vBjvhvGMd8N4xrvpjvg5c+bwPouUcrzPIhERERFRhvM+/J1eIspNWVdZHDt2rF5KDG/OT7mIlcWOGM94N4xnvBvG5148K4uUDqwsptkTTz6ZUCMiIiIiisTKIuW6nOyGum3j2/j3vT9TX1OrGVWeKuO/RERERNTT+c7bUS8R5aacTBbXPXUFvv5svfpKREREROSElUXKdTmZLB52+p3YZa/+6isRERERkRNWFinXZXWy+Ne1X6Ph3Y6DlXc74Agcftnf1df0kS6pZahvrkeZx4OioiJUNQOB+jK1LK2sPqCPNY6uMo+R5pEDLYFQfFl9vXlOK8y2z8Pur0REREQpxcoi5bqsnA1VJq2pemMbnn73a7Xtlh/2RumA6DNgnXnGGSmaDVUSxCaM8lejWC1XoMHjReP8cuQ1V6Fo0gIcOXUR5pfnSXYIYzfq1LF2EleLgsb5KM8zz2EchGrjIEk0S3zGG1dwn3WchFWhrH2ieW6iOKVjNtRYv9OcbY/xbhjPeDeMZ7yb7oifO3cuZ0OllONsqGlmTxTF9W9sdawwpp8HXp+RKMpi8SiM63UkSkboZM5YL0Wr8eHaXJVkz6wsTkKD3oRAO1qNZHOizibzyicbMZrsgx/Tx5jVSElE/W2hSiURERERdc6U2dv0ElFuyqpk8dNvtmPjib8KSxQtkQmjLN/19ld6rZtJd9IKYGZLC1paFsHr0dtjKtUxZvNL+ZGIiIiIUmLGRbvpJaLclFXJ4t4798InA3+i1zqyEkZpsjzTSBalCtntAm3wewrMCmRgGRr9aiuQl49Cvw+z9GDEQH1tqOoo+4y1Wtu4RyIiIiJKHVYWKdfl3GyokiRKs0gVUqqRGzdu1Fu6QfFEeOHDGJmoxtuGwmBlsRjVdaVYMMnsaupFSagbquxr9AK+Et19NWJiHCIiIiLqFFYWKddl3QQ3g+d9rJcSs2b8fnopg0l31ZI2TO4wKQ5RcjjBTUeMZ7wbxjPeDeOzL14qi1bC6BTPCW4oHTjBDSWleZYv1F2ViIiIiNKKlUXKdVmXLEqFMJmWmQKoLwvdf7GioRR1chsOvZeIiIiI0scas7h9+3bssssuYc2ydevWsPbll1/iu+94f0bKDlnXDZWI4peObqgF+fvrNWfs5sR4N4xnvBvGM95NOuJ33HFHrFu3Dvfeey9WrVqlt0Ldn1sSyDlz5uCiiy5S9/m25Ofn48orr8QRRxyh4okSlf5uqJvxwvVjcfEjG/S69pP/w4sPnQV7dsZuqEREREREDj75Avjzn/8clijG0t7ermK++ipDbtFGGe/zbdsxe9kXwfa3V7fiv1u7oJ4nyeHatVir2hL8/ovf4sTzH8f7erdgskhERERE5GC/vXZUyZ8499xz8dhjj6mqoqVXr17qq2yTJscIiZF9X3/9NRtbzPb5l19jReBrFB68k2qD+u2Er77+Xv0sdZ2BGFs5AQe+twb/+VRvMrAbKlEOYzfUjhjPeDeMZ7wbxmdfvIxNtLqYSiJ4+umnY4899lDr0g31r3/9Ky688EK1/sUXX+Cpp55SM6QKSR7b2trUMpGbjz7fCc8HDsIfJuyr1qUbas3fPscv8t5MbzfUQGVYt9PNL1yPsTfujpqnqnD83uY2JotEOYzJYkeMZ7wbxjPeDeOzL17GHFZWVgarixa3MYtCxi3OmDEDu+++u95CFJ01RvHG8XsF17s8Wdz8Aq4feyN2r3kKVVamaGA3VCIiIiIiB4++9L2arOaoo47SW2KzJrjZdddd9RYid7vvugM2fvpdcMziwte34dvvuqCe99JvceKgQRgk7diL8Y+xt+HXtkRREkgmi0REREREDs46bjsGDBiAW265JTguUVok+z6pKHImVErEnrv1wrkn7h4cs3honx2MBNIcD5tWYRPcvIo/flmJHxZX4xU9ZnHz6qbcSBaXLl2qugdIk2UiIiIioli8D3+H77//Xt03Ubqd2puld+/eYU26njJRpETsunMv/M8RuwbbsIG7qGpj1+qDk255GL/f937c2RSaDzUnxizKX4NefvlltXzCCSfg+uuvV8tEuS4dYxZj/U5zTAzj3TCe8W4Yz3g33REvk9lMmjRJrxGlRpfdZzFightr+4271+CpquPx3QvXZ39lUWamshJFIcuyLT2aUeUpQ31Ar8aU6PEimRgiIiIiStSU2dv0ElEu+BSBtzbgkMGHQkYu9hkyKvuTRXuiaHHaRkRERERkN+Oi3fQSUbaTquJ5+MMnl+CKUbrW2Oek7E8WX3rpJfVVup9KE9Y2IiIiIqJoWFmkrGafDXXQsWa31ObQPRZFVieL9i6oP/nJT1QT6e2K6qy5yoOioiLVPFXNeqsWqEeZx9xfZu9fatvu8VQhIoqIiIiI0oiVRcpOMpnNP/UsqLYWNn7RlNXJor27qb2yKLq6K2pxtR8tLS1Gm4nShlrbmEM/fLWAz2/sXzTVWPDqfc2oKmlESaMZ568DajlQkYiIiKjLsLJIuS6rk0V7F9Q99thDtW7ritpcpSuLk9CgN5k88PrKkSeLeeWYXOpHm+SEgXa0Gonk9DFmNbJo0gL41Q4iIiIi6gqsLFKuy9pkMbILqqVbuqJKd9IKYKaqLC6C16O3dxBAe6teVEp1jNn81cV6OxERERGlGyuLlOuy9j6LcvP9mpoaveassrISp5xyil5LBbmtRS0KGuejXJUKteYqeGoL0Di/HHmSOKrupXKMHF+BVm8j5kuA2teGyf5qFKtz2fYFRXkMoiSk4z6LBfn76zVnvI8X490wnvFuGM94N90RP2fOHN5nkVIu/fdZjF/WVhbj6Waanq6otq6j1oQ1xRPhhQ9jZKIabxsKwyqLHhS2ec3jx0xHYZ0kiqIY1Y1ewFcSPFeHiXGIiIiIKG28D3+nl4hyU1ZWFqV76dlnn62Wr7/++rCJbYR0Qb3lllvU8mOPPabGMhLlIlYWO2I8490wnvFuGJ978awsUjqwsphm1lhF+4Q2dtaEN6KrZ0UlIiIiop6BlUXKdVmZLFrdS+0T20Sy9nX5rKhERERE1CP4zttRLxHlpqxMFqXr6cKFC3HllVfqLR3JPjlGjiUiIiIiisTKIuW6rJ3ghoiIiIioM1hZpFzHZJGIiIiIyAEri5TrsvY+i0QUWzpmQ431O83Z9hjvhvGMd8N4xrvpjvi5c+dyNlRKOc6GSkRERESU4abM3qaXiHITk0UiIiIiIgczLtpNLxHlJiaLREREREQOWFmkXJd1YxbHjh2rlxIjt9EgyjUcs9gR4xnvhvGMd8P43IvnmEVKB45ZTLMnnnzStf37l7M7NCIiIiIiO1YWKdflbDfUg3ffAU0j91RfU6cZVZ4y1Af0qiVQjzKn7VHJeTwoKioKtqpmvYuIiIiIugTHLFKuy9pk8cwzzghrkWqP7Y2D99xBfU27vHLM989HeZ5e78ApyfRg6qIWtLQYbdFUtFZUGUcRERERUVdhZZFyXVaOWZSupm6GNHyml0LWjN9PL3WGJH21KGh0SwydRMbFWidKjXSMWSzI31+vOeOYGMa7YTzj3TCe8W66I37OnDkcs0gpxzGLXSCysmg1sbp0rw4tveyVwwDqy0JdTKuaZV8FFmx/C9PHFMHj1N+0uQkNpZNDiaLq1mo/h9qozltmlSebq+Apqze2EhEREVEyvA9/p5eIclPWJouRk9pYTURLIrtE8yz4CuvM7qVGqy4uRrW/DuN6Ham6nfqri/WBfpU8SjJo5JKoC243kssSHwrr/LYuqpKI5qF8fh0KfbOMI4xjJGZ+OViIJCIiIkqO77wd9RJRbsrJMYvRksgukVcAT0NFqAIYVWjMor+xALVWZTLQjlaUYpSVO+aVY3KpH23qdEbiWQdMKpok2aWxRkRERETJYmWRulNbWxs2bdrUrS1nKot2MmYxsnUZNdmNHz54bV1IY8gbgRKPlRASERERUVdgZZG6wieff4/rHtwSbHc1fo6Nn36H9t3OwpNvD+7WlrUT3Dh1LbWSRkkOnz7he+QftA/aPvwMpS+ne4Ib5+2B+jIjZfRhfnkgYn/E8TJGsaQRJWpd9kkfUz9Uz1S1rw2T/VJJlH1NGOUfhSb1ldVFcscJbjpiPOPdMJ7xbhifffFSWbQSRqd4TnBDqbDpv9/jtgWf4dpx5jwqm43k8f6/f46per075dSYRbvLV+6ED7dsQ8XKVL8EobGG0jp0N22uCu4r8RVissoGizGq1IwLTXBjG7MYTBRlezGqG71orTAnuDH3SVIoE9xUoNU70VguxkRvKyo4wQ0RERFR0lhZpK7w5VffY8/ddkDfH5htt52B3W3r3dl46wwtNZVFop6FlcWOGM94N4xnvBvGZ188K4vUFaxbZdw43qwkRq53p6xMFpOxcOFCvUSUO9KRLMb6neaHEca7YTzj3TCe8W66I37u3LlMFqnTpBtq1cNb0GcPs8fjd0Z2tmMv4NYL9lHr3SnrkkUiih+TxY4Yz3g3jGe8G8ZnX/yU2dsw46Ld1LJTPJNFSoXvvwc++cL4j80ORrK4757dP2Iwa8csEhERERF1hpUoEqXTDkZGFjlWMBMSRcFkkYiIiIjIgVQWiXIZk0UiIiIiIgesLFKuY7JIREREROSAlUXKdUwWiYiIiIgcsLJIuY7JIhERERGRA1YWKdfx1hlEOYw35e+I8Yx3w3jGu2F87sXzpvyU7VhZJCIiIiJy4H34O71ElJuyOlncuHEj/vznP+Pss8/G2LFjVZNl2Sb7iIiIiIii8Z23o14iyk1Zmyy2t7fjiiuuwJIlS/DFF1/orVDLsk32yTGp1YwqjwdFRUXBVtWsd8VNzlGG+oCxGKhHmbXsKhWPS0RERER2rCxSrsvKZFGqhtddd51KDI877njMvPtuPPHkk6rJsmyTfXJM6iuMHkxd1IKWFqPNHIeGiiojlUtSXjnm++ejPE+vu7I97qKpaI3rcW2JqRK5TkRERJS7WFmkXJeVyeLcuXODieK1v70WBxxwgN4DtSzbrIRRjk2b4lEoRSvauzr5ystHYXc8LhEREVEWYWWRcl1WJosvvfSS+npx+cXqa+Cdd3Db/92mmiwLa591bFo0N6HBU4IRujLYXBXqKuqx9xNV3U3NfWX19q6xEZU+23GuXU3lcUsn64pktOqhfK3Agu1vYfoYuZ6qiHV98qiPqc9TXxXcV8aSJBEREWURVhYp12VlsigVQ2FVFB97bB6WL39FNVkW1j7r2NTxq2RLkidP0yj455fD6kVaXO03u4m2zERpQ61O4Iykq8SHwjpznw+NaFBHRwo/zuxqak8CbY9bAdRVF+vt0RSj2l+Hcb2OVN1X/dXVEesSH/sxfW2jzH0zx8Hvm2VEEBEREWUHVhYp12XtBDfdR48dNBIrT0NTePLUbFXhJoUSwkA7Wj1eTNS5XV75ZJSai+HkOGPPKCsHzCvH5FI/2oKJW2jMor+xALWpGHsYx2N6rQvvri63lHHkPlRuTe5j5dacYuzNKcbenGLszSnG3pxi7M0pxt6cYuzNKcbenGLszSnG3pxi7M0pxt6cYuzNKcbenGLszSnG3pxi7M0pxt6cYuzNKcbenGLszSnG3pxi7M0pxt6cYuzNKcbenGLszSnG3pxi7M0pxt6cYuzNKcbenGLszSnG3pxi7M0pxt6cYuzNKcbenGLszSnG3pxi7M0pxt6cYuzNKcbenGLszSnG3pxi7M0pxt6cYuzNKcbenGLszSnG3pxiZly0W3DZKYYo22VlsrjHHnuor9bkNWefPV6NUZQmy8LaZx2bckZi5fO2otbK2KQ7ZwUwU6pwLYvg9Zib0yJvBEo89qSOiIiIiBI1ZfY2vUSUm7IyWfzJT36ivj5Q/4D6mjdwoJrURposC2ufdWw6SJWw0Oc1K3yBNvg9BWaX1MAyNPplwSCT0fh9mBUcIljr3A1VTVrTgCarVGkkn7UNtqqfnTq/BwXqwfJQYE8cZTyjXowpkcckIiIiyjJSWSTKZVmZLJ577rmqYihjFGVSG/vtMWRZtsk+OUaOTZ9iTPQCPm89AsUT4YUPY2RMobcNhcHKYjGq60qxYJI53tCLEuduqHJcoxetFeZkM56SRpQ0VhtbLbYxi2qfdcuNPJRPDp3f0wTb+YsxqtSMMye06bju/phERERE2YuVRcp1vTZv/my7Xu5y7YENKDr8YL2WWnLDfetei04kUbz11luRn5+vtxDlntffWK2XovvRD4foJVPLv99Hft6Bei1cPL/TscZ4yLgQN4xnvBvGM94N4xnvJpl4uQXbpEmT9BpR9snaCW4kCbzzzjsxcuTIsHGJsizbZB8TRSIiIiKKhpVFynVZPRuq3B7jyiuvxGOPPYaFCxeqJsuyzX6jfiIiIiKiSByzSLkuq5NFIiIiIqJksbJIuS5rxywSUWzpGLNYkL+/XnPGMTGMd8N4xrthPOPddEf8nDlzOGaRshori0REREREDrwPf6eXiHITk0UiIiIiIge+83bUS0S5ickiEREREZEDVhYp1zFZJCIiIiJywMoi5Tomi0REREREDlhZpFzHZJGIiIiIyAEri5Trsu7WGWPHjtVLiZEb9hPlGt46oyPGM94N4xnvhvHZFy+VRSthdIrnrTMo22VlsvjEk0/qtficecYZKUoWm1HlqcCC7aGXdNzMFlQX65WMItdai4LG+SjP05so56QjWYz1O80PI4x3w3jGu2E84910R/zcuXOZLFJWYzfUlPNg6qIWtLQYbeY4NFRUGWlZMiSZK0N9QK8SERERUZeaMnubXiLKTUwW06l4FErRinYmfEREREQ9zoyLdtNLRLmJyWI6NTehwVOCEVY3z0A9yjweFBUVweOxVxwDqC8zt0urara6s76F6WOMY6vMI5urQsdY24IVyPqq4L4yeznS9phl9fXRq5VRr42IiIgoN7GySLmOyWLK+VWCp5KuplHwzy+HmSsaSV1JI0oa/aqLqr8OqFVZmySKJWg09qmuq0arLi5GtXHAuF5Hqi6tfj3osbjajG1pmYnShlpb0ueHr22UuW/mOPh9s3SyJ4/pQ2GdGedDIxrU9kjRro2IiIgod7GySLmOyWLK6TGLi6bC09AUqtAF2tFqSySLJi2Av81IyALL0OgvxeR4ZplptqqHkyKSPg+8E/UsOvaur/KYHi+sXXnlk419DqJdGxEREVEOY2WRch2TxXTJK4fP2xpRoSvFTFUZNJtVMYyLdBOtgI5fBK9Hb0+ZTlwbERERURZiZZFyHZPFNJJKXqHPa3YXzctHIRo6du/MG4ESj8P2SIE2+D0FZpdWVY1UW93JY/p9mKXLm4H6WuduqNGujYiIiCiHsbJIuY73WTSk9j6L4fcuDNSXoaSxBI0ydlGqgyU+vKXvw9hr3ExdwZO40P0ZrXszyoQ2kxZs18flqbGN098y1o8cp7qaFvjkcSIfM2Jduq5OWiA7cOTUqUby2qj3RRwX9doom/Gm/B0xnvFuGM94N4zPvXjelJ+yHZNFQ+qSxQynEsI2TPZXg2kgCSaLHTGe8W4Yz3g3jM++eO/D38F33o5q2SmeySJlu6xMFpORC8miVCorWr1mlVNvo9zGZLEjxjPeDeMZ74bxuRfPZJGyXdYli2Rn3pZDuq6KXr3GoY5VRbJhstgR4xnvhvGMd8P47ItnZZFyHSe4yWp5KJ9v3ZuxBX4mikRERERxsxJFolzFZJGIiIiIyIFUFolyGZNFIiIiIiIHrCxSrmOySERERETkgJVFynWc4IYoh6VjgptYv9OcQIHxbhjPeDeMZ7yb7oifO3cuJ7ihrMbKIhERERGRgymzt+klotzEZJGIiIiIyMGMi3bTS0S5iTfl13LhpvxEkdgNtSPGM94N4xnvhvHZFy+VRSthdIpnN1TKdllZWXziyScTakREREREkVhZpFyX1d1QzzzjDNeWFs1VKCoqUs3jqUKz3tw5zajylKE+oFeDZLvH9nhOx6RCtMcnIiIiyl4cs0i5LuvHLDpVEqWlRaAeZRXAzJYWtBjN31iAdpUtpjPZ8mDqIvPxGr2Az1sP5nREREREncfKIuW6rE8WnSqK0tIi0Aa/pwB5ehV55Sgv1stdIK98Mkr9jVjGbJGIiIio01hZpFyXlRPcWJVDSQqjVRHt+2Q5NRPcSAWxAq3eRswvt1JGc9uC7ebL3GvcTPiri9Fc5cGkBeHbTAHUl5Vg+lvmvnEzW1BdLOeoRUHjfJTnmedrKK0zYmDbLkfbjzPWHB9DH+MtxPTpC9S+I6cuCl2vVEdLfHjLuN5evcahzngQ42ojHoeyRTomuCnI31+vOeMECox3w3jGu2E84910R/ycOXM4wQ1lNVYWU6oY1f5GlDSWqDGEVaoLqmyrw7heR6ruolZSWFztV11HW1pmorShVndRNRPFxpJGvU8SRXW4JvsrYGRwtuQyJFBfiwZPCUbohM75MYQfvrZR5r6Z4+D3zTLSQWEkhcZjlzSaccZlo5YDFYmIiChHNK38Ht6Hv3NsUmW0t0VvuieXRNmAlUW9nPJbZ+gKXaGR2IVXBvV+mQhnklnZ62Ukkl7ZB4lpw2RVzbMz41s9fhiZXPSqZbASqDk9hqpMRqlGqsc3q4oWsyIZWcGkbMHKYkeMZ7wbxjPeDeNzL/6hhx7Cd999p9eIsk/WJ4tu0posGgL1ZShpm9wx2VKJpJUUSrVQZqaxkrVoyWKFkSx64C+U81l7IxM/m2iPETNZjJ6sMlnMPkwWO2I8490wnvFuGM94N4xnvJtMjc/abqhW5dCtxUomE9Zcb+vqGcCyRj88BQ7ZlX0inMAyGIeZ8kagxNMQpeunByVGsleHCpTF0zU02mO4yctHIaI9PhERERER5RLeZzGVivPRVmLd93AMfIV1ustoMUaV+jF9TBE8MpCxeCK88GGM3BvR24ZCjxluZGson1+HQp855jE07jGkuNocE+kpi3GLjKiP4aYY1Y1SgQw9vrpeIiIiIiLKOVnbDVWSQfnqxjpGvqajGypRpmM31I4Yz3g3jGe8G8Yz3g3jGe8mU+OztrIYK1EU8RxDRERERESUi7KyspgMVhYpF6Wjshjrd5p/uWO8G8Yz3g3jGe+G8Yx3w/jk4rMuWSSi+DFZ7IjxjHfDeMa7YTzj3TCe8W4yNT7rb8pPREREREREiWOySERERERERB0wWSQiIiIiIqIOmCwSERERERFRB0wWiYiIiIiIqAMmi0RERERERNQBb51BlMPSceuMgvz99ZozTk3NeDeMZ7wbxjPeDeMZ74bxycWzskhEREREREQdMFlMoeYqD4qKijq0svqAPsKuGVWeMjjuCgqgvix0Tk9ZvbGlu8RzvURERERElC2YLKZQcbUfLS0tRpuJcb2OxNRFstyC+eV5+ogEBOpR5ilB22TrnC3w+4BlzXp/UpjwERERERFRfJgsZqQA6r0+FNb5UV2sN4m8cpTb14mIiIiIiNIk65LFsWPHRm3dxd491VMVURpUFURzf7C7amAZGv2lGOWWGNripIVOq6uH9VXBfeZ5ZXsFFmx/C9PHWNdhHltVVQaPp8pYM0Q9LxERERER5ZKsrCz++5ezOzTRXQmkvXtqaUOtrRuoH75awOc39i+aaix4Q/s8BYjeedVI8krMyqM6rxHbWmHvXmqct22UuW/mOPh9s4yIYlT764LdY/3BkqUfrQU++P3VxhGxzktERERERLki57qhPvHkk8HWZZqtKt8kNOhNJg+8vnIzKcwrx+RSP9qsxMzfFn0ym0A7WmGrPEbGynkn6p3Fo4wjW9Ee9WQelIzQaWnM8xIRERERUa7IuvssJlstXLhwoV5KBeneWYuCxvkoRz3KStowWVXuZHZTL+AztufZjlG5muwzJ7SpLrYvqxOGk66iwXOapKtr0yg5PvK89nW3fcZqQuelbJCO+yzG+p3mfYwY74bxjHfDeMa7YTzj3TA+ufisqyxK0pdMS5tAG/xWl1I1FlFt1fxoXKbLdmHjFPNQPrkUCyZFjBk0krl6Wc/LRyEa0GTtM7bXNsQY4xiPdJ2XiIiIiIh6HM6Gmm7FE+GFD2OKiuDxtqHQo7crHhS2ec0uqmOmo7AuVNFDcbUeM2ibHMcLjFAHFKO60Rvc5ylpREmjLTaqYowq9dsmuImU7HmJiIiIiCjbZF03VCKKH7uhdsR4xrthPOPdMJ7xbhjPeDeZGs/KIhEREREREXXAZJGIiIiIiIg6YLJIREREREREHTBZJCIiIiIiog44wQ1RDkvHBDcF+fvrNWccQM54N4xnvBvGM94N4xnvhvHJxbOySERERERERB0wWSQiIiIiIqIOmCwSERERERFRB0wWiYiIiIiIqIOsm+Bm7NixeikxCxcu1EtEuYMT3HTEeMa7YTzj3TCe8W4Yz3g3mRqflZXFJ558MqFGRERERERE4bK6G+qZZ5zh2lKtucqDoqKiDq2sPqCPSEYzqjzh561q1rvUvjIkf/rOxhMRERERUbbKym6oVrUwVkJoPy613VAlCatFQeN8lOfpTXGLjI1YD9SjrKQNk/3VKO7U44jOxlNPl45uqLF+p9nNg/FuGM94N4xnvBvGM94N45OLz+rKolNXU6dtPUpePgrRanwo1+tERERERERpwNlQu4JUA3VXUo+nCs0IoL7ME+qe2lwFT1m9sVUqfRVYsP0tTB9jHBvqbxrS3ISG0snOlUDb44R3VxXmYzrvE/LYHufHJCIiIiKinMNkMe2MJKykESWNfrS0tMBfB9TWA+Xz61Dom2XsNfZXAHXzy5GHYlQbB4zrdSSmLjKOrS7W5/Cr5FElm3JscLudPI4PhXXm47QsmorWCms8oiSKJWg0rkPtM1r4KWS/nNhve0wiIiIiIsplTBbTLdCOVluyVzRpAfxtksEZiaGROE4qmiTZn7HmxqOSR5VsNhag1mlSGvU4pRhlnSivHJNL/VAPFViGRn8pJkcZmNjoNRNJ5olERERERGRhstglSjFTV/RUwteZrCxvBEo8OglMCb/RPDqBJSIiIiIiMmX1bKh21syo0falbzZUWa5Aq7cR88Mqe7K9CaP8o9CkvlrVRXusw7qaDVW6tVrnDn8c6UqqctGwWVND3VA7XoMZnz/Lg9qCyP2U7dIxG+p+fX+g13LL/vvl5vMmIiKi7MVk0ZD2W2eoxM2Ht7abL3WvcVPhbfUFk7dAfZmR/BnJnBq3aERXeTBpwXbjuJkwcj2VBC6wYnsdCa91XpfHCT9OmMmkdZ5xM2Xcoj3eTCh98Aavg7JfOpJFMcRzmPqaK1b716X8vcxuj2tf0Uup9cVtx+slskvn683vJRER9SRMFg2pTxaJeoZ0JYs/OqZAfc0Vr7/ZlvZkMdXJQDrOmS3S+Xrze0lERD1JzoxZlCTRKVEkIsoG27dvDzbqmSZNmoTTTjvNsb3ySnoqkkRERG6ysrKYDFYWKRexspgamVBZnDt3Lt555x21/Lvf/U59dZON1ahf/OIXeik+f/vb3/RSuFivjfU40eKdWOeMdm5J8k8//XTMnz9fbwkpKytTXysqKjB69Gi1bJeN30siIsoMWZcsElH8mCymRrLJ4hdffIE99thDr0XnlgxIknHfffdh6dKlKkl85JFHUF1drfdGF+2ckQmXJETxboslnecWEvfEE0/gzDPP7PDVSbTzxkq+rOuL97qEdU63c0sFMVqyaFWMzznnHJx33nlq2RLreu1m1D6EKZPP12tEFI94/q0kyla8dQYRdZEl8B52GA4LtlNxT7uRYN5zqm2bbt4lOiYk6nHt9+DU4DbznCb743mNNU0db1vvBu3t7fjzn/+MKVOmqOXOWL16NZ5++mmccMIJOOqoo8ISxUztkpqfnx+sfspXWU+VeBPFTCcJolVRFL169VLtscce01sSJ4kiERFRIpgsElEXOgv3r1uHdao9g18ZOUL+r57R62a7/yxgyOCOyYPzccA9VzyN057T2+8vQvUV90ClX0sW4/Gz7tfHPo4anUUuqatG0f0+jFRrsW3duhUvv/xyhybbE/X555+jqqpKJYlSCdywYYOqCiZDEgc5h5xPyLK0Sy+9VFW+pAL15ZdfqseKrNR1J0kMpYImybJcl3yV9VQljE6VxVT5+uuvcdddd+k14M4771Tb0sWqMspXqyWLiSIRESWDySIRZY72e1Dz+FmolCzSTbTj8gcjvNNsBIlrqUJFvJmioXfv3njppZdw9tlnB5usy/ZEzZgxA6tWrVJVQEnqJEGykr1ESdXwlFNOCSZZjz76qDqvPIYkX9LFVRJFWZbHyhQTJkzAvffeiz/+8Y8qkZOvsi7bUyGdlUW5Tvm+P/7446pJF2LZlk7J/jHBjokiEREli8kiEXWhx3GJ7hp6aqi/aJBU/VBVEbPqFzouH796phJrTtbdTU9+Gqfd+Stjq2FkBapaLlHbL9GJpaoqVur9CaisrMQll1yiluWrrCdq48aNqiIpXUWl66VMZiKJ3Z577qkSO2mJkhjpxioJoyQuci5pkkSKgQMH4uSTT1YJY7xkHJ69JbItFjlOElq51rw8826u8lWehzwH6zz281rb4hWZKMrXzpIKqLTFixfj3HPPxQ477KCaLMs2a39k6yzphirnt3dHTRQTRSIi6gwmi0TURUbCF+xGej+Kqq+wjS80JFlVXOI1krj75ZzPoWrIalTXWaMRJZG0Hs+HkcGqYpSxjDHceOONWLZsmfqaCGvcoHQ5FVYiZ3nqqadUl1Fr7GIi4wylSimGDDHrqd9//71qFtkvSU0i53RKeOLdFoscJwmzJIeBQEBtk6+SPMrzt85jP6+1LV5WJdH+1UoYI7/Gy0paR44cqSYQsl5nWZZt9sTW3hI1ffp0vRTqeiqzn3am+yknsyEios5gskhE3SAfgyP6iyZeVTSEdSuV5NBIGFtqwpNQpd0c2yhVx4ixjIsTmOlm0KBBeil+MrZQWN1FJcGwqojy1UoqrP3W8fGwkkWp1glJZuV+fNJ1UbbJ+SUZTSZxSRd5/ldeeaVKuiWRk6+yLtvTxUoY7V+TIfdBlHGn48ePV+2zzz5T21KlsLAQu+yyS7DtvPPO6vzytTOYMBIRUbKYLBJR11jiRXCS0/a/4+nVRRhkFREdq4pGgndqRHfVyOPyB6FodTWCxcTI81qW1KG6qFJNqNNdpHom4/KkwihdWWWsm3yVddku++MlCaVUtmQmVImTrq1CJouRpEu6uV522WVqn6xLIpopM6NKBdFKGCWJtRLFzs4K6yYyUUy0smiRBO6KK65Qr6U0GRMq21LB6ipc+PjHwXb4/E3qey1dlnfaaSe1P1lMGImIKBlZmSzKjfkTbUSUZvmD0XKJNbbQPiOpVP2cqortWLN6CE77WTCjdDhuJHzPVdnOKzOjRs50asTVtBhheuvI0TjrcT2WMcHJbjpLxrhZE7nI7S6ErMv2eEmSuHLlSnz88ccqwZIkw0oEZZIbaxzk/vvvj/vvv181SSYTqVimm1z3n/70J7UsX9OZKIpUVRbTRb6HP//5z/VaR2eccQZKS0uZMBIRUZfLypvyS/L3xJNP6rXYzjT+IV64cKFeS15zlQeTFnR8OY+cugjzy83JHBLXjCpPBRbYqgLjZragulivEHVCRt+Uf4kXhy0ejXW+LszmkpTMTfmlC6lVEYwl8qbrMo5PqoUHHHBA8H6FiUrkRu49RbTxjU6VRfkarXturNfGepxEuvda53Q6t5UsVlRUqGqiXetZ+2H27Nl40vg3bdq0aWr5//7v//ReUzZ+L4mIKDOwG2oKFVf70dLSYrSZGNfrSExdJMstCSaKkhyWod6c+0HzBM/VsmgqWiuqjKOIslv72hacNTrzE8VkSaKXDKkiSpIiFcTrrrtObyU3ViUx8muy5PVPJFGMRarMzz77rF7rSBJFGXsqs9veeuuteisREVH65VSyKBVEu8j1HiEvH4VoRXtYMkmUWb766ptOt/4XNeBPJzrvy7SWjAMPdK7OxmLvTioznVKIlcTF2zKJ1S1ZKon2JmSffN933XXXjOpOTERE2S+ru6Hak8Fo69bXVHRDDZHqYC0KGudDFRUD9Sgr8eGt7duNf+jHoc4/Ee1lJWgsaTSrjs1V8NQWoHF+PmbZupz2GjcTfhmiZT+XHNs0ytiu+6Hazi3MLqoB1DuevxyJ1Dgp+6WjG+p+fX+g13LL/vul73lLN8N0YNdFZ+l8vfm9JCKiniTrxyxaCWJkcth1yWJE4mgkbmXtE40kLmBsb8Io/yg0qa/VMNO/iOPVui2BVMmm/dgKGBvMMYwqcWxESfBxnc5PFJKOZDEdv9NERERE1PWyvrIY79e0JYsIr/wJs2JopG5G4lg0aUHEhDVOyaJt3Z4QqnO3YbItEZRJdppG6eTR8fxEIelIFqPts9t11x31EqXaV199p5eIiIiIOifrB7xIImgXud41SjFTTXxjtmAX0mTkjUCJx482jlkkoghMFImIiCiVsjpZlKqh1aKtp52akKYBteHTmxqa5XZxRhI5E0hkdtPAMjT6PSiQKqM+d5MVHKhHbUMpRqlcNMnzE1GP1BMSxX33/UGPb0RERLmEU+mlXTGqG72ArwRFRUWqearqUV9WgVbvRGNvMSZ6W1FRVg8znSzGqFI/po+R46wUz1xXscExibLdPHdrhce2T7qkygQ30c5PRNmmpySK2YAJIxER5RLelN+Q+jGLRD1DJo1ZjPeWAHKfwXAyrjc0CZTIiHG6esxwryOnpnUm4kxPFLM1ufrkk//qJSIiouyVtcliopgsUi7KtGQx1u+u/J46J4v2SaHikUxMIswENjhTcZokmygeffQQ/Otfsb/3nZHtFTgmi0RElAuyMlkkovhkYrL45BML9JZwZ5w5rocli+k8f3yJYrSkMN3JYi501Uw2Weyz8Eu9ZNo8dne9RERElHk4ZpGIspQkbGWor68KjhcuUxNNmVW/BdvfCo4NllvOBIcIW3HWIF+5XY3aGbE9bN1crqoq0481KXh+8zFTK95E0f61q3BMn/maR7YZM25X+yQ5vOd4/tNLREQ9A//FIqIsYJsEymOf/dcPX9so87Y1M8fB75tl7CtGtb8O43odiamLzFvZFI8qRYM1rXBzE1o9QOMyM8kLLGuEOf1wLH60Fvj0LXJmBs8/P8WlxUQSRUvkerrEShQPO+ywmK2DpV7kjZ2Fd/SqWOrNw9hZ9i3mtjzvUr1mWQpvntN20zuzxiIvbyzMU8mx1nLnSeXW3qZMuVptf/yjbfjVK98zYSQioh6B/1oRUUbbYYcdsPPOO+HWW2/VW5x4VGKm7mPqlxmBLR54J+q14lEoRSvanQp9eQXwtLarGYObm1pRMrlEskVjPQDJFUtGxJPweeI8LnnxjlG0EpTI5XSKt6K4bt26qM3RKT7cf0Q17rLyvXdmoebtKtw5caDeYFDbylD2do1DsjcEQxy3L8Vd1el7XZyqivZE8az9d1PbiIiIMhmTRSLKWJIoznv8MfzitF/guuuuw9y5c/WeFMsbgRI0YlmgGU2tJRhRLOttCMh9TY2lNOeAcUl2MpuukO6up6f8ugpv15jVxaV3VeOIyomwpYp45+9PA6f9Gr8+DXj67x1Lg0cc4bB96SLMLzMSTL2aalaSLk2qik6JIscrEhFRpmOySEQZa+u2rWEJoizHe4uNxORhhBQTvbVoLRlhrMl6K5pmtUlZUd/2Ig8FHj/arMpkcxMa9GK6pSpRtCpdkcudkWyiaHU5dex6GmngRNx52tO4YuxYXIL74TtFb1fegcoVfzYQA3+mssWwLqui8NeVOKL6LoQ6o76DWTVvo+rXY/R6+jlVFK2KIxERUaZiskhEGUVmPbXaW2/F200wNGYxNJGNm2KMKjVjZIIbkSfZoj/U5VTWWxtabV1L81A+uRQLJumxkU1Aqd6TTqmsKEZ2R+1s99TOJIpWt1P5Gk/COHCikfAZl1v167BMUcqKeBqnwcgVjYN+Ziw9jY7FxVMwpmw+FgW7stpiuohUESO7nj7wwAN6iYiIKDPx1hlEOawn3JRfqolWdfHcc8/FhAkT1HIu6GyiKJVDp4Qw2vZEJJMo2pNEa9lpmxOZwGYRyjD/7UI8tzDUDVUmqbkCd2KhHsMo6ye3ViKgyo8yaU0NCp9biImYhbFXAHcase1yrjEB+E6x7R9oX1ancuV264x4X99UfB+IiIjSiZVFIsoIcv9EpybJodxfURoTxdToroqinZUURksOwyz14pK3q/Br369RBdtkN3qSmlV/KlaJprTiP60C5i+ydTnVrKrjUnOCnMgCJREREXWUtcmi3DfN6l4W0vG+aPHeAi38PmzCIb65Sj+m7PMEu8R5wo4L3yfNtcuccc7Qeey3BOhuib1+RJ1hJY65IlWJYjqqVumezKYjPb7wTqkmDsTEO6vw9iVeMxmUSWqGGO+LRsIpSafZjPemIbYup0FGbOUR+FP5n2SAY9gEOUREROQsO5PFQD1qW0tR2lqbsmQm7D5sItCOVviD92ITgfZWeIL3YwtN5d/oBXzeejUtvym0T1rU+7DJzcArgJn6OH9jAdrVJTBRM/F1oOyTzopiZ6UiUbQqgE7NyVLvyag+ojLUNXTgRFSWzccl3qVGrjgfQzokfgPxs9OGYH7HbFGmVcXvjjoLlVH7ma7Gn4pD1xN5L8dESBfTWI2IiCjT9chkUapsbtRNtEsmYqK6VVqKMgnbfdiEPEah18gCg1MjRr8fW175ZJT6ZVp+vSFegTb4PQV6JkZDXjnKQzeQI6Isk+2JYqj6F71FOsUX0OMPQ6xt8tUaq2g3cOJCHXMKfAH7GMSBmLjQZ2y12PfLciDsWpzOHQ+p6MbbiIiIMlmPSxZjJYr2pE3NbqhurB0HqeLp7qGO3T2D92GTFfMxCkbko7ChSR8bQJu/EPlRioRJkZuI+33whpXOpJpWgQXb3wqbydH5+iMrbxHrLjFVVWWhbbFeG+H2+M2hfXK5gfoytSwtrAuu2znqQ91xzRjZHu/rQJkmk5Oi7iCvR7YnikRERNTz9KhkURKAmOw30Q5L8NwYiUeJEdXoN7t71gG1YQmayEN+oXWPNSMxVI8h0++3ol3lLk1oKB0Fp8JfoL4WDR77jb3Dp/kPHwtpV4xqv1xXie042VaHcb2OVF1Z/dXyiPFcfyS3GD9aC3zw+6uNR4vn3O7n8tUCPr+xb+Y4ddsBL3zqOFn3+2YZ0SLGOdpGRcSk6nWg7mIlSGyZnTgzUSQiIspdPSZZjCtRNJhdUEM30Zbiom9WjPqSHn8YTOAmLYA/2L00JDhuURLDwnz1GHkFZlfX8PGKInS+El8h6uaXh7qTRoxZVHlO1IpYHsrnG8nPoqlorYicZEeL8/rDuMZ4Qt1p4zl3jHN5ffq5F49SyV3w3FI5NSJVsh3rHBN1Gm6PiZTM60BEUTFRJCIiym094j6L8sE/kiRZHTXrronhT6lXr3Gos6pknloUNM5HeZ5tGfUoK2nDZHWMC0novMDkkkY05c8PJXmzjPy01UhSfXJeOdD+OLJu57bPnXTfLGmbDOMyw88h1+B4/ZGPFc9zjoiJ59zxnisV1xO2HrEv6rVSNOm4zyIRERERZYeMTxadEkXhmCzKrStqC9AYVsULoL6sBG2T/UZyFy3RkOUKtHobo89Mqpjn8vk98IYlLxVoQKlOSK1t9gTHzm1fhOZ61MukNuo487EbjUR1fnkg4hzRrt/+3I1VeX0qWvW1R4uJvL54jkvkXNHWkzmH0z6nc1A06UoWf3RMgfpKRERERD1XxndDtbpqRjYnzU0N8AS7oFqkK6on/LYXHRSjulHub2GODZTW8R6NwjyX8SC28YcybtH4EmW8YqcU56PNeDzzmsbAV1inkyB5TLO7pXmd0a4/D+WTS9U4QbWtybhMOa8S73OO57h4z+UmmXPE+zoQEREREVGiekQ3VCJKD1YWiYiIiCiaHnmfRSIiIiIiIkovVhaJclhXVBZPOukkrF+/Xq/Fp3///njhhRf0GhERERF1ByaLRDmsK5LFQYMG4aWXXtJrwPfff48ddgjv1BC57Sc/+QnWrl2r18QSeA+7BI/rNXHW/evgG6lXiIiIiCjl2A2ViLrMG2+8gcsuu0wlhxZZlm2yz90QVD23DuvWGe25KrRc4jVSyFgkyTwV97Tr1Q7rRERERBQNk0Ui6hIrVqzA9ddfj0mTJoVVEWX5N7/5jdr32muv6a0x5A9CEVqwlkkfERERUdowWSSiLjFt2jRccMEF+PGPf6y3hAwbNkztq6mp0VtiWLIYj59ViV/lq5Uo1UOr6+pqVJ98GA7zeiPWdV2y/R6cepixrpu1OXiee7zBfaeyJElEREQ5hMkiEXWJa665Bg8++KBj9VCqjrKvsrJSb3GikzxJ3C4B7o85YHEkfOvux1lW91WfL2Jd4o2E8ORqFN1v795qTzyNx1wz2tx3/1lYXV1nRBARERHlBiaLRNQlpHp4yy23YObMmR3GLP7lL39R+5yqjiH2MYuDUZOKsYfta9FipI+jrbwz/1eoPGs11gTPazxmhd45crRxJLu+EhERUe5gskhEXeaHP/wh7r333g5jFmWb7Itb/s9w2hB7UkdEREREqZb1yeKf//xnvURE3UHumSi3wrDa//7v/4atO22TGFftf8fTq4dgsBqzmI/B9sRRxjPqxZjURDmPY7HVt7T9HtQ8bqs0EhEREeWwrE8WlyxZ0mUJY6C+DEVFRR2ap6pZH+EgUI8yTxnqA3qdKMvIzfXlnomJNOcb8tvGLJ78NE577hk9wU0+flV5Fh6/RO9bDJyljhcjMfos+4Q2Hdd9apyijlXn9RlbiYiIiCjrb8o/duxY9XXkyJG48sor1XKXaa6CpwKo81ejWG8iyiRdcVN+IiIiIuqZcmbMYldWGE3NqKpoQGkdE0UiIiIiIup5cmqCm67tklqLhtI6VNszRdXl1GN2TfVUGemkMJJKezdU2zFl9fVR90XGV1WV2bYRERERERF1Tk4li6JLEkYjqfP6AO9Ee6ZoJHUljShp9KOlpQX+OqC2w0BFOcaHwjrzGB8a0aD3uMf70Vrgg5/dXYmIiIiIKEVyLlkU6U0YA6hXmaIP5Xl6kwi0o9VI6qaP0RPfTFoAf1tEsijHeLywcsy88skoNRdjxHtQMsL+YERERERERJ2TExPcyOQ2q1atwoYNG3D99dfjhBNO0HtTT2ZELWksQeP8coSlb9KFtKQNkztU/6QbaS0KGuejHMYxXsAXjI3YFyue+SIlKF0T3BARERFRz5f1lUVrFtRzzz1XrcvNv9OnGbNUUTEiURR5+ShEg0PXUxs5xu/DLD3wUI17NBfjiyciIiIiIkqRrK8s2l1yySWqulhZWYlTTjlFb02d5ioPJi3o+HL2GjcTfpnpRlUXfXhru3mMuR3hlcHmKtXFVBw5dSoKfY2hffHEEyUgHZXFg/v9QK91zp577IEf/GBPvfb/2TsP8CqKtg0/SC+h995LAJEiWBFRUYqKgg07Kgpi+8UC9oafip2iqNg7ICICotJUOggKoUOQEnrv9b/n7GyyOaScQGjJ3Ne1ydmd3anvzL7Pmdk9DofD4XA4HI7jTaYSi7///rvefPNNlShRQh999JE9ehKT7NJVhyN9cGLR4XA4HA6Hw5EcmeoFN2Y2cdiwYaeGUISx/XspJrrq4UtaHQ6H42Rg7xZtWrtVB+yuw+GInN2bpQ077c4xYvs6aeteu+NwOBxHQKZ8G+rJS6wGtPd+R9FsXYa0Vd/wF+U4HA7HMWLTyAf1bfErNSn80egtf2j0mcX148fBgC2a/0orDa9zkcb9sckeO0LWjtSoug30+9iN9sCpwkFp1hdS82pS9ixSlhxS7eulSXjoWildZo7Zrf7x+Y3fI6V7YalBL2nfX1JhsvvgGO947GdSbvZ/Chc1FPHGfNJtP9n9CNm/QnqmlVQgq1ctTaiWfTbM8G5j73jbr0K1m67sJ89D3pQuLIPzQxq9/rUBEeLXRZaL+Wy+IYmRGtPkJr+H1U9qkJfOVaSiF0pzgxWQCp9dRnq3SYc1xw9SvvB8zJLOLk0a90q77KEjJVT2BtK/achrqlhbM+3wV3fKhQ2O2W3DHA7HSYMTiycVFdVxoPc7iqHfUnTLTx2Ok4Q9WjFtpL7p30vPPfmEnug/Bql0cvDVV1+luqXKfmkb3mShStWF73s4e3Zo/+7CylUstz1gyKeiZ7dSVMOLVKRKAXsskzHjDdTOrXjRd0l/I6SX/iGdPkX6ZBqBJaXPEYwrF0hdTr2v/MoW9f5XRNAEWz2eHdIGBFPZYnY/ErCzXoidlzdgt39TNVTP8E7obBssqvBnhEPL1tIvo6Tt6fyQzIoR0h2vSlVuQdPHJ5p2ctDMMyj/csow34hHezxNFJJaXyM1ayuVz2aPRUCV+vZDGDu2SQcws2KI8HgqSLdcKt2EuD2K4h4/yH/RYP4dDsdJgROLDofDkSrzNGHUZC3bW1qVyyQpp04o11xzjW644YYkt5TYv1Ea3RvHuYj0GA6wskcpW87l2hFLwKYYzfn5Vy1euQevfZ32bI5S9gLBsmdVkYuf0BUj/qd6pTPhreQgSud/z0kXfCANfVSqg2desYn05XypT0tOwOstVloqXVyKSoMaONGUkRrnsp8NKEXjwM9fzOfV0sifpRgzAcy2ZB9hafmeAA39VozU80OE0ulUDdVTJI8Ng3WIrz/R2D0ekvL/JE3H9NKTstdShFXSh3dTzKMQJe3aSeOnUw/0mdu7SQXt8TSBSbR/TxrTXcqbBrWZm/rO+o+0mLpfPRNxPYamOMhGufZhagWCXZGMPTJMGnBdKLmTmjK1pKDZORyOkwcnFh0OhyNVauryh57SY1076PQiJ99X39mzZ1eWLFmS3JJi4wKp90046jiXLXpINR6Ubo4mIF8x5Sx4UAf3H0IL/ab5t9+leRPW4YVu0/49pZWnXCFOWqt/H6yrL4oXt1v4slUv/LsH+2tC5yb6ulRxfVn5XP3y3Xz5vv/BdZM14TY/7CKNGbde4ZNIu+Z8o18vq6MvSePLyo3006ujtcEugVvZv6W+bN1fqw7Gada90frqlu+1Xks0pX05fdd9rLZ5p6UAqf3xGBVXk/92jngbSqZRTpT3d96+z26p70X43RdLc4MPZ1IGjcAWbicgaBKnZU+8nyJ4+R9yvWmnrFFSvasRnojNIGv+lG48SyqOK23OM9sZr5rJbo8Da6R3b5Qq05h+eNYzpJneCaHlffZw+Ba+DLM84u2wrBcmaoq0n7LvJ2s3tJH6z+L4Lmk9x6qgkf3lhJ//Ip2JiZi4qyPMJoT97Oo2qnoXVV+jij0Qxgyuz3ElzdBYumq/9DtiKJ4I0jBLaW/7XHr2TMpBeL7q0psTqCIbno0qNKuFj5Ym50mTEYuTRktNz7UHLfvHSYVIw+SvSCXpzvdpwqDd0FcuQ4D7bXDYklIb/vQn/LfLZYs0kX5DqBsK00bZqZsD1OP8L6Q2CNdZe6lX6vYAgquCmUK0deWnEVpe7F3uYcPf/kqqH6jLWYGMrPhdusRPHxP9d4cNCDC5NyZrry9SW3pvRqhnhXga0X/jYPYXSxdT76FlzYRXR7WG2535PsXhcJy8OLHocDgcqZJTuXNngOFyrfQQTl3xujj8aIn+ONLbNkmDn5POLkt48UrKV2KVdi7fpi0rlui0M2vrUNxmbfhvifYVLqNcofWIRVTtqVFq+fffavruVckub9s39FvtOP8dNZs4UtUv26X1PV7VnFUmZJPmvdlZS/4srXLfTdRlv7ygPBO/0ObNocs8No3XxDse0vrcd6nhxCk6+9ULtffdjprwxfyQ05unfA1li1vKNVu1Y3U+5dgWpx179mn/5j3KWb2iUn8fL97teU9Kz+eT2v+ftBp5+VZHMo2y+hCvORL2c8328lJtPOqjod2X3nrMOaNQOkasXiH96S9ypsEeZf8PVMc3iFlzntlG3WNM0uPnR/HE/5Ae/gahYcOXE1dt74SGaGL/svCtU43QKSGuQzj0QPicVkR6cpDUyi9WRQQF7T5vOQJimVTnfGlVnLQMUbM7bNnj/xAvr06RlkxERCLq2lCda9HD5kUuq2j7BYhNI2E3I/DMvtl2+uoCATT2B6llU4pGA55ztjQcnZxI5EByafgM/R/CHi2NyeolROnDiNvhVGN6UhnxduA1qTflb5DXHvRpKMWY+iX9QS/SrN2k2z9LEKyin31OmKn/t1N4zqQP5bx/hLSYcjaeJ938euh7C29ZMGJrOfW1bLZ0fh0pDnOJ5XNF4g41B3mYY9u4awozv30QhP2mSnOp9yxs3b+1+aR9H8LsZiOKZ9Duf9FVvns3cVvEIQQvu1+q+TZ5oTwvk4+uiMphtq6rnkG8HN+PyF1PN1lOnAftFwzxXxbw/6th0rnYXJFzqC/KeDQzvg6H49jgxKLD4XBkFnZKf8egCZtLj90rXVwfxzORc5Zd2Qrm1MFt27VlyRrlbYVXvHy1dh7Yr0N5CihHSBlmVa4ipVSkTBlFFQipxyQ5VOs61b6+iUpVbKCGXW5T7q3rtde8lXHLbK3+dYXy3v+CmpxfRUWqnaMz77pCOXF+fbZMG6r1S2qr3Av3qGaViqqMoKt6RR5tGThO6xAGBcpWVvadW7R31VJtj7pYRUqs0balfF5TVvkq5bexpEIWFMlDH0rl8MrPOV16MQdePF5xuHOdS+qCU735N6lWujuy3IILlZDyU7H5K6DYHke1L5Cm4eWHQEntxUXPj6jNRUbyFfPWbhYPlHE/lZqD/dyE5+Y8E26maqyKz1XQHkpiyx9YVXzGZYgSM0tItZzXSoou7B03FChK+dHGy+dKrdsj8v4jWzj9hwpJeQNexM0PSxdWkyqdhZB6E3OjaqehDqe/gghAfDZ6wBOLt1T29s32u//mlX8QCxukZg1CUl6NWiNWRiJ4grNykFwaPmVvpr0uJG709QO9pebY/FDzCGl6Qvrml5pL0Y9Kh63vzEYTlKLusqDVq5OPJ26TRoxLmAg260GLlfLqn66WLJd1QThjlqacj98lrV5nX/hDlzPLgrfRHnO3S+0Rhv8hxA5gJoVo61BzYAqlbBvnS8HL63ifdFZVBF9bxoMLSIP6N2msm0SeqbfX38EuEKA1EbV3X2nTt4z+GJtAUL5zE3VOXXfqSdtxzTcIfKP/KyAeN21G1C+WzmyH0FyB8OXzLsaciv43TCUpJ+1cgTqJIh+tqK/Czit1OE46XLd0OByODMDtt9+ua6+9NtF2GBVxAlfh4J0jPYM4KFEE5x/n+9d5/qxBPuUuW1D74hZow5I9ylGplrKvWa7NS2ZrX7nqKhIQEKmSLbuy2jvMadmzJbwEJPSyHI5F5YuflTytSGXlsS9UMRw04lR5cbx9b7q4CtZAVIVmEzk/Ry6dtmWldq/+T/vLnI3eQiyu3Uq8pZSH/EdMrjOkj56Xli6XevSRTk/Dk13ZUFX5UE1mCudI2Y33bKb3ohB3IfVEfhAWCVDm3hxoznmtaqHaUAEVUCiDA0tVr0QRvc+xl1F4JVC6USi+RwZLCAlDWpahJkdpxN1/2M2i2VKRulQb2YlFOO5GzFTxGxGyBcR0FYqVB6MyyyXPfRkBwf+ln4Z0jIbu8PbNdrl9ZjHmL+JEMFTFZsyMY0GKW3KMNGG9F+6TXBo+2WhCiuZRBaFC/PvCBOdRQxovr0Hfou3Dn2Ce/Bp1lJc6s2L4cprnSMhOvfrloCslYJcFr5qFmM4v1aWeFmO+c6dgvtRH8NTUCNalqTef0Mty+B+FifuUJZ2gtjXi1DwTGeV7kZjdGQjZ0Gwiuzmp92UIxJWLEJuMNVGY7Eb6bmipbBq6mcPhOPE4sehwOBwZgI8//ljfffddoi0pcpeS2j8lLdgkTRqA8/6j1AIH7oFRJrS4ClUvof0rF2p77GnKWa6ksm9bpG3rDyhbmWJJvyk1reREBKIYzOylJ1D5vGGJdgZEwWlZjbhEVG7352PWavN8vPNSlVTQaMGC5RGXG7Xjn3nKUqGWipbZp50xC7QnawXljvdeI2D/MkTi01KlclLPe6QpVmFFQqE6UiNUz1vfyhdmaWb4kyins/D2rXo6EOtNWQUp0gB1P1rajMKOmyPdzXk3duEaG54VxX/LO9JCPPFtcdIPd0vv3Sh9550Q6TLUlDBv4IzF8V+Cw18SAVZiIclR5vhljxbzXKPPYs7diXIxzw5GwrSfEXVc0xzREdLNl0jLD0qjEEEBLZhqGvtRKvHnUwVTdyKggpk8lsyQbkacPzRB2kPeTZOOfdiGpRd2WfAK8ybWkrRNMdpiASZIWml6M20K5EUkmiozs5c+K+YGZkchq1GlxuT86Ua60sxdUq3KIS2tkgj/nNjM9Hl0L+ynyn98xrzNjG/OCG3C4XCcHGQ4sdimTZv4LTXScq7D4XBkJE7D4WzUXhqEo7lqqtTWPLMIWaNQY6sWaOehaspfprhy7ZusjdPW67QC+bw3Kh7Yqa1xK7UBtbFti1lDuEf7N5j9OG3bFVyolgwF6qjkJWW1452nNPmPxdqwcIKm9BusPYHZhgKNrlDRynO0/Kn3NG9xrJYMfEOLhu5UgfYXqJi5axUpi1jcoV1zNipn5UKKqlRM23+aqH3Fyitf+DNkyXEIT/i1dni4nXHyZ0kPbpXu6mV+PjIxyb3gJkd16UWU2PTHpatQCBMWeVNif49EIeAVx0NFU49aiKj8jXOW4z3/jefss50GWMJ1sdMQrojA/0pI/0wiMaOeEZF//iYtInwVYnk3Cm0Z/3MXTZjmWfgnSsumvZXMrsNr302aBbwTIl2GmhLmDZxbKdJixEnFUlL55ehcxEr8skdLv2elMQjJpWT/2Zelg1ciVlNYahnPOukXinEngtGfcTTb4A5o6d8Ti5TU0pjXT+ozBjG8VPqIc8dhkhc39ML8ZydXbSBO4jfP65r98B/GX0c+SuaSHiUeTksz/yJi16Lbx75LHokrO3kZRx/bQWT7acI4kwe2zaZgpL3G7K+V9kaYmFkWHIvJloyWSmFay3/BpGj6gtb248vJtp3ym8drzVtgTbkjSaLYWVLLPNLD99M9EHzzxkq9ByZu6+a3k95Q6f4vEJKUr38Pyss115/nzYiWRfTn2ki+SLAydVmDzTx2a16I5CYWHY5TiwwnFh0OhyPd2b9DG1bHKS4uTjv24f0c2K31fI5buyXkdJ7ScBco1UhqYd6GCrmKlVXWf37Shi2llDcvQqzqGm2etCbhxTEbxmtSi/oaUb++xt/3g/ZphmJbmv3WmjIZLzVVCqnmQ/1U+bxVWn7t2Rp56VPadf5t3oyhT6GmOvujN1V01weafnZjTcRrz3HfAJ1zUw1vmV3WPMpRZJ02/7ROuSsWUoHylXVw6lTtr1RFBfOFYkgFGu3PF6Wn8dy/eQ6vN7/0JGIuO+rjzqRnZJPk3OcRap8S3Y/eD/ObKbGL75PGI9jiQZF1eFVqird+CedUPFN66lcvqBV5uAlB2JLj1S/Hi+4otaMiPr6Da/DC96MgeqHoq9k1jVUulCbVlL4lvpC43y9NROCebdMuUwUP36goynKFVf/pQOgNnBTx68JS8axSLZL7+a/Dlz3eiKh+tDHi4Gx0cVVEXW+pRARexrYZ0jCq4UIr6nzqXyrt+owiIoR8Ukujzo0ItUcRtJWlB9DZzyL42qO/Df6zk2Ww97EItecv8PYfRpCmCw2kzzGhP++WyhFvpz+kx/6PZh1PU5Pn0bsQVoPJu8kD2wOIMH1v9y+T5gee200Jsyz4x6+9dsnKtdVI5y/qyH9xTHw52XpvQbxipuXN/sOhl9imTinpTYRgHQR8g3KYOWZ6I+UItnWpq6WR7yAkH6Cs5Kf7bNKivtvYN5uaVdrF/sFmMH+zbLZiHekP8lmHNjteE70OhyN9yLJx49YT5uosiV2jWjUY7dKRI50lHDZsmP10NIxVj+gu+sF8JWq5qt9c9TzqX9Y38fZW1eED1bGiPeRwpAPTZ3CHT4WGDbjLB5g7f5UqV7TeVximT5cuFXjQ5SjIlzevoqIi8vyPPSt+03sfjtFyf92kT8EGuuG+dqqTy+6fACL50f0OHTrYTw7HMcD8FMN5Ug/EQbe69lh6E0Ea5qczfukhTe6WWNg4HA6H48jJcGLRx4jGQYMH272kaXf11ekkEn3CRF3sALVvtUhdY3rq6PSiE4uOY4MTi46kOHDggLJmTfj+P3zfkNQxRybFiUWHw+HIsLhlqMeSipVVXQtwoO2+w+FwHGP27t0b0WxjcmzatEkDBw7UwoULQ/t79uzRoEGDNHasWTPn8ddff4XO2bFjhz3icDgcDocjI+LE4rFk7CgNads1YTbQzDRGR6tWrVqhrUe872VmDturR4/2io7uwR4Ezm0/YEnorHgCYfHnJxWHw+FwpJEsWbKEZgzNf5/s2bOHNh/zOVu2bInOcWRizpU2HjqGs4qGCNJ4eaM0w80qOhwOR7rixGK6E6PXWnpiMLqL1Df+gUXEXKteqt43RnPnztXcEY9oQZf2GhA/6xijBVV7KSa0ZDXxub00XEPsWV48w9VquBcW01fqHR9JMA6Hw+FIOwULFlT79u1VtWrV0H7OnDl11VVX6dxz8dYtjRs3Vrt27ZQnj/2RPIfD4XA4HBkSJxbTnWg9MgIxaITc8KrqHW0FYewSLVBbtfBVXMWO6to2RovixWK0WjW3U5Dm3Ohu6mTPrdixK1daQvEkCNJanX9QTHwkgTgcDofD4XA4HA6H4yhwYvFYUrG5WkUHBWF60Vb9zOyk3WKO/nWrDofD4XA4HA6Hw5EIJxaPJbGjNTwmWlXNZF/oZTdDNMp/mDB2gHoPCcw0BjHnxvRSf3tu7IDeCctQbTwJS08dDocj7Wzfvt1+cjgcDofD4UgaJxbTncAzi6FnC/2fu2imnsO7aUEX+2KaUFhyzxZybt+2+qGzF083tUpYhmrjUa9W3jJUE1fCm3IcDocjVczPXixevNjuORwnJ790lgq0k2LDf9/Usv4XqXQB6Sv33ekRc2CntHazdNDuO04OUrP9ZNkrrVlPu9rdEwqZ6HOOVPMpaZs9dDJySowjJ7gu3Y/yW9L39xYdjlMD9zuLGQ/z0xnmZy1S+iF+IxZnz56tevXq2SOONLNlsFQQb87nmcnSs43tzvHln9ekeh9JE6dKf5CFF9kWfyoVNYFx0s2nk923paHJm4R2bpA24w2U4KKkfj3TiIp1iIp8dP18x+PnNZdJV2GelYZIbyTzpMU3V0mPVqL8b9AU9tjREPejdHpb6e3VUoekh7gMx0cXSXeOpy5XStcVtwdPQeZ+J93TTfpzOcI3W+LybFkj7c4pFcNITokZkghsPznGUgcXvS49PYUh6Ux7MI2kVJdpYSdDYoOmUre52FhlxhDaod9j0qsDpeU7aA/y98YA+houht8ue5dKT94svfkXO7TXre9yDuNW/vgTpJ+eJL43pbXs1rtV+oL+Xye/F+yzlzx/94H0/ufSpOyMi4yNZyXjmqT3OJIaofH6UbsDX0Yw3oTX5fEmQ88sGgGY0uZwOByRsUVzf/9KfV9+Vk8+8YSeeu4VvffDVMXtt8GOzEfUpdJKPJKlv0u17LGThFLlJXzjNPHrg1KZjtJ6ux/O2l+lumUQnMmdkM5M/lgaXhNnMRn9bZynZ4dL9+MsHg8HL6PS6Dqc6PZS7VP4e7n1v0ktb6BLYsMxCJyVK6QrQ9+UePRHcF2AgDpVfhU2NdtPiSqI/wvOl85D/BwJqdVlWhj6P+JD6F1hVtftRgBeLj1Cv31yBGJxAWK2AmVsJY3f7J2vndLb10oD6NB/xiLyaLPh9O9nx9twmPG2dA0C8+k/pdhJDL2MAa2elfwoDMuJv3E1BCBD8w3vSLNHS2fktYFhnIhxpGYn79bxzydSYXssNRLV5QnALUN1OByOVFj++zf6buxS7sTNdUPnu3XD+aW1dcZQDRm98uRY7pNGzO8oulnFo+Q0vI/SpaWShaRs9thJQPVG9sOpDIL0k/5S+8cQqMn8OssfOFpxiJybj+VvO2YC6uG4TvxaqnMK/wrOpK9wvtsgChE4NcrSLUtIuU5V7zYC20+Jci2l0Yiri45Q4KVXXR6Ikd5BtD38gFTcXJ9LeugnaS7irBNitixi7p7uUlUE6TQEqWHnLKnfNOlFBGEThGTDjtIrl0kfIZ5D31EhJgf1k856kTiaSBUaSj1fQSh+hOD0v8SKk3rcQvrdpDnjpC6tKQfDdHJlOBHjSI4C3q2jKOo0kqo9rC5PACco2WNHWmYO03Kuw+HIvJS76Hrd3vEudbq2qWqXLa/o5hfojFKnaW3cMnP/cpxyHMJLwBvLXpP/W7xD2/BSGuWUrvnO2//7ZanwVdJN5RCD3NnffUcqkYW7/I3Sf94pqTL4BqnMI9IH7aS8XJutiHT/ECl+RvogntIA6fyqXngWs3Fb7vGnF/yPVMs/HLYd9uxKSakYDlly7F8qdaa4Wbm20BnSj/b5HLMkysTX9gt2cOZK+mlw7iSTgM1D6baew3Yj6fh5eGqSiQHsOe/9LF2Cc2nCKl0u/ZZEPX2CM5u3KZek0HGW4Bh9jQC/68KknZQDS6Q+CJw77qJJAidsmi7diSNaKl9CHqvQzFttuPlm599vpQvKe/WQJbfUmDhmx5/gsXQw9WviyC6d0VWK3WsDwCyTe/QCbylu6Pr7pUX+lJVZ8lsMk7lbKkh4oyelZ87zzus5xZ5DHnrW8PKWvZB09s3SmLB6WjqS9qCNCpO+X45WOLWRLmR4rZZ0GeWqyfWlif9tTDYrn2/GtP1H4Mw5ftzxbR2EMo/vRbsW9s4xeb3iJUzf1IUtpzne7D2ufYt2IH5zzosTEp5/XP6b1KaKV9e5i2P6g6QdgYcjI2mv357nmA0v3hixsOjw5ys3reGc06WoMGP5kbKb6x6dJ81HYOS3aWS5QuKSiFmJ+GpPfWU311LOGlwftO1tiJw7yZsJD9XT69I6/1tE0zcQB3eRl+ymDd6gDzGcZGf7bpk9J8Bhtk9GO9KnujMkHJhB2qTRazZl/h3BxeevbEH8svqbf9zHhNd8SHrres92TT67/hhq5kQkV5emz12BuLnyU3sN5fvhNiknImtyEg/RTfpSmk4/v662PQBZKUfFsOWiQZYwniyjb5wRWPJarxn2gMBcZNIgD8Oos/PpG1RliEr1GGIxmKnYhWH+UOl7+tu7iN2t1NfPY6VVybzLLclxhHSeQMjW7EFdWEObxhiZB/H9rW0vvx1MPRdiLLkZ+w/1C4up68Y3SedRX7kbIYCf4XrObdTzyJ43TKouzZL5YvTb7xm348eqOxPGMn9cz4Kd/YK9+GN/pVulxTavBzYxZnOLCo0z1q7/WueFheC8kc8RL2UMMweHw+FwHE4Bla9U/GSaQHIcFdw1z8OTf567bPv/k1ZzC3+rI550d+nDa+05sA0P5OEY6Wnu+lO4Y043X0MPwztaaU+IgDWIwUV4aHPwLt/H8+ndWfrVfg2+HU+mNXf4gp2kCagQszbJrPt61D5sxA1+rDmUxDbuYUSXd5bKtMKJwpEvZRwGxE2f9qEv8hMx5gfpoq/wt9DEl63FQeL8jRz3l0R9Yh6/vBhnw09jHHGZBGwe/CVTfXA8/Dw8jNMW5M2Ppf8bg7gijbMQAu1wTtP8gg5E5GfkrQHO2jnJrAub9hkOUAPpnnPsAQOOz0vXSENwzD/GsfbzOIEmpZVDLKH85+PElX/CW2L3D6KwEM35PgInKMR+QFx8NYd03pfW9iNeRE8I8tYTsTsgivrGLGJJpzFCos3/EjuBhy5DlCLMliKer8Kp61GK+BABvs96N3Vr8jYDx7YlbXFZB8xjtw3E5O68GoeOsg0L1PVntGlaxp81lXGgcbKjSKM8AuWTFtI3CGWqKUQnTM/EO5ZukBR/4SReSLmu/pBymvMQQP8hDH+iXoQz/9a/ns2s+FUailM9Zr70ehPpuWe9Nj9AHd6C87nsSuqCuh6OLZgy/M8XzRG01zzSvuIFBAoOvVm2+JDprm3oiqayESsbViMEVkkLCNvPsbV8Nvtr7At7LsGJN3E+WRUB9ABVa9NYSZeMdOJt218IYoTbRtpkcixpUW/N6Mqv/GTbk678JGUcQp2Elk72lhZiX/dQ1/GmjwNfmf46mTodSr94g/K24OJv/S9bfJKyfQSWEexm+FhLPWZHyKym3Lu5fg/CqrKdffTLmtLSxsWELaMN5iCS3sdG+92B6DWDQAR1mRV76kP/nsp48Q7iePkQbIi+8zH/m4Q/C4io6tWH8EcRh76qS4JZCN5l5RBRZb39g3TCkD6jrLcgjFq/iy1UD7QVgXtDJ0gDb6HsrSkvNtEo0JjzjKhmzBp2nXQBQujmSxgfK9L/knifW5LjCGV5HHsrTH3+H+Xbir3eTbt1ox9fU8GeQ/zjjB3R3kPpF2tpsw6ME34XNsw/JA2ij7RlWN98lfQ7bTqd8WdeMsI1WVKqyzjCGG8/p08uYKzJTvztEYmme4TGdWy1Kud8jy2e9TlpUwYhLvsw3hm+55Z3H2PM+4wTKxnP7tjDWHZPwpi9iGuufhFbROQ6sehwOBxpZcUCLVl7UMVLVdCpunor078NNQtewUN4o+W4e55zuvRiDu66eM44r/Hkxssswh06O256ldI4EsYrwgs44E8bRECus/FG8Ior4hV1wBOuuUPaYqfVDuEd7c1KvFhRLuRdEdIw65MK2icOyVIJeyh8K4Ez6d/AixjH6lyFbLECDvtF9RK+efe58D5u/DhGZunWIwjKDWs8Z9ZfElUwNztsRf00/OVnNg/+kqmCOGZ+HgqGKdKrH0T8RHtpvIajlw2hMtlXJ5bbEE07EFinJ9Nx1v8h9cfBuQ8Hi6QPB+c8tEyP8lQNO2HfXuoA5zEv5ciDxxxeT78i/vLcjbPLZpbY1UX4DccxfRvHOSjE7sMxa2CWwd0qdcUEjMNsMMvkPqPbvEP6zXDUTTkff0pahxAPOoGVEYfZiPA0mrxUEa8599PUobcJ0txFSpJH878KwhAnsjyCZJad4DaO+x4c4gKUw5hEftrBlKOor6AipBz5jzJ5IC+lqOv81Md+GjyUByhg4y2U1EwPbfbdpwhrHMVnEUkVOO9cHMupiIx76xNuy2BsZjHHrsXBjEZMXH4jJmREDV7zXNp5PHX/JvUTTV1fSJ0+iuP/NQ6rP3OYWnuN6EsatNVTl3vLFh/tJVVHlP5IO5i3mzxYFyFQhq6LwF78NvbAZ7PvP5+Yh7o3ceanHrLRdYvz2eyXxoYpQkRMQfQvOl/6ABFsbKIa/azvVETGvZ6oXYPg+waHPn7pJHXwIrY7mGGFW0Q8FYxN0ClLUU95KG9hbGJf2DCSnO1XPoM6o9LiEHLnMZSsRais5fN66rOSFWp+WVNa2rifoaibaU/yeesj1Jd5qZUZBCKoS0M58vU+5XuCfnPuzQgLRPf12HA4MYisEZUQH4iw5PJiZvWeRWSdk8SXQgd2IUYRWQtWHD7zGcKIW4Sz+QJhU9gJC6bxh2svof5jF9I3SedWKvN5hHLwC52UxpGoRrQxefsWmz+jBWMpbf847e6XJSv9qaSxIdqzCsd7YP9/IXz9LmwItbOxOy4ybZ/XlJEx4IDfASMkxbrEJro8L51p7JJ8vs/ta74di0LjeiFvXNvFuH/zmZxzMbcgzl20ioPU0efk+fEPEMGEl6Z/PfwyfSQwZh8w4p2y5sNek2tHh8PhcCTJFk0eO0krctZSoyalI3Y6TibM21Dd7yxCLrywj7jbLsXz6NEHBWNurenMaXgUvpFk4UMwiSju3n9+KW3EK66LR5GbO/PZXaR/rduRlmWoqWAcVf+Gbz4fC4xA8jHOffG0Okc4gd8+Rzx3IC4QM0kR8630MekctkQVx+hZBMqtCJUr67CLg2OWLX4x285WwFac4zNwmoLfBxiHL9wRMt8NhKC5sgcCt+BUb6NMN+JE++1Qrj3Nl4ZymiWLV3F9QcSWccbLNAtNJiaACP12FA4swqEpDmcUgjF82eMxhzrcuAdTpB6DpmKWUR6GEcRW+FdCQGyd5711MjRLhBDNF6jLGjili+fgvJr9CNprP0Igv3V4DVmLI9jsLJvoLp+vQ/xS76/WJG4cZfNuf7M/7wXqzbvkqNm+EUGAyCoWKHvQZg5isya/+QNivpJ5/g2RYt74GTEp2H5O6mY1AnH+XGziMkQmBrN6M/mqHfp+J3KoSCNeDFn5HG/aaajLy3tKN9C2GxGML7Q+vO8YEfYuQqspYrq2tYtwDjDc3nORNOESRDiCzNdqp9k8ZaUPjNkpLXwFsWhEsRccCswROkG6ewz1gBi8ABuZFn+CRwX65Nm2DrNin1eR1nz6nf2KLkSy44jlDPL/PMJqKQL8HcRgsCizEJll8iIYraBu9qINSG8iqMv4sQpKYQ9FkxiLzJdXoTISx0vYZeit2Nw8lrC9iG37Y1m2hojtwPU1bpdGUbY/Hkq6jhwOh8ORJFs0Y+BHGj4/t+q3vlyNCjDCOk5d9i9DJD6Nd4dH0ROPYMrxFtDcgmtfK42M8daVzf+Vu/3X0k0DvGAct0iWoZ4smNkznxU4cmtxZMxzMpGycxrO0XTp6a6IKXssEXh7372L80STnZvECYVw0l8YgiOLAFlP+k/i6N2MMxrDviF/EWnmJGlDYMYnLRTHTMwSv+cDyyZDm79kNwK+wvGbe6O0CsVknPH9lLe6DfMp01T6ZCJChXP+myG1iZXaPRVwmo81CFQz8/XH38nM7ERAyPHfShl8m0AMzacsQYGTWntlQ0Vs3RSakAlxALE+A/FWu7w9cBzIR4MvRrjHJVMRpyFcjCO9NTB0LP2XPwj9cmnooCnZfvlapI9AXoA9lDffKTFsLWa/LGImTWIxHfiL/meeqSyM0H9kIILNHvdZ9psX3gPBltR3CysJP592//1iRN6X2ENgVq/M6Qie+fRR2tknZgL9tolU1ShWI8wo/x8zE9JdxtAZl186s6q3b2Zh161KbLdbsRnzpQNN5ZHKOGJYgph8kXquRFx3vB74Yo783Xu/dOMv0i5s2vTh6Qi6Y0FqdWnYFxhz4+bQjyIdc7HrM9hu/IqxOjiWsV3hL+ulbZreJ03E1pxYdDgcjgjYv2GOhvd/V4Pn5lCjazvp6tOjzJNvpyTmbaglSiQzdZNZOMTt/7V2eCad8UBnSQ/i2d7VK/FaokjIXgyvjf8Dv8GRwLNYiMe3JELRad6WMnKy93DQahLeiRyI2yEVs3Nf3KwjWYaaHpSsQnw4Zl+OxXkgO6tw3v8LfBVfoKRUhAS/wsGbv8I+3xQ22/XpC9IInLdlVMH/+Lz1Qpw4nLQgKb3g5tfeFB/H6PJkXg8fh5buEyd1vjwJ54n4Jo+xeVvjCa1VOD7ZqKc81ku85G5Oe0+6DuE1A0fQlGHhVBzvJPKSFFnrSf/XDLF4M82NYxZyWPmznuvT8sbI9dTRf+Rx4V9Sl8cwRRzh6QjQxcb2NuBI0wbLTBtgDrsxy//4XwChix+YiEheFpQkeNJrTPxsm4jfqLFNOOhmfzsOsJn1u/ZWnMT/w1F+P6G9/53CdZTX/ObmavY3mylCtvV8Xh9m8rXIW9PN0kPYQQzXj3lVenWBdMOVOO7mhAjaq2UX0iD9F37yvnx4tRs2V0O6Mo0vci5Xk7pFlI5ErJpyLCOu9WEqJ7m6bHwtQgXh3vIORApCIXQ9YnA2eTaUOEu6HtH25AOUB5uaTv948gfp6puUpjdXpmT7hRGe2Yh7PsqwEp/r0mbf/O4tDw71A9rMf+ZwvX3GcDM2Y/Y3W+GdHiynXNcwRL6NfY6lXUbcK30ffJqBuvsOYVWJIbVxEiJs/ONSxUvI013SL88yvNk8+s9FFjpbeqBRoC4H0N+GSrfQ38yXNMYubyVs0pNSf4ZNM848jo3mv0U6J3SCVA8Rug8B9NCnXh/6q4/02MhAHJDiOALmXWfmJVU3M6TP/Jk+2JNbBX01+B1TzFzyTZ3/RR4f47wobPfPSdw+TP+JkALFvVnbrxDdJq9+/wqRSl36/I+xbCp1tZC+1P1NbL2FVC0f+cA+V9kvWrbx3/Sx3cECcM+6Axv9GjHYdzzn2LANtEVO2/9weTQWYW7aKD3vNQ6Hw5ExmT9Mvd/5Wn+tKabzrmqrRkW3a3VcnOLiNmhncAA+hShZEu8/03KIO/uL0tN4uN88JxXEfX3yWzyHl6U77dtQIyVrGelF83YDvKeafK7XWhqKNxoJm/6WOpzvrWUy29l4KCXwfvrdaE84fjTCKXkNIfQizlw5k51o6aeAGMyDE/fRazjdVFvNcl5278KJ32PDDe1wuN9AIFbk3O/Quz9/KFVO7ivxMMzr4V/5Xrof5yX4htN4cMIGv4JgvV+6OKnvOTZK7yFw/LxVbCwNw7n8vm/CiyEq4zBOxOHNP1hqglNuzovGuZqM0xoROFF3cu0X5of7ryNeU09VpQd/DPl2EdEB5/VCHM1zSP90nLVaOL/nIALeQCg8hGO6hzrv0cbGbfLH5xUXSd92T2a29UiYJzWz8YeW0OHwt6IcZt//Hc1zn8e5x/lc9BJ5sHVq3hy7CFHn/+bmbYM48TepDp874tQHyYpA+4xjFaibulzfirhuwSl+nHYJEUF71byT/OAM/3gDNlldepPuOnAY+Qiui4yA1jj796EUbj/TpkWXmxHh9zlR5zJU4Ew3XeQ9j+vndaC/drgofYYytkVsn0ebntUVZ506ew/7iND0U7V987xb7nHSFOzevKW0MuX/A7FTF+EYgrT9Zw5Pvy1Utbq3jrf/Os5+emCeMbz3dunM/rQ1bVG5g/Qxtnk7fcF/G6p55vLNBdIjtFdSqyY3IaiMeJlrnj1FrJj8mS3+uUgueoDhtyOCJVSXD2M3iL6XmieIlQb0F/NilufPox0Q6nNbScOp76L2hKqU/1fGiWkPEU7cFzO8tyfO//lxpDaOUJb/kf+ND5IG1+Sn/b+mj/S6knQRZWaZeJ93SPcxL/6bGE8eeIT2mUE6iN2fIx1LIA921Id4ppKWiaspY8AEym5IrS59bsKmb65NfTKOxTJODEOEm3HC/Laov8T9beqozAUI37Bl0Rczno9BwA+lrvw+flnvhO9L/xshtWnoHc+ycaNZmXxiWBK7RrXMD6CkM5988okGDmRUioCWLVuqS5cuymIW7DocmYzpM2bbT8nTsAF3nQBz569S5YpJz0qZPl26VBrv5MmQL29eRUWl8a0Ox4pZ3+nF72Z5z9okooIufrSTLgw+BHWC2bt3b2j869DBPJjgcBwHzLOV9XCWJkov4MAdCZNxcppOYHxBMCUlMM2PZzdoKnVDaN3pO8kORwYgNds/VfjmKunRSgwHb6TjFxvpzKkyjqRWl+anM043X1qtljoch0VCGU4sGqG4cuVKPdytW6oC8NChQ3q9Vy8VLFhQ9957rz3qcGQenFjMeEQqFs15OXIEHhhxOI6UdBCLZtnU7pxSMTyjJCZXtHeLtH63VLhY2pZ8OhwnO6nZ/imBWQprXpLDLTutb+49npwS40gEdXm8xWKGG3KNkxSJUDSYc8y5I0aMsEeOlrHqER2tWrVqxW89xtogh8PhOEkwb0OdO3eu3XM4TjzmpxxSeg4z9Cp4znFC0ZHRSM32Twmyej+ncjILRcMpMY6chHWZIYfd5IRi9uB7vS3pv/w0Wo+MmBtyxOaOeEQLuvRAQqaGEZntNSDW7h6273A4HA7HScrp0txDRz6r6HA4HI7IKXWltI4x93jMKhoy1Xd0p512WkgwHrenEytWVnUt0BIn+hwOh8PhcDgcDscpRqZb0NG3b9/Qa+PTfUIxKcaO0pC2XdUx9Crk5GYPzf8u+uHQHL3Wspaie/QI27fzkrED1D6wxDVheauNZ0CP+LD2bkrS4XCkgBkDzVjhcDgcDofDkRKZTiyOHDlSvXr10mlZTjtGgjEmJPKMI4bmU9+ezezx5GimnjF9dVWW2qHlqzE9e4btm+sRhK16qXrfmMDy1qDwjFGvRS28sH5XKaZXf65wOByO5HEvt3E4HA6Hw5EaGVIsmrecpsQff/yh559/XocOHgq96CF9SXhmMWZ4VfVOj2cPY5dogdqqha87K3ZU17YxWhQfb7S6dbKBzVpwplv66nA4HI5MTpx0TV6p40+Jf1A7yHfXSIU7SmtP0d9LPRnYvk7autfuOE4OIrD95Ni9WdoQ6Q+HHmP2T5WqZZN6/WsPnKRk9HEkw4nF9u3bh34OIzXBOGPGDD3xxBPasX277rzzTns0nanYXK2ig6LO4XA4Tg6WL19uPzmOiC2DzRvSErZnp9iAU5PuhaUGvaR9f+H0UJwHx9gAiP1Mys2xn1JyIPdL63BQU3IyjahYtUE6Xr/XNf9HaWgZqfOlyTg786W3h1LWzlLxdPKGPrsMc7gt8h/pP+WZJZ1dWip6r5L4HdpTCATSx3dJpXJ73TkHn+PLsxvtterUEsSp2n5y0Ec7V6E9L5Tm7rPH0kpKdZlGxjD2/HeV98PzhhW/I4IbMh5RqCz5pKb3S4tonyDzvpHqF/LSLtJE+mFR4jFn9zzp7vpSVpO3ItL9P3AsiUEpdhzjYjupfAE7Ntrjh3EMxpHUMOO1f+tJdryxY7kR2n915zyuGRNWV5FynIp1/LjttttUpkwZtW/XTu2uvjrRFs68efP07LPP6oILLrBH0pnY0RoeE62qoWcWK6pqUDia5xntx1QJvShniEb5a0tjB6j3kMBMo8PhOMZs0dzfv1Lfl5/Vk088oSeeek6vvPeDpsbhIZ+CmBUVGzdutHuOIyIKL2zlSmkp3ksGfPyzbFH7IVJW4NBVlh6mOpJj8M1SmYePk6jYJvV+Sjr/ERzHZFZc/9pbmna+1AHH0XGEVJBuoSvcdLF0Cv+evAYjdu8YJj07BlOmW694XcplwzRdqo3w6o8oOCWIwPaTBZHV+hqpWVtE0uE/IBARKdZlWqC+n+0vdeniibCdf0oXYGuLzsGFXoCYJY08n0qtXpV8Hb/tD/J/k1T9bWn5EulpBFK7VvTz+BOk51ojpKvTrMul8U9LnyIIX51mww3c1gciwKpdIk2tIX34mzS8k5RcdZyIceSxOd7t5+206AC0SNGs9nMayXBi0WAE47fffnvY5lO2bFnUeBb1799fffr0UaFC9I50I/DMYqvhajV8oH3BTUV17NpWP3S2YaMk+qKlmVq09a7zXmhz+H7P4d20oIv3ghsv3p4cdTgcx4Pdiydp3KSVylu3pTp07qrbr6irfKunaeyEeeZLZ0dm5LS8UunSUknuH0foVJ2U4BQ3PiLP7uQiboQ04ABO1fXJNE8czv8A6a7HpCoZqf2ONwWlR3DaB1x3CncDRMPHPyB6ESadzqIL0K2L59fxe3N+OpOq7acEF7R/TxrTXcp7JBWQjnU59XtpchPpXoSYuT7PedI4BOTEd6QmVaWaOMHd75IWjpdW2SfKJnwpLWkjvYNgLFtJegCh2ihW+vIvL3zbBKkvIvJ14jijrHTWA9KLjaS3uM6/l8d+Jd3M9r8pCMGeUoszGeaTK8MJGkcKlvJuPwVz2gOpUKbWEQp2S4YUi4a8efMethkaNWqkN998U/nz59fQoUNDx9IP87Ia+xIa88xijC8ULc16JoSFXmSTEN6sp3ed90Kbw/fNc4oDbdyJ4zVpprTvcDiOllxVLtU9TzyiW9s0UXTZUqp6ZiNVK55N+/ftTfPzICcD5m2ohQsXtnuZkUPSH9zds9fk/xbv0LZp3CC4817znbf/98tS4aukm8rhQHFXfhfvogTuQukbpf+8U1Jl8A3cpR+RPmjneV7ZzJqnIaFvrj2wnml4Gufj+Zjw0Joibss9/rThCYx/XMpNNn5aaw+EIKIPLpYKXSsts4ukln4jFaMcr8wI7YaWH/lRh23hzwGVJ/6Uvnhe8LlUziwty4GzRn5WWwcttCQKx+wXvK1Pr0iI31+65efh1l/Y+TRQ1AbSvzbboXNuI45nKQ6ZMEvMrn1TWhP+WoFZUkNu560+DlRjOGZm4C2q/kHpgih7LIw5A71lerdeQFr2mLnur3dxIKvZZW42ny//bcNh/zoc8cASu3w4bYctY6NMn+OomzjMMrfHf5OCxTDL5M7kutPs9d1HSnvs9aElvzTpPXUJpw5eeV+Kzs55TaXZtq72j6OObN6KUO93ck6ieqIdfniY63CGzVK7UDlos0EbbHhqmOVrtOndmG9Wrru3D/VdgLJUkEZQ/vhz/LjZklqmtxsn/elWUgHTnpxTpLb0Js66yaq/tNkc/2qh9CwOuclrEco+019TR3v81I12tHVdijoYiRiJr+pI2muR1O0iG26WLWJny/fYQJ9t1B9x1cFv4vIEyP9lJm1EyiZ2Hzk9IY3bfvJOiQja45enceOoQ3OtsYnrwmx7cm+pnr90knp6j+7rl9P0jcLXSDeU9NqgzxvUKeWpcK+0LvwGlITtL0cI5SHvM/citqjPLNRxLGn/wFAWv4TRL6st32FLG23405/wn35jbNcs8fxttQ33Sa4uYQ5tlRO7GrzK2zdt04Y6aUJ+w23HLGX9iONXUcbKARFWtgr34/CIA/zF8Fqf9ipM/YSIli6i3cdP99KYg91uqy/VDdz+GmAfmxCcC20mvnmRce5JqTPD8mSE95+MkzuD/TtAUuPIZvpzUdJ/ZaZtQ8rSHbFW6u6E9gq1g6ln+lclrn3f9osQtq5vu4exkniavoLwpxzGfvvMtuekgdLF7YejwK/OTEP37t2VO3dutW7dWps304IOh8ORFvas1T/DftbkTRV01nmnK489fKpRrhwiKNPCXfo8vIHnufu2/z9UDx7OWx3xJvDKPkR4+WzDm3k4Bg+poDSlvDQdTyluGB7ESntCBKxBDC5COcxBYb7fTOrdWfp1vRe2fazU+k6pYCdpwlJvXdHKFdKjeM4RgRd1+wdSizHSzSiGHcTxMB7JpXiH/4cSg4Zo4lC0SWydaoROCXHdV2jUc3EKcGSfHIQ4wAEK58dl0s849hNfQ/C8Kr2Og2MILYlCazczWhsR4Mc/0i7d8vMQWjKF07vEhq/EqaoR/DZ+qPSFqWqqauJLONgInu7D0/6Cjm1Ux/M4h8/egXNtjyWC5n7veaklwrRB4IR1pHXFAzjhXb08+OW41z4vZRzxflci5HA4X6XpVixBFOJUf4EpTQ26Ez+i3W/B+VwsvdaYc2+mee20xbZfpfM74ACT9gKa+jcc04GXS+8GnUCEQjvq9sOzqG88yAmYXNY/OBdzDNFQijF5I/1BXD8Hx/N26t13Nmch7q7FMW/9jjSfNELlwAFtmZbvh1BH9V6QRt8vfT1X+pb8nBGHoz/VhpOHObZ+uuLwHwb18WAj6QO8zG8QbyuJ49kzpDewm0U45WWvxg6szfyM6Rbh+ELqtCrlfMm+lGUGAvRqynDnz9Q119+yizJQ/75ojqS9erWV3tlOGvOluTj2uxBaV1I3Jor9HDfPIq6iHhdwYBtlXmX2/ecTEdufE7aS/JgiPo1I99N4HYERKSMRbi3ppnd9g3Dj2lG0/QzyMcq2Z9xgxAH1XNMunXy5DnWKoBsW+GJo0xrpBdrw/q2Uoy42wblxxDk1TPgmZfvlEG65EDzLqY9l2Fk1FMxqPm/bgLAirdDyYb+s5C+lpY19viAPCKjFE6XG8xh2Xvdm5FKtS6jN0Nf/HEQvfcM8Z/gZ7Ta9nTTkPpuHAPOpq4+x14fbpCBU6Mcjf6A8TRFE9luufTat+Qy71StLn1DHteiDPgfIW0jAYQ+tq9NPGNJLBGfdqOOxy7F98n8Bx2++i/8I7SrUZ1xA3IdIZhwpeBn9hDHvyZbERb2Mpo++lV8a8aZUzBbGHxOXTJFePFvqdiH1QdpB8lE3sz7EtrH/u+h/d1PGz35LQlgnB8L6K8aOcxnTi1Dvg2irMil9G5gCmU4s5szpzdnecMMNevzxx0OfHQ6HI3VWadzHL+vpF97WoNnZVO+yFjqrzHFcd+JIX7JESQ9xJy6H93MO3sCL3O0/x+sPOr65q3KXxY3JTjtXKS1Fma/qcTXS8hbtXHgC96CQKiLOOyBGa+6Qttjv7A/hse3l7h2Vh/NwV4qQRjJri5r+D0cXx+vy8G+Js1XCI+6HB4myqnuB9BdK5F28DOt95UJ8mSiT2vIHHJwzcHAaV+ADRTyvlRSdhLB4kFvm6Wbp1r04L9TTOiuQQkuicEhyosHzBNLzl5/5eQgVi6KWsOHmG+8c/tfxBuJ+uAvOH0LVLA97szlCDAGZyB+uh4NJFQ6/3ROiSTGiP02Ek3c5aSSFv0zvXkRaIt+JY2aGL4qy5ybyonapV3w9/UPV4tw9iiN6cxMcL6r+qpelNTMRgMGnWRA0j+MommVw91JnBVajnazinYAQ34Kz/AFCuqopJ05od5rt+98DTiDOfUnMIRt5qIzZFMzn5XM/5mLIxn4p8piF+qyOk/kEgnUEQsavp5BDzDl5icOYVSlb33mCdR0B5bgmG3ZU0YiNvFJhMrHPN/1AvPmS8CTXIVq+QIy8/hHONN2rdE3pvk9xjnHuaxBnqAzWZpbj1HemHJWph5to38U46yaZIW9Rh49KPbCDMlz/EuKxIMLz5zleGqm2F2L0rRjaC2HVvBpdDxvvhTD5G2E9B1GxApFWmTYogx2Y9QXPk34Zs88Wej6ROIuZOGlbU8Qo/ofslq1IpN8SrmNYYYi5Ake9u7EJrm1GHmIQVTfbL2tGf4x9XJGwdLJTT85hiPjmTytsDNRRaeo8O/VVsSRtS//LSjsfiD/BI0nb5/wG2Mo2xM1cRNo19MdVGMtcbPl08hAaKvyycl1KSxsvo3+a9qx0FjZOOqspnzHtVOvSQBq39pZaTJUuikb8zELMvIMdhAsY7Px76qsJIruRtygwSeYg9N7AVpL6UmgHQnvpCvp6MnNCBxhDli2lDuLCvoxCwE2hjuZhn7/9Jy0kjvmks5PtS2wpSLLjCDTtQXtjLx0Q9pe/S9t+yRgbsJl8xehP7OdkDLzwfum23NK4sJUepp3NGJDFtD1tZlZc7LNjQERw/WWtpQrEEcWtrBV9LH7GNY1kOrHoY55ZdDgcjsgprQtu767nn3pA1zfOpXlDPtaXY1eY+9opyd699ivYzEyuM6SPnserwOPo0QfPibtqenMarpjvSWThQzCJqIulP/EiNvZF6OGp5cZ7OBtv7F+7NDZSyrWX+qJQlm6S+j3nrVG0pGUZamoYzRyC/8ZpTXeI1yxF9KlxJs6RPxMQIeZV+08gSB68lepNKo902I+ewIlNYolqMZy+cTTHiqdIm+bISXiity3uktbjHDbA0Q2S3QrzeIwYsmmHnD3vY4g1sZQJ0WSWEfrtcIcRimkYSCa/hlgxj8xaZ/xyHPAgDSjbz4isn3CiyxelHEksezzW7ECYHMBRjg6K6GTsxghi37TuQ8DM6BaqwtAsUSGcZN9RzVZWaoiQmUd3NaTaXpR3L8ZTMCA4ytJ2Oe0sW0VE+y7CDyHKTDZf+4fPZp+tG3lPFxAlG8jHWaQbdLiDNmPEvXn2M8o/oQLCAvEwF0GZlvtLsraPkjLLcFchzmZXRzTQrxZRB5vIV800LjAx+fajNl8k+ERclxWl3tjrOoTaLR8gihFl4ZiZ1peXIcLaJdhFOIsQ4M2w8xsHYdv0AZ/sVjU2eNyzn+6NPFHsk9XmP2sDb4b6X8bHdXO92dEgN5J2AVvQqgjfs7G72cGZvxTGkRAc60H5ciI4o19GDCLW4kHAvoZwy0tF+YK6dxqH/ONN0HYdDofDkRo5i6tW8xt0ce0sWjrrby07BTWXeRuqef4507Mfj6TH01IlPKae90hTttuA4wW34NrXSiNj8FZIe/6vUtGvpZsG2PAI2TJG+r8fKQfeR2dUgv+2B4h0GepJAQ5YcKZkPs5v0DmNBP9V+3c3tAfCMMv03saBe+HuJJao4pk27EBz4BTuMbMww0gfh++ez0O6A4/be5vgFOMIhy5IOxXq8KeZ9DeCJ9gW/pLdVJkh3YyD+9AE8njQc8bHPmzDfHJJl+IsT4+Tdm4iv29Lkx7BAR9vw48DeXGWsyJIZvnPOB4BxvHfhGPtz/zsX0GZ9gQETmrtRVuZmevNCDafFXS1PYiXchFVdjqAUC1CPsYj1BJ6ZWKMgDECYptfUIalmbukWpUjtAlLsrZPfdXBJlb8TV9CtJRif9E0KZZ7V3lE9nGFcr78EEK/kvTZXYFnYAP8iL2WeVK6qoQ9EARVNxSBVu8OxOYv0gdhs3r1L6JvIVg3+nU5n7qn/ZtSJ6aaq9SX8lAP/wZeBv4v/aJQU6maOcHOwq6m38Szk/hoPDPD75PiOGJgLPuAPrenvBRDfw0+azjjPUQs4nDCBmzbCGpE68MFbeBJihOLDofDkWb2aN9+Rvn9+0IOm+MU5BDe5Wvt8Mo6c/fGk3twq3RXL28NVVrIXkxm+aQGfoNjskpaOF1aEqHo3LsUT3cy4o7rVpPwzvVSHJ5NscMfAkv6BTewnzg6ITjr4IHEIDbrfi89+oP8NY2RLkM9aorgbOFM/fIFwmSRV6R5/A/OjJSqhrOKg/f5JAQS4avmeTM88bD/bB+qEPE06SOcynHSlRdLiVbFpfSCG0TD6x/SjAiv5H7v7IfXcdpxUlsl8dIH84jqaASqydtazGE3YmsFiRTy34R4unRfY+mVa6SeIwgzZWCbhON9WF6S4VzETW2c2Q4vUU77wpk9tOnuPGkTxf/iBK8lf2Pfpc5+xgwxg3HkfQfD0uqZ3ks5TN424uhuRpiaZbCFw2dxUqrLVDA/3G7iN9t24t5Pd1pt9imTEdLFLpRuwibuuoT2xsRD7U0ep8z1xJ//m5tmGelOG1f4S0TaIgpWvEpdj+Z6bOOJbpQDZ7+1fSYx1fZqRLeOll59gPMWYl4jpW7UV/1baIO02H5RhBvnf48Y+wfBavK6AFtLNPQnV5cMDzffRDfH5roiYhdh2+b6mVMSBE3z2xEiQ6X76TsrqKP+PWhX7OH689JgE6nYfrUGnEIeiyMWK1WRlg6SJpJGKTvUxD9zyLbZrGfGbtaYfWzTzM6mC1TMp9TFx5RrAnbwBoLxjsdIN6CizU9fvIa9PEg/OayJsJm7KjImICYf+x2BRduG8sjmPxd58T1S5WEJdfk2NjSxAnVpn1ssxnhyHyL84ftpA9pykolronTv9XacoW5aMk71vZchnfoyY9TL/ydNI10/DkNK44hh/FPS/zGc/4BIHET7Poa4jX9xkwFbnY/YjCP+d2+VfsZOlmITUzmWluouQb7EmDqQPh/sX+mNE4sOh8ORGhv+1fjRUxSzIk5xcYs0ddg3Gjt/r4rXqKOquew5jlMIbsd/vig9jYf0zXN4aniXT36Lx/2ydKd9G2qkZC0jvdgPT/V9qSaf65kf8cIzjYRNf6Mazk9Yi3T23dz98Uz63WhPSA28L/Pr16PwzN/DC8tVQ/oAlfUL17/hvQ31uBGFQ4Rero+jdy7OlinO6RQl6AheiGP4FM7+o+eir02REV9jcZriqSNdhHPauDxVgYNf9Vmpd/vIHZWpOIi/1ZLubpa0k22W6b3wm9SDak5qieoanMZrz7J5YzuP/Fd5hqpsa/OQDUdzuPQljuUHbOXsea1p+i0RenjZcNrHIJbPxRG94gzv+hoXkW+c/Yjg+s8x0z8pg0m/E871Y+Qz23gcV5zZ0bsQoQOlS+p5cZutXX/pmk9wwBFP6cX0VxLiN0vo/n1eKm/2Hw6t1g0tq+yNA/sCwu5R2iNUpzjp9yPYjJgK/eYm+RmLMPke8Wbi+T10YQINEIeDceo/pEuVpV0/yy2N+BEzMTNAEEl7dRtCmojk1nSNWthSbs75MYkXqqQI1/Z5Dycc+zqjnJfWxR/Efx+TKpf1ln59AUf+Ual6WZtXyvWfVZWlrkZMvoOYxebLUUfdERi9sdM2yQiRpEjN9guVoNxf06eIP0tJhi36wlb6YiVbEfHPHLI9YH6x7Xu7fxmiJpH6PXLmMEx2miB93Zd4UWadEd8NEa1t7QuHDCOoh03YQ3vyeRg7pOX2y7xnAsOm2fznIqM4/jN1scDW5fMbEWv02Sb+UmTGqWd+pu8tIG3asil2eyt5eKJJQr09MII2QITdQV8zPznxDiJvOOLUjyO1ccS8DfVq+seL3ErMNZf9D+G4FRH6EHoXJdcAQfsyY9/dJn76wB8M3/9XHYHJLanx07b/RMhF9JG7ac/bacsy2Ol1A8xX2elPlo0bt6bXdwZpZknsGtWqUdruORyO4830GcFX8CVNwwZm3VQCc+evUuWKSa0P8fp06VJJLeBPO/ny5lVUVBIPNJwIFo5Uv+8naeWOfaFv/bLmKqoKZ5yvVi0bqdTxWs4UIeZZxIEDB6pDhw72SNKY83LkSM+pJYfjyDHPVp73i/QPYrNumjx5yzZvxmA1jvm31yUtMH9FJLRZjZP+LZrcfVXuyChEYPunBAi+cxFRl/4pPR3pC6FPAJlxHHFi0eHIxDixmPGIVCw6HCcTRy0Wd0txG6W8RZNfXrs5jv6RVyrmL1N0ODICEdj+qYBZCrtuq1SgVNrf3Hs8yYzjiPtuzeFwOBwOx6mN/SmHlJxl8xMf/s95OBwZhghs/1Qg9HMqlONkFoqGzDiOOLHocDgcmZDVq1fbTw7Hiefcl6VDM45wVtHhcDgcx4wMLxbbtGljPyWQ1DGHw+HILJifzlizZo3dczgcDofD4UiaDCkWjRgMF4SRHksfYjWgfbRq1aoV2qLbDzBvNU6BseoR3V4DIn0bWqqkd3wOh8PhcDgcDocjs5HhZxaHDRtmPyWQ1LF0I3aA2ke30qKuMaEfvTZbTC9ptHkVscPhcJwEZM2aVfnyuZcHORwOh8PhSJkMLRb9mcPg7GFSx9KPWA3o1kvV+8aoZzN7yFCxozoG9x0Oh+MEU6VKFfvJ4XA4HA6HI2ncC27Sk9jRGh7TVi1SEIZjewSWp/ZIZroxNDvpnRcd3UPeWXZp6YAe8de3D64zDVzTfsASe9Aj6TS9+Hr0aB9Iw+FwOByODEKcdE1eqeNP0kF7KJzvrpEKd5TWJneCI1W2r5O27rU7jpODCGw/o3M87TJDjCP7pRerSQ16SfvsIZ8MKxYHDR4c0ZbuRFdVRfsxKZr19Jen9lPbIb2TeK4QEddquFoN986L6Sv1jj8pRr0WtfCu73eVYnr1TxCSrbwZTRPWS8M1JHTcI/k0Y7Sgai/FxPSUm/h0OByONLCF+0eWLAnbs1NswIlmmlSe/AzcbPcjo3th6yT8hdPD5Q+OsQEQ+5mUm2M/7bQHkgJHYx0O6oYUzjHO26oN0vH6cef5P0pDy0idL03G2ZkvvT2UsnaWiqeTN/TZZZjDbVJKVZWhmCWdXVoqeq+0yx46JaG7fHyXVCq3151z8Dm+POZ3DFedWoI4VdvP6BxPuwwfR+wYmtx4aX5TNnjrSHFcTUdC6aYwNm1jzH/7P+mxmyXzUur9K6RXEMGmT2R4G2p39dWhLfzzMSNmUcovsxnrzwx2TiTo4oldogWIuNdaejOBtTr/QJR+jNHq1snKumYt1JYzl5ggc010N/lBFTt2JSxAsmlGq1XzlKStw+Hw2RE7Q3/98beWhRyGWfruxSfUf8yWUNiphnkb6qxZ3E0dR04UXtjKldLS36Va9lgGomxR+yFScCxuriw9THUkx2CckDIPHydRsU3q/ZR0/iNS/WR+f+7X3kjr86UO9e0BR9qpIN1CV7jpYs/BPFUZjKi4Y5j0LA7zCrr1itdDP1/oMV2qjfDqjyg4JYjA9jM8x9Eu0zqONHzMu3VMe1vKaY+dDHz5rJSti9S6ODsoyqcvkF5YJL02NhOIxeDs4TGZSQxSsblaRQ/RqOTWdJqlojREv9As3wh1i7bHD6OtPcfbYhI9AJlGIk7T4XCkxJJpIzVi0hJtc8vVHIbT8kqlS0slC3GHtccyAjjFjeO95FOXuBHSgAPSY9cn0zxxOP8DpLtw3KpkpPY73hSUHkFkDbjuFO4Gy6WPf0Bc9Jc6nUUXoFufyj+6nqrtZwaOl10ewTiSi7yZW0cR/p8sNrZ/qvT6ZOmpe6V8JlN5pOfHSbMnIribZLLZaTOreGwFY0V17NpWP3SupUSPIyLYBpj92EWK8Zephp5vNB/CqFhZ1TUksPQ0Asw1Mb3U36YZO6B3wgxiJGk6HI5UWKV1G/YqS6GiKpcBHGnHIekP7u7Za/Lfzg5vmyY1yild8523//fLUuGruFOWw9vgzv7uO1IJ7qKlb5T+805JlcE34Hk+In3QTsrLtdmKSPczOu+34eZpoml4GudX9cJD65K4Lff404YnMP5xKTfZ+GmtPeCz5V+pa2Pi5to8VaRBiTMXvuQpuPXi0iDliT+r/ZwUCz6XypllejmkJuRnNQ6pwSxhzVJJ+mW39OkVCfH7z774ebj1F3Y+DRS1gfSvfTjGXyL1y7NSITKRJZ907ZvSGptGPLOkhuj0Vh8HqjEcAga+RdU/KF0QZY+FMWegt0zv1gtIyx4z1/31rnRWNeqaZvDL8fLfNhz2r8MBDSxXzFeKJkVo7A6uraVMn+Oomzhy0OSP/yYFizHvG+lMrjvNXt99pLTHXh9a8nuxdE9dwqmDV96XorNzXlMcN1tX+3HiCtm8FaHe7+ScRPVEO/zwMNeVpT3teabNBm2w4alhltHRpndjvlm57t4+1HcBylJBGkH548/x42ZL6jmn3bgxT7eSCpj25JwitaU3J3h14S9tNse/Wig9e6aX1yKUfaa/To72+Kkb7WjruhR1MBJhF1/VkbTXIqnbRTac+myKnS3fYwN9tlF/xFUHR4nLEyD/l5m0z5M2sfvI6Qlp3PaTd0pE0B6/PI2rRh2aa41NXBdm25N7S/UKeeGmnt6bkVBO0zcKXyPdUNJrgz5vUKeUpwKO/brwLy+Ts33y8M3dCXYbXpdzqMectPngVd6+qbc25LcJcYXa1dbFK0Ol6xkSje0WQUT8wHmhOPy64njbr6Sxth+bsr49MyGdlGzfsA67ug7BXsLGZbY6DMX+CuDd86SHL5PK2ro0W44O0ob4ykrdLjcjiq6r59lbqC3ek7YG8mDGs9veljrX987JV136kHEncEo8SY4jliVf2/GSgOrXShPS8tPGqbRXqP8wfn7yqu0fYWOyYSZjZH1rU9W7omuxjeT47SNua9zu2lW2ByAb40dF6+9gbpmLY74MtVlPzR3xiBZ0CbxUhsGuuZkcbNZJ3dRLLUPHFql6krN8zdRzOBf0apVwfXIvwomHa/p6ItWc302tEpahRpSmw+FImXVav26fChQudlItGzlSzE9nZO63oXL3PO9J6Xm8x/b/xx0Wb/GtjngVeGUfclf32YYn9HAMHm9BaUp5afon3HGH4dmttCdEwBrE4CKUwxxE3PvcCHp3ln5d74VtZ2xvfadUsBOexFJvbdLKFdKjeM4Rwd3/g5ul/vz/ea4UMxj1hecTEJT+kqektk417ElwHQ5ej3NxCnCenhyEOMABCufHZSSDYz/xNZw+nJTXcfwNj80hPrR2M6O1cWL8+EdSLPNlu5+Ht819EKd3iQ1fiaNYI/htPI7oF6aqqaqJL+FgI3i6D0/7CzrMszfPT0eA3IEzaI8lguZ+73mpJQ5tg8AJ60jrigdwwnGsTB78ctyL8x6Cau53JUIOh/RVmm7FEkQhAvcLTGlq8BHRH6Vlt0gLF0uvoeNfpYkm4PwZtv0qnY9zW5m0F9DUv72Ic3+59O5sLzwEQqEddfshTvPPOH8TMLmsf3Au5hiiIU1t8kb6g7h+Di7D7dS77yfOQtxdi/Pf+h1pPmmEyoEz3xInOGJQR/VekEbfL32NaX1Lfs6IQ0xMteHkYY6tn6447odBfTzYCPPEy/wG8baSOJ49Q3oDu1mE914WV2yJtZmfEbtFOL6QOq1KOV+yL2WZgaN/NWW482fqmutv2UUZqH9fNEfSXr1wht7ZThrzpbk49rsQWldSNyaK/Rw3zyKuoh4XcGAbZV5l9v3nE3GWPydsJfkxRXwake6n8ToCNFJGItxafiDdhVBazrWjaPsZ5GOUbc84uu1l1HNNBMpy0nu5DnWKaB4W6MebEBov0Ib3b6UcdbEJzo0jzqlhwjc52//1EakD/Su0zJY0XkR0Xh6oy9oMS/3PQZBit4uw1c+o0+ntpCH3JV7G+S5t0h57NO1xPW18NcNlKA5bV6aPL6G9fmUcmcJY8QjN7v8AAPvXSURBVFRVRDZ92bz4JVXbX8fQd4U0nrx9OyWhrkcjiv089GH8eJd2eoe4zHJhEx5LexqBGCI1u8SG70Vsjq9J+RBf4xGiEyjrg5QpOM4MpA/V74eAopy3EncXbg3LAkIsRDLjiE9/7Pv7f6kP7P9ixGYz0lkT4WCWWnuFoN6+2CKNSGJMNjOF19yFDWBXpq6/Y2x/93sv7DDoGy8gLB9lvE3u2e1MIRb92UTz/5gvRTVU7KiBMYHfWRzY0b70pqI6DrQvrhnYUz0HDlTHUABiL8b/DOHXh5ahhp0Tvm9Eqj1/YMeOgbAI03Q4HMnz3xqt35dDxUqWS3iO5RQn0//OYpYo6aEPpXJfSOeczt2Yu/3neP1BByM3nk4R3JTsKJoqpaUo81X9IfPQpxceCbnORl3g4VQsx90fj6PmDmmLnTo5hDe7Nyvx5uE8LKsIaZj1SQUP/0qi6f9wdHFiLzfPk8QzT/oSMXv/W9KleD8V60l34CUGLveXPCW15Q84OGfgQDXGIRFFPK+VFJ2EsHjwcel0nMKzcN7uop7WWYFUsBTx4RzmxKnKE0jPX8rn5yFULIpawoaXpiw5fCfPQNwPd5GqIVTPQgS82RxnCIcpkT9MEadThcNv94RoUozoTxPhKF1OGknhL9O7F0c10Uwqx8wsRxRlz03kRU25iCO+nv7B4cKJfRT9f3MTqUwl6SqczTUzcYIL2XMMOHWPt6Q4hN9LnRVYjXayTuIEhPgWHPIPENJVTTlpru4X4FT+HpgB4b5cEnPIRh4qYzYF6aomn/sxF0M29kuRxyzUZ/ULpScQrCMQMn49HSCiQ5yTlziMWZWy9Z0nWNcRUI5rsmH+FclPrrw45GRin2/6gXjzJeFJrsPJ/WIDzutHONN0r9KY532f4jj/INUgzlAZrM0sryx1phyVqYebaN/FOPEmmSGYddlHpR7YQRmufwmhUhDH++c5XhqpthfO+lt0j0cRVs2r0fWw8V6In78R1nMQgytwByvTBmWwA7O+4HnSL2P22ULPJxJnMRMnbWuKGMX/kN2yFcGOIwIB9DlDzBWv087GJri2GXmIQQDcbL+sGY2jvhmR9M5Nns106sk5DBHf/BmYzaKOSlPn2amviiVpW/pfVtr5QPwJHknaPqJmEGWOX2ZLGncgcC6gbn73v4CgrLf2llogMi6Klu5G3HyFUC+VqINwDcK3HW1k2vNt4jPtEYrD1pXp4//SfrcjPquR53aUSYsRi7RVJLa/FyM2w2zu3NhVUa+ug0uC9xGej7Ibu44f27CjeNNOxS6Xj5Z+YNx6nbKdYcYy8vIcLvbHCPntgbqs3FG6zdQV5fy/x2h/+nD4IyjJjiOWB7nuLG4hlc5gXDNx/MjYFSbukySS9jJQaV2IN6kx+R/qdCljx9s9vPH0jBuIg7IkxVRE5GTGs1sbBeoxjAwrFv2X2aS2ORwOR2rsX79RG/cXUOEShzvxjlOYXNzFP3qeuyreTY8+3HXxeNKb0/CMfU8iCx+CSURdLP35pbSxr1QXTys3HujZqKV/I31x0m5pAx5DoYDwL1clkeBNyzLU1DCaOQT/jdOa7hCvWfblU+NM/CEjfOx+JJhv1J9AkDx4K9WbVB4RXB89gQOWxBLVYjh942iOFU+RNs2Rk/Cm93szLSF2SetxDhuErdDJ7k97+BgxZNM2gi+YjTWxlAnRZJYR+u1wh3GWrRCMhMmvIVbMI7NW2FyOkx+kAWX7GZH1E854eRzunDjT4csejzU7cHgP1JWigyI6Gbsxgtg3rfsQ4zO6hapQ+xB0hRAEvqNqlsU1ZAieR3c1pNpelHcvxlOQuvIpS9vlxO6XU98VES67CD+EKDPZfO0fPpt9tm7kPV3YQRclH2eRbtDhDtqMEffmGbso/4QKOPeIpbkIyjSYRfK2j2iPpS7NEnGz/DNkd4iY3xEu/hcQISpKvbGldUsRKh8gWAPDio/Jtx91NvLZBHGWKA6DEba2QaMRxntnMLxxXaq2XwxxP05qvQLRipAuQFub5ZfxS13hwVGIf8a3OxA3RWnX4NLmSDDf85m4Qt/7WapwG9BcaVmgHMF+mzWsD4fg3OTGEZ+SgS/2QnHQzuHiPkkibS9IbkzexS3kAEadN2B0VZJ6AU+c9OrL0lWIzcp+XGGYJclB280wDBs2LE2bw+FwpMSyuDXam6uQ8mfdoLi4OLYd2segf2D3em3YGeG6kpOM1atX20+ZmP3LEIlPS5XwVnveI03ZbgOOF9yCa18rjYxB95H2/F/xgL6Wbhpgw1MDT83MfG4K5Hv5Ym+axBLpMtSTAhyhoDM1H+c36JxGwpjPvGdv7m5oD4Thvx7+hbuTWKKKs9SwA82BU7sHsTMX9yA7TvM9n5MvE44DXxS9P8WIitAFaadCHf40k/5G8ATbwl+ymyo43jd3lx7CQd7D0GOEzdiHbZgPZnHp49J0HMGdm8jv29KkR6SXx9vw40BeHOisiLJZ/jOOR0B2GmjT5oTlgeZV/mZmpibdNURq7UVbmZnrzQg2nxV0tT0IwXIRVXY6YAQN+Rg/y+YpCbIa4Ug542euGJZm7pJqIbrSks1kbR+RXQebaPYmw0PA5syWaAwgDy8/hGarJH12V+D51ADBL2/M8DkZYW6EVSREYvvFyPubIxnCaOe1CLgu1M3VDM3+EtBcCNrHv0fjUD+bELVvny090ob69b8gSIWstIUZT7ZhLz6LZ/KnFvlLQ2WnOI4kwTzTXy9CNEfyfXOk7ZUCuc3MM31/R8A9WRx4ltfH/4mVR7GbpARh7FDpjHoZVCw6HA5H+rFD6zdtRRgu0KgPeqt3b7P9rBhuTiv+HKBBkwN3nVME89MZa9ak5Wn7DMgh2u21dnhlnXHA8eQe3Crd1SuR0IqI7MVCN3cN/IY77ypp4XRpSYSicy/ezsjJ3kNSq0l453q8IDzbYoGpQUvSL7ipKd0YLb3zoPTLPO7slKN/v9AMmE+ky1CPmiJStXxk4wuEySKvSPP4H/wivFQ1HLVfpM8n4fgQvoosmxmeeNh/tg9ViFM06SMc13HSlRcr8XPCFDHZF9wgGl7/kGbE+Uzu2ZsfXsf+cYRbJVrO62EeUR2NQDV5W4s57EZsrSCRQv4yuNOl+xp7vz3WcwRhpgxsk6YlkZdkOBdxU/tPqcNLlNO+cGYPbbo7T9pE8b/zySP5G/sudfYzZogpjSPvO/DkV+P8/olQM3nbuBMNgHNulsEWDp8pSqkuU2E3wsLEb7btxL2f7rTa7FMmIyaKXSjdhE3cdQntjYmH2ps8TkEAGP/V/81Ns4x0p41rp69CLG0x6xWvUtejuR7beKIb5agvtbbPJKbaXo3o1nSPVx/gvIWYFyKkG/VV/xbaIC22XxQtwfnfI8b+QbCavC7A1gJ+ePJ1yfBw8010c2yuKyJ2EbZtrp85hbaxETS/XSqIU34/fWcFddS/B+2KPVx/XhpsIiXbRwR1eAybeFR6CVvZYNNdS/3n8euBTH9KPj8mzQm00Rtm6SPXxIUp3B9fkAZRVtN3n2FM2kKfPrcKl9vnPzebZZbY3Bo+h//maqq2jw39SVuH6ojj27nHxlHf2Qsx9tmKmEkb/mvbYCfhy/l8kPbxl5ymZpflmktXMSY+fD9xce2k/pRjrHT79cSRhg6Y0jjis5lbrKmnr6ina0jnrv+TyiNWfYqU8ITmFwO9sSTeJiJpr1Q4HWFaiX7/QE9vPJ35tdSPdksEdfPJa1IT+llSP7HyM+WrciV1T16cWHQ4HI4UyasmNz2ll156KbBdq3q5pQoXP6pOFx7u2DtOdnAb/nxRehoP55vn8NTwLp/8Fq/kZelO+zbUSMlaRnoRgbb7fbQbn+u1lobimUbCpr/xCs731hKa7ey7pRJ4FP1utCekBl7FXXignfjfupYUfbV0Bl5QSRt8PImSHkMv10cYnIsDaYpzOkUJOpsX4nQ8hbP/6Lnoa1NkxNdYHPx46kgX4SQ2Lk9V4OBXfVbq3T5yR2UqzvZvVMPdzZJ2ss0yvRd+k3pQzUktUV0zUbr2LJs3tvPIf5VncJzb2jxQzfcNl77EsfyArZw9rzVNvyVM6CRHtgbSGMTyuThuV5zhXV8Dx+43nP2I4PrPMdM/KYNJv9Mf1Dv5zDYexxUhO3oXziHO5yX1vLjN1g5H9ZpPEE6Ip/Ri+isJ8ffeggP/PI6w2X/YfleBQ94b0foCwu5R2iNUp5URRDj7RkyFfnOT/IxFXHyPeDPx/B74ksPQAHE4GHP+kC5Vlnb9jDF3xI+YiZmJg0jaq9sQ0kQkt66B4MOWcnPOj2EvbUkVru3zHqIE+zqjnJfWxR/osLdsJsdlvaVfEVlTcP6rl7V5pVz/WVVZim478h3ELDZfjjrqPpu6w07bpCBEwknN9k1dTqIMs8iHX4aLnkBj2jzMYQjrNEH6ui9hOaXOCOOGgxDs9mVAPlciKAe28drjPQT6l4iZRggN//nPB8z7GL/3Pof/5mqqto+4euVaqZqto8oI14kI0Z/esAIY+xh4L0Oszb8ZP/pz7BOGbpMHQ6p2WYq2xAabIuIaEo95O+45tM9blCnScSa1ccQYlxGvt9CWJo8v/UMeY6ivVonTiKLsHxHHqNu9vnzRdQnPNKbWXqmR7UyaARvdi10Zm7v2L9rDPD8awDxz+c4m6RH6BV3lMDYgNo1OnUafyrJxY/CFsceXJbFrVKtGabvncDiON9NnBF/BlzQNG5i1IwnMnb9KlSuWsHuJMX26dKlkFvCnkXx58yoqKomHJk4KzI/yf6fN5558YnHv3r0aOHCgOnToYI8kzeLFizP5G1EdJxPm2crzfpH+QWya55vSzDaEHM7Zahy/b3G6knL8fkUktFmNk45zWSJSz9DhONmJwPaPGgTdZQjEkt8hfC63xzIpGWUcee9c6Y1LpdlPp76U1g2XDofDkWbq6donXzqlZxWdUHRkKBCYPWZJHyXz7I3hzB7S8o+SX6LqcJySRGD7jvQjQ4wj+6V2A6WJ3SJ75tLZlcPhcDgcjlObXN4r81N6DtP8xEfwNfwOR4YgAtt3pB8ZYhzJptBPnUT6EzBOLDocDofD4TihnPuydMi+Yt/hcJxkVJRGmucDM/kS1MyKE4sOh8ORyTBvQ501K/zVaA6Hw+FwOByJyXAvuGnTpo39lDbc7y06MiPuBTcZj0hecGPE4uzZs1WvXj17xOFwOBwOh+NwMqRYHDR4sN2LjHZXX+3EoiNT4sRixsOJRYfD4XA4HOlFhl2GumjhopAIDG6zZh6vZVexGtA+WrVq1Qpt0e0HmLcOOxwOx0lB1qxZVa5cObvncGRePm8tFb1H2pTM1+YrP5eyF5VGbrIHHA7HcWPfBKkMSuXdefaA44SQYcXiY489GpphDG7PP/+cDT2GxA5Q++hWWtQ1RnPnzg1tMb2k0eaHSh0Oh+MkoXDhwvaT44jYMljKkiVhe3aKDciYjH6QYjaR5h2UHsyJwHpciv+9/cXSBdmku0fa/WTYtlZatdHuJMG+bVLcKvvj2ceDOdIb5LkbYrFQMq82/P4NqWo3qUUhe+AoWdxfykZaI+Mrz3HCGC3lDHTh1Ox3+vtS/eL2fPrArydZG6bWv05FRg2Q1neQbqphDxwHzPiWmi1kNtwLbtKVWA3o1kvV+8aoZzN7yFCxozoG9x0OxynHrO9e1BNPPJFoe23QbO224Y5MRtSl0sqV0tLfpVr2WCaiShkcZvs5Ur6+RirTPSAyw/jva6kc8Y47Tk74z29KMS2kG5JZjb31Z+nJGOnxG5yzlCE5B6+NLrxysnRWVnssGVZim03vkWr/T1pkrlkuNUvlmuNNav3rlGMO/e9j6aEUvsxxHB8y7Pj3yiuvHrYM9ZlnnrWhx4jY0Roe01YtUhCGY3sElqf28Kcbx6pHdHsNGNAjPqz9ALNw1VvOGn+aYWyP+GWtSceVeAlsomsdDscRskFbt3MLLnueOnbtqq52u/XiasppzzjV2Lgxg30Ffbw5La9UurRUslDoN6syE9Fn2Q+nMjj8fT+Vuj4mVUjGEf2xr5Srq3RdBXvAkbGwv09YukjqP0z+y0fS/k7Shx2lKuaa4qHfwnccQyZ8Jc3Cn+58rj3gOGFkWLFYtVrVw5ahnl7vdBt6DImuan6OJlma9fSXp/ZT2yG9FdKEIWLUa1ELL6zfVYrp1R8JWRHHtK2GjEpQfGNHDVHbrh1DaSQZ19j+6lW9rz0+N/EMp8PhOEJ2ac/eQ1LWXCpaqpRK2a14gZyn5A/zmhfcLF++3O5lRmjLP1AJ2Wvyf4t3aNs0qRHS/5rvvP2/X5YKXyXdVA4xiHf47jtSCVq79I3Sf94pqTL4BqnMI9IH7aS8XJsNr/T+IXidNlwHpWkDpPOreuGh9W3clnv8acMTGP+4lJts/LTWHghBG7YrIN1yt5Sf685+XnqiIXHkkd74254DG2aiis6R8nCOSaMkn7+bF6qG8KV4wa3Ju6EcJoBoKs7x5NhHlFeW9K4tioM3bp13PLSElWN3j2fHLsMMpWGXtfp5qEoxzKxIS8S3n4f4Z5XsOV+Pkk6nyCasZgdp8nobHuBVmjXqSmlZCq/vm4UjOpJqv7mpPRDGvll2ierNIU0Rz9px0lVnUg8c9PN4xhuBetonTQkuV4ySLvw/aeleG26Z9yHNYOLA5M59SloXyOvuOdJt9UnXv57wOP96u+S34z1eeHPSfriSd94H8+055OFe4jXp5yzK9dTrlLB6mvO9dEkNz2z8ctz+k2cSkfIXade2bVEU9+qjf2yAIYL22octv9jC5oH8nk74PzttIPS/ABt8UXoZP8aU1ZTlKerfz+Os1xiSOfaTtbN9lP8iTP88RL5pj9CS35bSPdWJn/p5g3apRFpRzaX5iQw7dTaspp3rJC0qTbr3kdck2yvQv16YTB1hl+a8KGx0pM23WfZ4o5k9I2+VHpJeJ3+mPh76LaGsfemyoXYi/oaXS8OW2gBItX8Zdkvfd5VqlMHx98NJ46etNjwCUiyntUsT77UDpd8ZrwpQHtNm/bDnEBul92/zjpvrO3zJcEgeklzyac59m3PIc3niDBGJ7fP/HJuPqNLS5U8n7nt+XWWh70+emzBe1aTeg30wyJpvuFVwzkD7/aqxyyx2rDIctrQ8DWNVstCHJ/fD5gLjSPOHpViO+8wbxK3DhpuyPkO6fvCi92jn1ghtymmufYs8VjC2f5G0wJbzfuqpM2V7FLsOxVFL6jPVCwvB2NvEtBVh/HOkKzGLUn6ZzVh/9rCzcBkCRKtbJ6vsmrVQWy3QEhOR+TxkFMLRMFajFnSTf1qScVWsqughXezMpMPhSFd2rNafP36tL7/5UWP+XqZtaXQ4HCcL3P3Oe1J6Pp/UHk9+9Tbuph2503aXPrzWngPbFuGNxEhPF8TbLi9N/wTvaBh38ZX2hAhYgxhcdD3eOQrzfQbv3p2lX63XsJ2RvfWdUsFO0gS8P7OsdeUK7t6okbSQ4wo85y9IYzhe5694mfmlz/FUzBrp/XhP16HcRuEJ/MbdfynC8R5c3qc+ktbj3fhL8ZLYfro1wUmocQsO6qPecrBmL0ivXBKqxUR8PxSRgoO7+C+cJLRqB5w94z+d84wX32tmRvImJK6fBuKkiknA5mGycf7Z/RoN7Ofh1iocCPDy1zg0M7w0SnPja00zJvdymmTBQX73OXQ25aiXjBc0CqEcg8bvGFyiugZnuRWmgMgaPD0hj6NoQj+aWW+h2e/HiaPsZrni9I+lLVT15+Q5mM2hq2iOJQgu8vA3guhthEQI8tYVJ//X2tKfmN/iX6Rin0ltETrB4aYQJjWrjzT+Z5w+mvSWPdInvyec8wwugMnbxO+kBjiA59/Bvp8B8n75ddIuyjd6YUI5Xr/48DZNDrMsswXOa32c0pU48c9Vlu5C5IS/CCil9upzKQIKcTgQkbkSe2mBeTanOwbbcyb1ubuHtIQ0XkCQvmicbuuU18Px70f7tMc2lyEIPrgL/5bPP9DF4puVsl9P/H3qSj9jXDPJw54xiBnqPlXwvNfGSatoqwUL2KVtzDO1Zn+tL7I45yUEaX/yNIr2moPzvbFnoL2sbd+ZnTiwg9kMM0sQT5dg4w+x77fX6kaYF6Jp1eeIQbrxq9UQiOTVD78BYWDaaA720CGXdMV50iRbD6n2L5jei2HgA2weAbLQD2fIuZihIiJSKyfD4/eUyeRhEemOLifN4LxHyiKGX/badMLriBPs4RGGvZWzpJbYxTcB8RNkDjb/BXE8RH8Lt8kUbb+CNIih1pTvl3cQlZ8y1D+fIOxCdUVdZseePhpM/2a8mkMfXY6dfZTMOzBH0Sb7se0z0/jc8tGMVTMRwmdj3xcwDi2mLNO5jWyi/b4gPsO+SdKl1/DhAW+c+Zq+/AJC8H3sNJ4p2A23r3ejsX2E4T+UdyeCcnTA9gfShhWwCdOHnyjB2EN9/7LZBlKXQ7gdmbpMZpjMeIQvSfW3dKVic7WKHqLARGBizMtvujC4hWb9RqgbDZg6zdSp2wL1RvzFDuitBa2aezOXycVVsaMGxsSol7q5ZagOR7qSRTl2rtGKrQe1e+1sjRn0ofr/8I+2RTj4n0yYt6HmyJHawqsMjvm69aEPpXKIrHOMF0p9fM7dvIANN+SuKhXBy8vOndasPYviGuPyH/BdjwjIdTbijLt6RTyfDojRmjtQD3b65NB+aS8ebFQezsMDLEIaZmlrwZxeeICm/8O5x0m9vLg9EKRSKSkb8WTh7l66MNdTlv3EbWxzHh7o+CKIYNTLOdXJB971s3hIs19FhXANyYaW4iWxFQ84kmUa4Ozg0BrHrXpT7kw1D3firnkIh7+OVBkH+fHbcXztzEkunCwTX35jchQ1Pj1/KZ/NQxGbXkGK4+chf9hav9u7IXwQkCaNfjjAm3H0pvketeVRRMe2H/F1klE+Kwn7lDS7tDm8DCFwjkJLVLnHhs+k7kOU5McMTHPlK+blMVhPP+B0VsKM3rzBM5kG7b0ZhadxooNRPYQp1CH8HOrsduplnXXQtnLP/gwH+iNMs5Et5wuP4SzinC8JlLNiSZocsxQmWhabNSJ+v2+W1Flx6jA3x0rSTg+Tn0MI+X/96zEN/GvlN2aXm2ttXRfmc6SYZZk7Met3cNxLIxTvfUU6izJ8FzYpnmx7IeA+ZOtFOY3NlMaHeRkb3xbWnnuvkLq38NJ46HEpB33A92VNOTv1J/5xnj12xeH9FjMvFqxo0i5J/Wbj3KoIlwL5vHY4ED+7nwKIjmvotmXKkFfa5G/qsSyfzf7l2EcomxMR2YiuJ0m3KWlFt0Yw3YOfTjnmmhOsbZuFAyOwm5ev9Mp6G3Yxj+v824fJWw7Tnja/BeiyewNCqhDtGUV4QRzAGx6RmqxBByP0Dan2LzDDgUg/D/nJzRYKZ4u4yVMrp7U5k4e/ERid6DtVaLNrbyRt8rmGgo76BDugDrszfpj2vJlzaiWlQij3V6/Rpg/Tfw4fClO2fVPf9Esz01cRm3vkPtL+FYFsbSpUVwU9G4g6V7oS24tGCrQn/0tXe+cYdmJkqxBan5GHToj3rthe/AxnhCRn+38SV2i2MIntdftrZoPfpP6elt66jutppwb0tSkbqP8mXvhf32OexP12D2+caYO47MRw/jF5jXdJjC1RrpDtY7O+7cfXFZTvyDh4vtcej78nNSaNn6fbQIzDr8tMIxYN4ctS0x9v2egPncNEGsJugNmPXaQYf5lq6PlG8yF1KjZH6g/vr/7Dq6trR7vINZW4KnYcqBGP1NaC0PSkw+E4Osrq4nue0TNPPKi7b75Rd9z/mG4+u5i2zJysaWme1jg5MF8mZXpynYFX/jxewnKpRx/pdOOBpDOncafmJh4iCx+CSURdjOfwpbSxr1TXePd4emfjQf1rl8amB7uJa9+ZNHhee8BAJsy6KkNgmVz4dtgy1FTITlF9jINyLDCa2KcGAiEr4i0N0j3kiPbFWTNvOG2KY5kUE2iOETiihy1RLSG995d00SKpeTWcLxzj0hcmXhK4GWHYFLMKZDNRvfjEH+N/MHgdDutBytQSR81vh5r3euImEn1j2Egez8GJLowTaYRNmXahYieAw/nHT4iTgQhSwvPgkJsloGlZJrffRIjjXYD8hcDZrE+h5+ByBG0m2fYiLePA388w5Jczx6Xmd2LD2jNQP+Y7m8PAIe7/jrScNrh7gHReEuLiiCHucVT6IYb4B2jrxqRzgM9mfzIiJORAE06WVTDQvSrUppx/k6ewW0MVHDaj5wxXIDYPvZ/YTpLDLP+8EXvLj/2F2pP282cVI6UJNv/TA9LAm7geIWqWh3boTTNEevtKQzlDIs7axekI2wOTsWEqy/SNIlaohaB+jc2Es/Ib6VXO7Yrdxp8bIfO/lqohiktY229i0rdh4RjRGSK/9CmFe/8yuw9fmCcIKN+tiLCixPG/JFZSpEZytt/oMW+2Lqntrure+aauLmAcCaYZHEdC/Y92jP8lasLqNJRmYCuRNqkhUZ8ij2bZ6T470Mzj1lTV1mWmEovHhWY9NXfEI1rQJfDyGW5Kzc3S0Wad1E291DJ0bJGqRzSzCGbGUkM0pHoL+StQk40rfmlqLbXqFRCXDocjHcmmamVLKsfBzdq4ynxH7zgl2b8Mkfi0VKmc1NN8Tb7dBhwvuAXXvlYaGYOoI+35v+KZ4O3chNebXuRCNWSfmrwAPUcRLUM9WQh+Kz5/Hs4X3nckDrfP1lHS2zhiPe9OpmxbpQFv40j3THqJavHGUm+aaSvdfg3N1hGn7XL0vb/EsyBO+Php3szdkVCeW7YpT59/w9ojsKQwNd7BpA48gcOJc2qEzd5fEkSKT+XW0pCZmN0uaclEyjpGat0recc6nNCXAZukLb5nukT6m4trk/9gNpNtLxz5hnx4cHhYOdkuSEuDbpSee1AqVwlnv6P06/H+PUycbVO3m3d4u4ZlcyhnffKUVnWRDIO6S780JV7SMO15iHo8Oy11ZMhF+z4lzVwr7aLOJr4mjblf6vWXDU+NdCin6RsbNgfEzGLPZsIJ/VzNc9KVaVz2aZaJd79FaorI2WHqiW1en7SNDz6dRnjXz3xVWkVdDaDO00pytu/PBCe1hWaHwdTVOIZtI9CTItT/NkjxdyzGodnTpQY10iZqfWEYgjxOPmgF5GrpMeqy2VfSTurhZLsPHFOO6RLUIHYpqP+SmZiB3gtpCFDHgd7xmIE91XPgQHlarpl6xvifDeH73nUxiX+PI+m4jFj1043pmSAuHQ7HEbNj8hd64Yk+GrkyYfTfsXsvN73sypE7Uw2jGYdD26TX2uENdJZmzMJrRSXchbec1km97MXMxLM08Bs8glXSQu7YSyIUnXuXIhQn441w3WoS3omKicMbKxZcC+uR9AtuIqDmZXhPeBU3XMfFqAOT1qr50lQ7HWaWbYU5LP4WXF6ZHpSpxp9h0qeIqVA2EFsr4j1Hio2AMJN9X3yKH2nC2Rat8MJ83nlG+gMnc8kE6alXcL6ukRqFdcGUXnDzDc6fecNpy2Qc0cU04ydk4s6WSThdmMj40TZv63DUEFpx5C9HkdDqvxBXIVyWPi9dRzqzbRliyOthsy/JkP1CHF6Ez0M3YBr+s0W70USoz8DEQqqs+Ic0yWPM7wjflxR6ucUU8r7CrIBGkA1HJITaAOGwC4G1AvMrFpz1sSRXl5feQZm/l+6nvlaRzz6PSZO4/trz7AmWZNsLp/a+K6S37qS9sQf/tzXXU8fJTPgeDg5yf+L7phVOLib9SnHpNoRVci8qSRa6cEXyNOwLr82WzMBvjl/rmgpney9ZefEBbINyxvwsPWKW893uLbHcTd2aejbixX/mcauZFUoj2yhfbJyXt25PeDOCM/8gn8Tpk1L/Wsl1fyHuzPGNVPamZZ7QLxg/NeWx5gepUE7pyfB3bKVSTv83UrcadYONmc8mnSAtbiP/5oVF4z2b+byvXcIaYCs2+irD8cNH8XM18+d66c8YKD3Rj6Ge4e8P7M/U+ybzDKoVrFtN2zCeptQc9e7GTktR5w8l9AG/nr+b7dXxyz29L1mmkEbg/UwRjVXJcTXpLUYwX4dQnWPaki04jpxLXOWJ+wHSNuPRsP/znie9PYlnPFNi9jtSX+zItEe/J7ktMMg0b2gDwdSlSftI2+KUI3wJqr85HA5HauStVF5lcsVp6k/DNZ2R+b+Y0Ro8br72lq6pehXsV4GnGOYLpcwLd9w/8VqeRtR9wx25IKroyW/xxl9GJdi3oUZKVhTOi3gku99HmPG5XmtpqH2YKDU2mbfAnI/3wXVmOxvPpAR3/X432hPSgWx45YMm4UXjBdzcyKZVV3oXUZvEt/rHkhZPS49Fo8sb22zUpxkC4jd/C7KK6BiH4DLP2JhzHsdptf5RiFsQU/c2kKqcy7Wn47i+5T2zFAn7cLaewzF65q5kBAle4wDMoSFOXpJLVHE0n7s6IW9VLsBhpyqH49D5eaj3CE4jYnfHu9Lp9rz6iKLZkU5a00xP0Fzv4LA9jeMXqqda5Hls4npIifsx4Wq/SnW5tsm9UhvEhZn9eYb6fQFHfec8zPwiG7fJ33VcdLP07f2RO4VlcOZHvS79fQ+fqxA3zuYHOPqXhYnwlNrrhq9wckm3P4LRr9Mr6YaRLn2eRVydERYD+0jFqbcHEa41P0Ow0x0jjSME3b8HbVboJ6/OalFPn9M1I8K01wjvebEWVaXa10uFe0hD7Mz1BOzJlCv4zOOnOPlpoR3DUgcETjPiN3nLfZ90RR5stZN0q//sJKTUv+ZR1xfVscfZrqOebjZvIz3DC0+VVMrp/0bqI9iuEN3mc/dxoSvjOedhhjbs5rVm5KEeYg7bMM8KBvkRm9pLudqVtwfSQgmEG+XaTH809tTiTYTeC1Ie6rsTw6yp9+cqkrZdlv3kOXy+HLGVkrFgG4+Qp2wjifsXrw+2pk3vKyzdSN+vwXhwPuUyXsAzTbHvwJh6NGPVGYyDUz6Rtr0t1bFtVv9KBKOd2c1+lvTL93wg3JTVvADpqd+lu+0y1kipf6sU25n46cOPMj6+wvjYtiABJflMXW5E5Jr4s2zcuDXS8SfdWRK7RrVqlLZ76UObNm3sp7QxbNgw+8nhyDxMn2Gfpk6Bhg24wwSYO3+VKldkVE4C06dLl4qye0dHvrx5FRUV9rXnCWTL3FEaMnKKFm/YpQNZcih/mdPV/MrLdWappB6kOXHs3btXAwcOVIcOHeyRwzE/nTF79mzVq5fMr5E7HCcb5tlKBE6vuThqNe2xNPIzouTq3dLqz5N22syP8JfG+ft8NYIjrUvgHIlJh/ZyZGzMlzcVz0O0jpf+Z2ak5yBeEFXXTZcej1TEnoycIrZvfjpjCgJ2YtfUZyMznFh0OByR48RixsOJRUeGJB0cMLMEbV/e5JfXmiWDG/dJxQJvkXQcIU4sOsLYukD6wy66+G+q9Omb0mQkwLSZ+Bk56ZvbpPVsBTmWhhfznnxkQLGYaZahOhwOh8PD/HRGuXLl7J7DkTkwPz+Q0nOYoRdPOKHocBwT1o2VrmxjVgBKj/aX8lyPWPzDE4qG7FHe89OntFDMoDix6HA4HJmQwoUL208OxylAc2nPITdLdcrg2ssRRpVO0n5swrxldNsqafT7UuOiNjAjcYrY/jv7pUkRzCoanFh0OBwOh8PhcDgcDsdhOLHocDgcmZCNGzfaTw6Hw+FwOBxJ48Siw+FwZDLMC26WL19u9xwOh8PhcDiSxolFh8PhcDgcDofD4XAchvudRYv7nUVHZsT9dEbGw/10hsPhcDgcjvQiQ4rFQYMH273IaHf11U4sOjIlTixmPCIRi450YNcs6eO/7A7UbCk1r2R3jhex0oDh0m67W/ocqe3x/jXrjdLggdLq/d5uVLR0XTMph7ebFmYOkabgkbS/VBr/ibS9nnTTuTYwFZaNlX6OsTvZpLPbS/XdC39PTozJfC9lPUu6Muz7qtk/0fYHpduvTNtPKKyYxnV0yc172MkinX+bVNdGsGe+9PnvjI25pBY3SVWPwDaThbzGzZFmYHvLN0h5a0vXXxD28yuB8p5/QPp+EnlrJ52T9G3U4TjpcMtQjwmxGtA+WrVq1Qpt0e0HmFs6jFWP6PYa4O0cJcnFZY4npG22HtxEHQ5HOrB/gxaMH6pP+ryiF55+Uv3HbLEBjkxHrlpCkSOMLpJO2HcaZaV25KHD5VJxFNIJoSAe+HVeXVS1P5iWTuTNYz9EQJkmXhaubmgPOE5eEPEFkzHXvfvoWrR7VrsfCVv/lUZOQVzSJdvdgB3cKNVCGPqsWsnQTZrF9ksrV9uD6cVmaeJk8kCey6TwG57h5E3DuQ7HiSbTicW1a9eGZhJ7v9vbHklnYgeofXQrLeoao7lz54a2mF7S6OMq2KL1yAgv7bkjHtGCLj2QkA6H46jY8o+G9H1Xn/02XwfKNNCl19+jdk3SZxbVcQqSJQceL0Ipf+7IfqjqmIDHXYA8FMx7Au/mJJyvgFcX2dOpIihWwTR2rWw0Q6g50levOo4R2ek+WxFaaEOtmCvNR9Ad5POOHVIO2jAt5rxkEfGUkVqcLZUohB0gxLIFTHEFcRetIlUqKsWtkA7Y4+kCNnf57dINlyMWI/hyozD5O1Ff6zgcR0rWxx7r/qz9fNzZtHmHihVNX2frq6++0nXXXWf3DufjAR8rNnapHnv8MeXNyw0Wvvv223RashWrAXfeqyzPxahnM3vIULC+6lc0H2L1e58pKnzjtarPAHN0JBdX2PGCWzSzzwhlaZ0eaToyGnFxa+2n5Cldqrj95LF+wzYVKpj0VIrp01FR6eOt5ciRQzlzpud6oaNhh2YM/VqjV5bQRXd21tWNq6lMsfzKk17OcTpinkeMiYlR3bp17ZGkWbx4cSb+Yf5D0qLfpG//ZIysIRXJLu2OZf8bKiarVKuU9N9Ybg4z8DQnSmP4v3eXNGqY9PcqqWLNhDVyB7dIsxegUqrhjeIJBpk1RPr5PzzZWfwfI02dKW0grcolrMAkH7FTpZG/Sn9NkKbweSrbFuKpnLhtFnLK92QpZ1Uc4sO6GHmbG0OceMw1S9pjAdbPIX3yPo6yzCAvJg/l6ddZrf0e3C5N/10aMVqaNMU7Zy1h5YnLeN0bpktfUJbJ5G3WPOIj32UpQ9AjN8T+jQIg73W44QWmhnZS7A8Ge0UL31bgOZvqNqwm6tU43I0qcZws7yaLfphh7waqaSTNQD2YrPzNOdu4jZcvkqDX962WZiIOykVLpYLrGHdKQz6QRnPdEtRCviXU53CqnLztJMsVw5ouScxyws+klaiav3+RxlKdM2n63OWkYjatg4ulAZjRJNKZOVtaRdOUoFly2QzOoB7GLSSMMkzk/741NA1lWriHpivvVdt28jbsR+LHJKaRvxWEVSiboMX3c83vXDMO8zWzWqYepyGCamCWOTlnKc349T9SHurixxHUFea7nPKXIp9+PqYNpD7Iw1TC5i3FEqnDEgzrfj1qP8fHkQ/sbgJphPKBkIuPgzpY8hfxkw8TPhPBt6cAZoGfER8HbOf4F4OkNbRTlWIJYRuop7W5pLoVML2fuJ6469CFlk0jsLIUjemZuvqNMuz9V/oJ8zTdZx0VVAHT803XEIu5bifueonNzoPrJ3J92bO4jnY3tlHNdF97fWpppFqXbFmtso2jrOuw3zDzj++e+RhqqnDu34jb0vWlkonWqjocJy8n7LvIE4GZVRwzZrQuvLC5ihdP7ACnC7GjNTymrVoEhWJShGYfvaWi7YPrSAPHo6ODs4GJl7UevqzUW3oandR607GjNKRtV3UMiVUIpJEQlxd/fF7G9ggsnXU4HNowA2dom0o3aakmORZqyp8TNSt2k/acsCe+jw4jKLdvRyBkWvDwqpyPR4pSGYeHuGU3HuUfOMDVpcvw4nz248HW74AXj1e3IUpqdyYeMZ76f5vtCRGwdxkCCu+33fVSQzzyJXj282zd70Fp/IZ3nI3wVtd66yjNdo4/YKcDB1ERoyjbHrzbq2+QLiCtWPYnIGK9E/CQUU1T1+K5XyzdQD7O4ZxVeMixNp8FaknXmrxdLTWpggM+CdU13wuLALM80C9a+HYJos6nzOkkXRvBQ7NUa4zzj0DyOYTDPXYoVbdXOutystlOOqMomh/nPs5MT6UGYu5i0muICNi+DhGAcLj8Ohx7mnUeWphDEbMUcVX9EqqkpVQY4WDEknlULgR5bm/KRjVeUE/agWAchf4OzmZtRUlcTVUW2cpxynsh1b2JG+4a89gnzfAzAm0XIrkNJnPVecRNHL/RHGbmzTD5N8pNgvXJww22Hm/gc5QVQCEw00WkczlxtKyL+RLHeASRH0c055vrrm6BNkO0TRomLYgvBHVCGqMRdBXOka7nvIvrkG9EzgJEk2EtZvsr8ZU62ws/j3LPJt//RNg1CiEqt1P+/Zy/FSGZn7R3Ica3UFF5vO/xQ+xCOK8lbmN+5yOm/0NATzS/+kNBtm+RNnP9Fsz0EDZgZirN/lZsxR+aN64iHAFXurBUnLbPuZ44CA+SbBo+qdRlqlCeerSjEcBiCDinKbbuhKLjFCJTicXvvv0u9P/a6xjFjxXRVZXybT5GvXpLvWJiNLffVYrp1d+KQgRfq+FqNdxbvhrTV+odEm9GyLXScML8Za2JZi1D4V2kvjGKiQ+I0Wst7fOSJij+uEmjl6pzbsISVfPcY0V1HNhX1UN54RxzzcCOqZTD4chErIjTqr0FlHvDT3qn/xD9PmaEvv/gDfUe/I+2naKCMdOTBQ/5HARjbsTU4K+l+dwOL2SsDM5GZcXLy4eXmAUvPB+qIped6T4YsZvIXbYQXv0ZUlG81foNiAdveDeKx3CIeA4Sd3bUUXa8x3x40GYtZZ7DF6pVw7m/5w70XFqfdVqBh7+ZfDfBQy1JXmpSxqqUfRlKIJSNOGnhBsQzqqAxQrAQCqxuc+n2m6QaduVPNrzt0HJbrjNTdtU5Z72ZjvGCUyNLTq9YSW35ArOkxRBNtYxApCnK1EDEFPOOG3Yj0GJJr96FZI9zCuH4N25NNhGNETnepglJLyfNuReRUfUCqoMmqU2aB7aZtQPSuE+593HvPWz7DIEYEFJFqyMy0d5FKyFY2fYS5lvEaZSngJmhowmLE/fpFagqxEawqnITnp18GAcsijzlMGbFOHKQbTXCZRPVfT5NUI78lURon0k8K5clCFJjflmJP5sxG84N1WVwVtBAU9U7y2vySjRt/eKJ48hTgHxwfS7CayNqi2CWq8lnCMTXQsRScY5fgEgsTPzVEIU33Uqd23cSLiGfeTCF5ognE14Ls6pMgZaF/XxrPvLf8R7pMv4H82fMPQsCbzfibh9tWZgK2sL+IeogVB8W86zhBfW9NOrQB8xjsctxjYzIHPWNWU0mLeba7Qukb/ls9n9EnNvXLYWeV8yCuZpZvNPIeynKvNL/nsSSbBo2PLW6TBXiq1IbOzULcui/tajTouTD4ThVyNBi8ZX/vRJ6PtHMKB7zWUWfmEWpzMhFq1svK8SatVBbLdCSkCZcwqcEkVer8w9ERYCdrewaPzWYmOHdPCGZWEAmPLMYM7yqevsvwgmlEZj5rNhRXdvGyCRDZtSTm2LnWp25M/Zkz+Fw+KxYtxHHYat2Fb5MDzzRXd2felhX1yugzTMna9qmU08tZs2aVSVK4KFldrKXl5rixe7ajQDCCyx7DG6JWYgzPlo+BD3mXDWlNnihexF0P3wp9X8fb3c4Bhc29XE0GAVi3s2Yw0+YPBREKeww0zpmHw99L+cUDVu+io14oEz+HSF9+JH0pfXGZ6S+fD2IWYaapAhj++Fve1IqHEIQ7KcYxQIC0tSlvwQwLZjvAPLa6wo3lrp05HbI58ZXebNth21tEW4BAXNaoBnN5yCxf1JVHyRU1Vg0eVrYtZMaR7wOIw6/jn5BCBkR5XM2IrkWAmTKz9JnH0ofIGbHLwy1VAJkMJi1IggiP46D6/AdPpc+4jqTx6+GSeuCU5/U9T4iK0JdB+OINwnYibreNoe0/bZ8z5uZNN9/RIKZPTwNM1+1kf+UpSBxb+HzJvJRMNjGZCB+ySmfzTN/phyHKM/Vd9N2XaSaXB+FGLuLz2b/Zv9tpORnBQLYrLY3onQz6RUtgihekVi8J5uGPZRSXTocmYGg/Wc4bu94e+i/mVE8LrOKFZurVfSQ0PMUR0Zb9bOzhyGhl1gBJoF5T3i0JyqTI5QnXxA6HI4jp4yqN6pgn3UpoAY1yivnwc3auCri75dPKkqWTOLZtszGwQ3S5LlS7lx4un8lnj46LmBM5uGla26R7rlTaneRlBNPdsx0G54OnGYM1grCEHjzm7d4r2MMzW5YIbl2VcA7DmAeOpu0XKp/tdTZeuNN0vZFQ6TLUFPCvE8oG8VY489+HQNyUyXhM5+hLeyFKclC0/3xr1T5EqlTZ6+qLq1uwyIkirSyIn7ObRdWV5gGVhoiG2LlfATsHfdIt10nNSwqzRkjzfd/QsVAWwZ12waEmJkgN8RMIqtmVTUi2eSxC25R8YAQND97kh3vcB11nZz2y18AU61AHME8sl1EW0dC6EUviLf1mGJOhGMeyrx5EwEUMm8wL2TgQMB0N3KOKUckzXEQk45DFa6dYUUx25Q4hONqBCO2FE9qaaRQlw5HZiBDi0Uzg2hmEs2M4nGZVVRFdezaVj90DnuuMHaABqQmICtWVnUNsUtPA1gBetjxENFq1Wug+qpL4mcfg4RmJqNV1XxtatOIF7Pkq/cQf6bRW37ab24/7hzu7akOR5CShQviV+/Szs0JHsaO3XvxIbIrR+4MPYxmXA7hWf8xUtrC4Hjd9VKV/dKfCMa0Tuplxes2S1dXLMAD3YyaWYaXHaHo3L8ez32p96DVlp0IOhLffQDvOTCNZTEvuHnvI+nfrfZAIsxUGR72+iXSMjzZ9Yi7VfZ5w7JVUTt4zJPHkz+84HmM7osoe4UqIVEglZKqmWcp/0CkonQ2mikYtqXcU+LX4ZGnzcS7mfz+O5o4iHufOQdvfH9AYZrpou0opkV445vZYjkfIl2GmhK5KnELI7+zqIdJC70smiwtIbkgZtYwF/leOp9q4JwVVMk2jh+iScw1e8wMGtsOPm8/Rt8NmBmyrYighROlaVTRaTTtYpp5d6CqksMscS3NeVNprliaK3QJzWXM0tcn5u2hK0xzUAbzUxM7iP8QdZMzOBTtkKaTvmnypVMRkzRF8TKcY4MPEG6a2pjK739yOgltpi5XcfxQPkyiHGGIrOFcu4Y4TFrLKcN2q5qq1+A8TH3839ImW4+7jcmFLa803zUMeE8ayf9ExTffURiz4poCCEfzvsHVxpyCk+CGtaQx08vrXEx3CWmVKntYMkmyivLsRnxf0cmKYrNdgSAnTVN/8aSWRkp1ia1t4TrftuKfnSSNCJrb4TglyPBeTnAm8ZjOKvo062mfBUx4iUx0N6l5qus6m6nncE7s1SrhupDi9J8nTDge/h6bZj3Ns46tAi+lCTyzGHoOcqB9wY2Xhp83L8wsOfWee1zQrROfm6lTtwXq4l5w43DEk61COZXLtV4zRwzTxIWr9F/MaA0eN197S9dUvQqHO/anApn7BTe4cYsRRzF4ek0vQOSg9s5nkD4NwTcywnWRPqeheBrXlw4yYg7+ShqCmpkf4fTXzpXe6z39aY/hk/FAEXcXNLAnRApua8PGiNYN0s/fSN8T5yw7gp+G19vifE5BFZhnM8ehniqyf055L9y4AU0uZ7+C9B8e8Tc2L+aNKjtQBuahs7NQarHjpK+/l/7BG66HktiNZ//779LKwBTN6WfhRSNMxw4mjh9RPNRnIPhoyEITXXQVSSAsZqNXQ1VGUf8yP5tgzzHkrOy9g2cDzv93pkoRQstw3nchVsw102ma/YiDn/j8q/8j/ukFVX1+XcQTIstU419xUp2a1DAiY/yIsJm/5EDctLzae2vmtF+oclNOqvJf/1lACrsQwTLUPq/31Q9oc441wnwrBYciBF9JmuInzhtBfnIjQi/CTI3TF00zGZfANJMxlQOElcOEVlJnv0/zviOo2cJ7qc0WzGAQZhMyzwnUqxHbkJ9yXt2c+MjXL4O88B9HISgTre9MgTwIRDKzki6QJ8r7BZjNtMsByl8stIbUUlwqRBqmLc2S3pKY+fmYYySYn8zIWYIogsqytFQmF6ZOXLYoqaeRQl2K6waadmD7ex3jqv/sJF0jkuZ2OE4FsmzcuPWEffmxJHaNatWwT0unE23atNGgwYyAacA81zhs2DC753BkHqbPmG0/JU/DBngMAebOX6XKFZNehmb6dOlS9qUYR0m+vHkVFWXeCHBysGXuKA0ZOUWLN+zSgSw5lL9MfV12fRvVKxhyGU4a9u7dq4EDByqlnwMyb0OdPXu26tWrZ484HI6Mgvm5hxEIJfM21fJB4XWKYX7WYlJW6fYrvcn7Y0FqaWSUunQ4joaTy8txOByOk5QCtVro1oee1PMvvqSXXnhGj91zxUknFB0Oh8PhcDjSkwzp6ZiZwrRsDofD4XA4HA6Hw+FITIZbhupwOCLHLUPNeESyDNXhcDgcDocjEtwaKofD4XA4HA6Hw+FwHIYTiw6Hw+FwOBwOh8PhOAwnFh0OhyOTYd6GOmvWLLvncDgcDofDkTROLDocDofD4XA4HA6H4zCcWHQ4HA6H41gw+gEpS5bDt/cW2xNOEfo3lc59z+6Es0F6oEJC2crfJ623QenMmi9Jopj0Y5z05eVSrvOlBTYsKULnR0v/2n1tk56qKUW/xsdJUk2y+8BoG+ZwOByOJHFi0eFwOFJhxW/v6dknntATSWx9Rq60Z506ZM2aVVWqVLF7jmPG2c9IK7GPqa+yU1r6fq63f2N5LzxDUEh6ZrJXrlcb22PHh6hKbPbzkVIW8elwOByO5MlwYrHad+uPaHM4HI4UyV9Hl9/dVV27etv1Z5VQNgRAlbol7QmnFvnyuZ8lOebkLoxGRCQWLsBOVqlgUW8/KrsXniHAjShMHzDlKpDTHjv2VDnDfjhCjNCsZj87HA6HI3nczKLD4XBEwmk5lK94KZUqZbYDWrNyo/aXrqK6JREBjlOM3dLLp0tX3SmVy4HQuU56p6OUJZt04yB7Duz6T+rVHjHEOWaJZcGq0ktjpf023PLPW1JedOEnC+2BiNklDXtKKovIysJ2cU/pheCST7vE846+0l3RUjbykL+W9OU8G24gju8ftHGQ/8otpF8Ds91mCanJe9EbpVm/Sw3ye2ld9YG0054zqot3jjle40Lpo2nSQRsWz1rpiQZeHnKW4fNPCddHwtY5lAGFl5Prs5GHFs9JK/d5YWuky03ySWzFbpHivLM8oqTiRnsnwX+/EU9F77oSl0jTttmAMCqXsh8cDofDkSoZVizObps/yc3Qt86++P1364bd9dOFWA1oH61atWqFtuj2AziSnoxVj+j2GpDmSM11CfkyWw/8HofDkTIlz75G99x6sarhS4dYMU+LVu9T6Sp1dapqxdWrV9tPmZhF1aWYCYjAUVL5F1F7CK1h3yBiCDu0VXoW4fQiIumTqbT5AumtZtKbnDcXgZYexA6UrntZavmZtAyl+Uh20ppuAwN8j7A772NpySzpBu5ZXZ4gPzZs4v84RlhXyrBshnQ1ArMtCisGQWy4gTTMMtgN5P+rMdK7M6Xfukk/EcdoawNnP+stI108kTzUl/7vImmgn4Bl5idSAcTskmXS0M5S76uk9+KfBkwF1OBDzUmvnjR+sbRgJKKPMt3yUUi3q6j0McmbLIRv/76JOPQiUVQTmofLqueRKqHhv7iXLNmwgxSleztpxtmIRO6N4yneIDR2InJJ7ftIT53PZ0Tn48OkVqW9IIfD4XAkTaacWewyO7vGLN4Y2u77N5s9mk7EDlD76FZa1DVGc+fODW0xvbhHnjSiLFqPjPDyNXfEI1rQpQcS0uFwpES2vEVUsniB0KSIYcW8RVq9z1uCeipqRfPTGWvW4MBndqqWl7LTgtlQH6HloUiPQ4ixA4RtnyT1XyW9gjq5ApFTppp0G5/jEDp1c3vXW05/UNqxkeC0rmucOEjKfZ30HFt58nJpR6kNyimcaI7fjFIqf7rUjcS2ooz2mIBNiLrPpTo9pAcv8MIfQ3wWGi39jqgzRCG1QstgY6Tad0jnVkZ4Xk+m12HIOxLOKYSSylUS9dRJugYl9Udw9hLK3yh1vszm827pRs79abINTIXV1OWPOaX3X5eakH7lc6T/dZfGfStRxaYTFaX6TROEbyWLhIJD5KkqtUbHckglaJJLqRJaLsTGKQjJQzQXerZhBakGur7TlTbQBy1ej+ubEG4uPLc1VWIiczgcDkeyZNplqEYkprtQNDOK3Xqpet8Y9eRGFU/FjuoY3D9ZqFhZ1bVAS9J32tPhyOCs0LxFq7XPLUHN2BzcLm0uhDAMvggoC4IjHe8b21CYeQpLOey+kUG1jZIJIysqx79bm8/xHJT2o2zzIgbReiGKVELQ8X/Bcm8/HuIubV8Hk7OuNANldQ9lO7hGegGhGUV4mTJstaSPVnrnBSlMWPzbZMiMEdl7I1yZs5M0NpCfS4olrC+t3hVRvhdxTnhalqEmw4FtaGj0aJRfD1Cppv3gcDgcjiMmw4rFOkO2JrkdU2JHa3hMW7VISRiGZh4TloImLAO1S0vHJoSbsNgB7ePPbR++7jQQV6KwZNMIY+woDWnbVR0r2v0kr/OW1MbHP7bHMVhW63CcQmSAJajmbajuBTepcBr1U3CT9Pd8e+AYEIVQ3IlgRDN5bJDm2BnBiOAWng0j3LHFW85p2LBU+o//1ct5+6kxra/0P1TZRNI+hHI7tFbqjDBMiV0rpAkIyuYRvmUmiptMGQRt/xlh60x/8IRthMtQUyIrQjb/HvS3Xw+wNGxy1OFwOBxpJ8OJxYXXFg1tNT67LdGziilt5tx0I7qqfO11OAjCVt7MY8Iy0OCzhzHq1VvqFUN4v6v0Q+da6qZe3rnsx/TqH1gyGjiXeNSrm40n9TRea+mJweguUt/4KdDkrquojgP7qnoobc4x1wzsmEIZHY6MTWgJ6oGyqnaKLkH1cT+dkQr5zpI6lZb+r73Ub7y0ahXbckTVP/aEBJJ9wc0uhKC5biNizqxt3bze299mX+xydjvO+VZ6hu0/FN4vA6RhaXk7dyGp/c3S7J7SW+OIg7y90l3a1Fy6yMxQ7pfWhqW/mjyFv7xmD+VawvZfjPT2Y9IYFNfCSQhlrvXP3UscJu8zfpZuai0taCHdGCYWS5DmquHS77P4v0SabNVaMeryDsRrt87Sr1RSaEKSNDZRD2ailI4UyTLUlCjcWGqD5n2shzQdvT2fm2Wf72ygw+FwOI6YDDuzGKTd1VfHb8ecmEXJz7rFLtECBWYeK3ZU17YxWhR/QbS69bJCrFkLXZWltlo1t7KM/baJlowGzg3GE0Ea/jOLMcOrqrf/opwUr2umnn2lzrW40fftyZ7DkVnxlqAeKF1Ftd0S1IxNlvzSS39IbyJ0nmtpl2gihu4cEnoBaURMfM677sxH2UFoXVPL2//STP1BRYTot4i7EbdIFapJ75Hm3fW8sEg5+3Hp69ul3oi3Cg2kwairIZ8x1Jv1mKTTPiz9xs8gHkNXejTqQvkqS7cg/CpT1r8vku4lD788JV35sndurjzSNNIxeW92H+KPOBb8KNUMrPk0tHiSeHJ6ItIsZ33wG5sW5Xrqd4RsdemJy8mnqUvCX6B+04nTSkovD5IaTKRI3BibviRd/5ANdDgcDscRkynE4qDBg+O3Y0rF5moVPUSjklv2ecyI1ZIF9mNaCOU3KCQdDkeKhJagHlDpKrVP2SWoDgMip/s/0g/X87G+9M9KRBSHr/5a2mqXRhqylZa6fCyt3mGXaB6U5jwtJX6/TfIvuGn+tr0ubDPPCoYgojYvYFd7OM426FLpj1lSYf/hQITf28ukv+6x+1C5E+f+JcVPDBPHNW/ZOPZLS0ZJlyDGQiACx4el/d+7oWWf8ZxWAgH3q7SHsP1bpU9ulLoi7ILn3jIy4fqtSxC1d0klgs9OWnLXkAbEEI85l/xMfJay2LBsxSk3InYFaYTiIvwb6j8dKX+x9BP3MxP9GorUmmo7RHbq2nCHw+FwpJ1MN7MY3NKfiurYtW1o+Wii5wRjB2iA2Q+9UCYgJjnee0gqzzgmS4yGj7YqL/isZFrSCF0XrapmejLF67zlp/3m9sNxcm9PdWRiyl6se559QZ1blDmll6Cat6HOmoUocZxY9iBSf/1Z+pnt09cQjhdJw/JKHS+wJzgcDofDcWLJdDOLwe2Y0Kynfd4v4UUx0d2k5iHR1Uw9h3eLD4tuNVythh/pss5oVV/UzUuj5WuqHr88NLU0As8shsIG2hfcJHedecFNFy3o1onPzdSp2wJ1cS+4cTgcjqNn+3zpzjaIRLZOr0hrG0rDJ0hXlbUnOBwOh8NxYsmycePWQ/bzcWdJ7BrVqlHa7qUvbbj5+oIwOIuYlEg04cOGDbN7DkfmYfqM2fZT8jRsUMd+8pg7f5UqVyxh9xJj+nTpUvHv1z8q8uXNq6go98bOtLJ3714NHDhQHTp0sEcOx8wszp49W/XqpfH5OIfD4XA4HJkK98yiw+FwZDLMT2e4t6E6HA6Hw+FIjQw9s5gW3MyiIzPiZhYzHpHMLDocDofD4XBEQoYViw6HI3WcWMx4OLHocDgcDocjvcgUy1AdDofDkZjVq1fbTw6Hw+FwOBxJ48Siw+FwZDLMC27WrFlj9xypcnAH6nqz3cnc7Nwgbd5td44RxyONjMEuKW6j/ew44ewwhrvH7jgcGQcnFh0Oh8ORudj9t3R6FilLUlsZaYo9L8Q+6cO2UqkK0vcr7bEAxkGMWy/tt/s+4Wlc9Y0NSH/+eY0kakqTtkmv1ZIK3CqRoxBxP0rFTBYaS7ONAFsqtc7vZemrtH5fsEi6vBzx3SittYciweSp5lMS2UvE/PelXDbf8RxhGkkRqpcrpHT9WuQfqRZ199QkG38Baahf2ZFwXzapyy92x0CBz8UVS3QsQr67WSpdRHpvsT0QIb/dR8bPkhak9BQSdr82TtqIID1CFvYhmUrSWPRsH5LL104K9qDdK6RRP5MN2/7mnAs/9D4b1o2SytruE79dKC2z4YYVnNO8tBdWoDZdlW530IYZ/Dg+5KJRXTivrjRtuw1METrLy/WkMs/Y/QAL+xJR2Dixj3ZsW0qqcFPiQibF4A5h8dIOW7DS5L6QMudHMQb9Z/ePkNeibT/8V4qmTm4dagMMB6QZ72Hbhb26zF5QuuIlkgxo372MHY+eR5gNv+MLaWuwsvdKPz0qlchOHGxn3MGYs9WGWX68hbDL6ZOY1i3FpMa9QjXtOMlxYtHhcDhSZb82/P2j3nv5WT35xBN64qnn9Mp7P2hqXLhCODUwb0PNkSOH3cuE5MRr+hWPbiXbgo84kFfqN8PbXzldSvSLIjj3jfByG18q1U3iWd1fuko17pJW2X2f+DQWSFfaY8eJUuVJ3n72yTFLmo6uXTNH+hsH8Ihu/hT/OsrSvhWOvz0UCdUb2Q9h7MGR3FMSYZjLHjAcYRonDPRB8fDKPl6cfhW22RzbRF2nO6irqxBET463+0dPsQpSbvvZsHK41IruswpdmhQ70E8bKdrgebZrmu07dJYN340t34yGyvJ/0hKy+x5i8x7s5pd19oSkKEo+IjIsjLIG6jMptm8huArq1O4bsmHI7TDcFmQg6Uf6U4AO2beF1PBNu398KF/cfoBN4ximOkuVn5TmLZcmkZXpT0vdEfMhPbhTevs6aQBl/iPWCx95q/QM1/nMeFu6ZoD09B9S7CSE50jaF02c0pqMEvQfv/sfII2diFbHyYcTiw6Hw5EaGybqx6FTtK5QQ13V8V7d3b6h8q+druEjJ2rTCXtF2NFRq1Yt+ykTkgXvvkRpqTRb8YIc4FZYsIi3XxqnL5Hzn0VqcI80GS+1JsIxUuLTwCMLesjHmOSEWTv07mh08JKJ0iXdOM8eTxNRUqevpa/vkPLYQ5GQr7A0H7GKL6hlk6Wf//I+r1uBj021R2UPneZxhGmcCIpRiWiPE0fNG6Wpv2OfJ/8XP9Ua2A8BYs371aohULCPpNi3VdqVVSpUzHZNs/HZ74Vzh0pj0XPv3CdVKi/d8LzUHt314Wh7QhiVktF+yZKPsWErhmtm9JaifkZMQCjyeR1qKgeKMCg6s7Bzz/fS97cnZPBkBaNtFGa4q/5hQ/92vxONXBbdSjEerIFg/BvRTvhOqqHfVOnFd6SzEP0m/JWWiMdP7CoGOvTgfoS9SP9FtFdoKPV8BaGIeByf1Mw7IrEubRlk7a9SFcaDGxGiC9DjjpMHJxYdDocjNVat0ep9+VXj7IvVsEppla/XRufUzKW969dqpXtEJYNilqGdjhOIWAxtYcvO/n7ZO97uG2nbELyjZM5LkUN4zMOkcxGo5to8XHvfwNBEQwi75DE+C4HtsGWd4TN0YdQ7DwcMZ++PcVLzc+1By4pBUhEbb/E60kOItUTLy8LycVjaNvyVz6Tz8KHNOZUulyZt8oKL4XyaZbr7iXPaW1KbhxCtVO/2jTiH0VZLH2Uahrno+fiwW6XF4evbDki/ISiq4Nebc4o3lgYtsjMna6SOXNv9T06bgcNMeC/EzCa0mFnGGL5kt0yYo5uuzP5UOqO4l8kobOIZ1E9w9u09GtCE+dsvYd9Y/TdCamqvL0bDf46tnpbEstPfHpXymzhQ6Dd+HlpGGMIslc2CipvA+f0uS0jnrD4hk9VCPtpD4Vul/5MSPUVpZvLy2s9hzKOfVDyDLNj9JEGpjMUeH3+YrAyX4gKrYqdSzIrnozv8L3eoqvMR8DMmh+WBtiqRQt9IlmLlKC8Vf4BCT3lduuIeDJfj2zcjFDFc0gstN68XqIDDlq1i+ON7SVWphCzU67k9paAQMktMs9ADemDgqzBOP57Dlp3SOIPvlvISZr5huZ8xxy5s+dcsh7aXhW9muXSQkuQ5qaqoSTM3XYsenkaR6BCb6AO/s39D69D3N1pKnS5DPBqz9Kl3AeMExxeZjrpUGraM+qc9/e9+KtWj7yD4p9LHgpgV/Ul9vVEcE329M32avl8DuznjRkx7QajbOk4wGVYsmt9ZTMvmcDgcyVIrWrUL7dTyBTFav+eQ9m+YqSVx+1W4Sg1VPRInxHEKgAfa5Vdv7dvvj9tjAaK7eGEfXYkDh6c1w18nF76MNQV24slddIVUuBueM9f+hUM66hZE6kQvvCaOsh9t2DYO59n3wcu0wlF7CSfMPCfUVerT/nCHsFxDkhkg4VeqYdisQvGLcThNvDhmA+6VxtwhPTzSBhoC+Xiyqj2WBO/9LL04Hk3yCxoBkdUNYWf0WmgGDid7OY7/EpzH83FyV+P0L8E/jndejzKNAzHSHVTdFhzMOculoVfTNIQFmfch/v4L0pWIj+WU9SFEY3tu/1OMs4tQNM9rzcFBX8v12dFK5oXBu7ej3XGSK/vTnOS3N/r+klJSARzjL9BPldI6BuxAbKxaZTdkTVAIbv1JOvM26fRXULtUxsgnpY9poP5k2OfGH7yKmvw/FIE9Fs8KqROFWoJNzuaccc9JQ/p5Ii8RiJwZCJ6ZnPMdBvP1nSjnOC/oeSpgJSrgTCK/5RsvLbMNNQ+cEV6Rj/ZQ+DYRR9/M1RuKXYRdYtLl6UrRHaUPbkqwWSPOZ1LX9bBL//ykyEm+x5sJParqhatoI7I61wrGfVbcrqY96lWWXp16+AxmFEUc8BU2TyKh/FAdyUxkHk5lGn7HTGndHuqTwp2NUlpPey2eL1Up7Z1jlpuPMoWPlbonsVpjE2PIlYjy2vS8paipV0n9HQzX59J3E64tgdL2K3IBxmqTCLHjD4wWOzAG+n4zjBDh+qs3ZVejU8Jl4dvD2KhPK5J6iSiyF5Du/QLbr2QDICv975d/pUJvS7mzUke01b0MQ08h4AwHsdHQlyokf2ttqTVx5Q3OrBO4N3SCNPBWqg6R+Q+NHT6DeQbjy+d3eZOyJj+PN/GOG7LSBzu8TPVSxbOHcu5CfHmaoAhlGOfeL3ZCydAzi+aH9iPZHA6HI0WyRevKrrfpXE1S7+ef1DNv/KadOHSdr6qT5Le0pwJz5861nxxJg1dcAO/FrH0rlMTcR048LhNWMDd3UqygiFkjZ7bwZawpMB2nfx1isw9i0fzmcP3rcNTxsj616+hyJKyWDd9K4Pz6N/Aixnk711u2WQHn6yLEanBlZ4hyUjP81ALn47yHGW0OihKKD+euAdl5CPH5B45i/MxeIB/5U1hid/19pIFzV60FTiDxrMeXNTooF55hTkTidnTMP1E4qfjFK3dK+3H281O1obweZRqL8KVnUL43ESvRZaW6hN1lHV2fEX1prrtxgC+XyiIGH+0lVcfv/3GWF14Zp3Qr+YxDl513DaIRZ3stn9fjFFcy0yuGItQvTVSFys5TAV8fAWJe6JEmPrse0YnqDG002NSAkhv9LY53Z+nD28kQlXEunx9tJH2DTfinRSFaTEUVDj40Z1k9DhGB1/72OwgUzokmg52pjMOoI/0fotSkcc1jePXU4kbb4oVQwqWpTFOuvBiGb3TFbSVwvLg9FL6VLJRglwURIK2bejNTZSnCxQg5v2scQBDMRJvWq2IPJEE1hMXuddLoL9FGCPxFiMaKvyA60bFBdm9ChyFi/ks0neiRC1togUAqTcLB/EREVgy3IPWynQQWUDDz5qWVazHc/dS9HRPil5szViRaT22ZivjffR4isQuZp73Ppc6vZYzwyWuWv9trTXp+RZZCZQX7QR4y3hWjrEgeOnSXau6QNpvF3F7/DbZBcCsY6Ou1MYVzzRcx2G6TS6l7kvXZOYd+SRt9j00Pwi3+sI3Ukf7wInVuNWCIAwj1/5ZSHfRlfyI6EQekDbSF+TJmUxInBMen+PyEw1hQ8wKK+7g3Vmyhf65wK3hOKG4Z6jEhVgPaR4eeCTJbdPsBHDlZOZnyOlY9ottrwMlbWY7Myo45Gvr+p/p1RUGd2eIyXXxOCa0d9bHeH/KPth32jf3Jj/npDPPj/Y4TjHn2KdESVm7J1w/ECzPyB8KWZga3pN4umiJZpUf+xeF+OWzZH87dCLRqETzoUla/3DbIhqWRbAHnNvjZPHMWhTBYuwqnHm1dC3G7aCrFQ+iZGaG0kFwaoZflULB8gWOVTrcfLCFxis/vn5IVzdUATWQmaww5ydtqBOL8uVLTyxChi9jfjDAkv6GlsulF55EIPwaO0LZQOocG9VmNJ763H5kJNPZ9VNa+CBfjbccqzJiULyAkK1KAQBIeuOvxdcWHJHROsqRlGWoyrI6RFqNDzaysP8m6lfbZs4VukYxh5ylPVaGz/rbLGrPbtYwVb+Za9FtvBNDCGd6xdCEbhlsedbQMtRKLsjLGuog++y8dMyWVG8QsWc2GkcUbEAVO7sU5KWFeL0of9j7zIdBeaVmGmhyT+jMOnCP98JZ0dWvpjlelL2+RXnjdeybxNNIzgiFrDWkMGnXhK5ik+SIldDUQmCN0gnT3GMKwkQsYxqbFnxAZ6xCtb6KnS2O+Z94oraFNp6+RbggIW8fxJ8OLxUNmMD6exA5Q++hWWtQ1JvTNvdliekmjx9rwIyI9RFQScZy0eXUcLxo2qJPq5pA2zJisv9eV0Xm3dlDrC87Xha1v1o0XltPWGVM0AyfV4TgiytfCw2ogjTfL/gJrx6Y/6IUHlmaGb8FlqEfDJsb7uz6QXsP/3W/1y8DrbWB6gc9tlqP9iyOfraxUuAg+N86keYYxvZ79y4lQDM1e2ue4DEspU5BsiIutm0jX7h9YK81A2dRGhBhMc8QhHBegD8qXwr9fhqBhv2zYWzyPKRXr8gcPeU5Yg/tLQFMjH6rfnGfe2OkTiweenq5QhMtQU8LM2G5CR91Ccf1J1h5/c3036dpvOYG4rkdj3faTd34IxORGhEphOzVY5zyK9gdt5s86xUmTF0sNmnCOPXRU5EIc1t5NIjNRt+VQthjuHAx3H4LPqJlIMC/J2Y+R2aWzoUXT82mPdCTSZagpsY1+kYeshgSfJYrimi9YjOmUPp1tvjQz8Hs2cyZI+anrqqY9SiMO2f6gquxXXfqPYq6iX56ZwrLyIOZnfqJxOXowJt2NDawhT6PfpD2Lu5mtE02Gr/+2bduqS5cu+v7777V7d/jT7ulNrAZ066XqfWPUs5k9ZKjYUR2D+ycFp1JeHY4Ty649e3UITzOn+YEpS95cuXTawYOJluicKpifzihXDufHkTyH8EDX2CmPTeYbgQP8N/t4pEFFUqoK++Ol79jMuSvxVlcEf8gtm1QONTL+G2lKrLQcBfOP9bhOv1Y661+p05PSbPu+/wN4SDvtlE9gaWb4FlyGetTggM9dgrOGOBrRU+qF0741BsedrJmXXexFd8TP/lD0/du8WcJV60O1kjr41oVzSjHEWwJBZlbqbhiHY4kPnd88vARHm0bV83Eqie+hF0hnBcIUx7Nv4LX+hpZdpM3vSy8gQFbg87+KMFlQQ7rSPmNaGG2QjTqYjzKsxOe6NPs3v0sVqO+0TLwdFRfdilIdhVJ6BbWLLRh2r6aCbEUZV9z8/qGpqI1WEG62FbeNsJIXSJdgGQ/cjzfPsRgK0I/KSDN46NVptKFfStMxDhN/DLZtlAOVEcky1JSo3937YiK49UZ4NPtAGnMnJ2AjZmn1Fw9Ln08heZL+6HFpIFm6rakXR4MbOR9Bcv+73jLUr+lGX9F1/PCjJyvKl3pfSJ+tUZNCk6npwzEaEslvvz4wU6Ehw13j1f8B+r7Z93979czLsf8/pUf74nah3v76hALZqex4qNDylaT1g6TvZ3nXL58beq4zEiJdhpoStfH79n0lPf2dtIzkTf+5/w2pMeZktGChs9g/U3oSs5pEH5n+MUJ0KGL/JivMafdbTRht0H8ScUyXHqPt8t8inROhcs9FFXzOGLEJc3v+aqo7wrw7jj0ZViz6zyJ+8sknuv322zVjxgw98MADiotjkD1WxI7W8Ji2apGS2ArN5iUs+zTfoHjYGbkBPeLD2oem58zxLvrh0By91rKWov0LAvFER/fgLEMa4jhuefXO7dGjfUI+k43X4Tg5KVuutPLvX6SJP47TnBVx+i9mtAaPm6+9xUupzHGbckhfChdOl+/eMy57UEuX2CmPi/7HATy3y8w+6mIY3pTPmSiQVy+Uel7snVu2NuGolXjy4rijUCojJpvgDVXCk+1n14blwAH9Ce+o+SLEAZ6Yub4SqmeEeeXi8aEQ94APcOq+xDkrV1XqTtGeuo3SDpYuvUaauUOa19/LmtleJKuL30acmf2OgWVoKYEjWRaPc+jXUjE0SCmqYfnP6Gqq0n9xzNGmkTUaMfGZVABtU7ucdAX5v+cuG2ipiQgZ+pT04w2Utbr0Jn79QFyFxnamyjyelxuBOcU8QoZ3VJnjf+Ay1E3jUtmjIvvZZGCidMYE7K2OVyG1LpXGLbcn4Kmb3z80x5ugnox4u76st//ZUnb43J9CVR4p1eHYBa+jnh6MbFYyEfml56jEmqOlRlW8+OuTXkq/YZieoNM6oKveoVs8SJcog20+Plt6D63WupR3Si662udDqAJETeUKtDfdKhh+9Ngver7GcP+/vfsAjKLauwB+Ip1QpTcJIQSz2LCXpwQUhIgQNNie7QVFQbAGS+wtFqJYYrAReyWQiBAQEKJ+KjawwEZCCItIhyBVOt//ztzJzm42ySbZtM35vTcyfWZnZ3fvyb0z011OikZy4raQE/d3OTY9dXW0U0KgOjZdwoCnVMCTnVHDkXKyqa+J1gPlhHtWgvsE+WzLTt5dAEwYYi5bSF7siGeAGyT1XX+SuXz384Hf9B8LqkDEdcB82YWFN8O4tPJkGe50v2TX8cYljsZ/bvsEiJdsfK681DPvkNPzHeBJ2U0rSJx8m8wvn9fH5P0Kk3CZMxjIehJo62fSaH2CrFNefuOgTSa1V0hBwQ71VVMt8l0bEaUu6g+w/Px8vPXWW/jjjz+M4eOPPx7XX389vv76ayxatAgvvvgiGjd2/8lC3Q01IDe6USEoAUhOj1etNHwwwxSs2jw1f0wWYrLSER9mTsuMTYVTTcxONG62l+pMQrSxXAoijPms9diGZd64/NFIj3f5v44q3dexyE3Ikv0zdraU9dqXpZooZ/k6hIf5voBAfaY7d9IlrwpqFhqK5s2tv6ZXt4NY/2MmMr9cirW7DuDIUQ3RossJGDD8YpzWSdcC1RDqWsT09HRcddVVegwR1WnvSKn9egkka6Wc07nMqZGI6rigy+8qKCYkJGDJkiU4ePCg0W3dutUIjuedd57x1/TPP7c3gg8wZ17xN4hx5SMXttq8sHiMi3Uir3ABBxJG64nRg2TOXCl8m4MejPU4jdo7o3ZuTIZs1prRz3UoVbGvBgdiBuj0V+p6iWqi+uh0ehzG3PcInnjySTz5+MO45+YRNS4olkVBQYHuI6Kg8sssYJbq3gFuipHuC+DyeAZFIiqXoAuLqkbRustfaGgobrjhRkxMTkZW1myjSeoll1yChQsXGtMDLmwAYhyZmFslzSpjMVnflMa4MY1RTVcGVbqvRFSTqLuhrlljNWsjoqDy9nDVZEq60cC8TcA9M4H3LtUTiYjKJujCotX0VHn3vfcwJGYIZmdlYd26tca0iIgI6V+HyrlLahjix8UiY4zXdXiuNKSp4bBwRMIW0GR8SmYp1w36oteTUqFbjlbRvnqrrPUSERER8PJBfdcY9TD5n4FHL6rCO/QQUbCpE5eRqjuhWkJCQnD48GHj30oRnYSc2ROQO9b27MIEYIARhqKRlJVQOM1hXKunrvMrTTQGxZrNTs2bxpjrQXKMexul3iXGex1qVFXsq7fyrpeIAkXdDbVhQ/2QMiIiIqJiBN0Nbh588EHjekVf+vbti8cffxzjxo1DSkqKHhvAG9wQ1QF18wY31SP3x6exyfWFHjI1Cu2I0y76SA8VxRvcEBERUaAEXc2iekyGr7+Yq3HqjqiKPSgSEdVUu7YtR4NGrdCtz3VG17rTmShYrx+7QERERFTJgi4shoeHIzk52ahFrF+/vtGp/okTJ6Jnz55GLaJ3R0RUIx0BWrQ7Ed37XG907cMuNMIjlc3+grXYsafaGtEQERHVWkF5zaIKjKq5aWZmptGpfhUUFdXc1FdHRFSXqLso12gFv+DHCZfg0x4d8H779vig938wc+I8bDFvdu2/DdPx5Sl9MeOSV/H3IT3OpzwsGtYZGSnLUOJsREREdUiduMENEVFFbc+Zi3cmPYGHHrgf9z/4KJ55NQM/rT+op9Ycqsl9adcrqkdnWI8Yqkl27jQqU4EDy7HohkuQO7sROk6ehwuXfI8zHzoN+6bPwdqCw8a8fmvTB+1iTkTzQaegfT09zh+SGHfu1v1ERER1FMMiEVFpNn2Naelf468mJ2PkzeNwU9yZaLd9MWZkLsDaaq6G+vDDD0vtarR9wG+ZwKCuQL/JkhNl1Japj2Dl/0Ug7JP3cd7gE9CuS0/0/O8kXPr9czixYxl/thr0xqmvzMPwO09Hme7/WgBc0wo47Toge7WRHYmIiOochkUiolKsW5qDv/Z2w9kjh+D4rp1wzIkXYtApXVBv3V/I26VnqkYjR47ElVde6bPzRT06o0MH33e0rSr7NgCZDwFdJZCddBnwzyDgkRigPjZg9ZxvcGTwzTjeUUxVYF4aPuvc3mieOmtqHpY9ch4+6qCaql6K737fW2QeoxufBY964AN/4Y9HhuGTrjKtS2/MmPwnPOosWwL3vQa0+BroHwZ0Og14KRvYzdRIRER1CMMiEVEpDh8+AjRtjhaN3c9nbd28GeodPuwZMKpJgwYNjGfH+uqK07FjR91X9d4eBrTqDIxZCCRMBwokcP+YBgw7Tv0o7cKBf+SotgxFqNr9Azuwbe1abDW6jditWs92j8N5P81E2Mn1sW/+W9jU/nGc9+3H6NzpO6x6cRa2q7asxjxLMGSJOZ+3LVPvwe+p+Wjx7Dxc+ON09NyVgXW5tiTYEDgjHvgyH9j0q+xnb+DhgbLfnYCnvtPzEBERBTmGRSKiUhjBcM9qLF9aYIbDffn47neXakFJ5bBiEXBIwtfddwEjzpXjW1L70NXp+Pq0vpjdV3VXYckKCXQNWqB1l6NRX5bbs74Hjr2pH7pEDECPERGAaz22qzfJmKcL2uj5PFm1lw/j7CtPRLsufdDn9qvR+oCPO6ZKYG0nITZuLHBPrAxvBpZuNCcREREFO4ZFIqJShJ5yLs465gD+nDEJjz+ZhMeTF2D30RJCjjqqxnyJqmfMXnbZZR5dSXbtqr72s4/mA/MSgMwbgLCjgdNlVz+QALnLyGrN0KCVHNV1m2HcyyYiHsPXbcLV3z2N5kUrCIHundFOt1YNu+0b/PfLcTim1BvZeNVeKg26IbSP5wb2STCc8SzQty3QU0Lt63uAjxYDb43QMxAREQW5oA6L3s9SLG2YiMin+t1xwai7MPa/F+P8QbG46Y44dNi1BQc6dkVEMz1PNXvrrbfw6aefenTFUXdDXblypR6qevXlmPUbBXy1AcibB5yzEbj2LODcicB+dESn6JMR8s27yM2prAsEdSDdvhu7rcrEA2uwe5ntqkYJipe3B0Y8ChxzN7B0PZA/C4jra7RQJSIiqhNYs0hE5I/6oejsOB3/OS0S9ZZ9gW/zQhDZ90x0LsvjGMhTfaBnP2DSV5Lb8oBHJDCqH6XOcQnodMwyuC6/Gl9/9iPW/b0WW9dvwkEd7A7u2IStawtwUF2/+O92FKwt+tB9cx51naPnfFs3bsdBCaTdB5+LkDmP4ruPfsPmtcuwLPltbK1vu8ZTEuFoCYfrtwGf3Qf0keBIRERU1zAsBlQ2Eh0OREVFFXZxaS49LYBcaYizbccRlwafWzHmi4PvXVD7Wtw0IvJ0ELu3/gXnj/Mx7Y0XkPLZMtQ7eTguOauVuqSNAqBZT2D4uUZ+BFqch/NmzUDkkH3YcPvFWHByX8y+4i0cOvZ4hLYIwab0GzCn71C4Fh8EZtyGuX374vts9dANN3MedZ2j53yzr3oP6w4BbUc+gxPGhmPH3QPxxemXYGWrkeja25b8WwIxMUB7ViMSEVEdFlJQsMPHFf1VI9+1EVG9O+uhYKACWAoistIRH2YNj0VmbCqcSdHGHL55L1cCFQBjshBjmzc7MRFISkJJWyiqDNsksslZvg7hYb4fu6A+0507NddDFdMsNBTNm9eQNp4SFhd//DQyV9TD0e174oRzL8A5UUejUSUnxcVz/ocmLboj6uxHjOHNa7LxR/YdGHDNEmNY8ec5iqU9pJ+IiIjIl6ALi85tB/HSsj34ct1+nNrWvFnBz1sO4vzODTEq7AhO69rSuEZx5syZHtcqquGK8xHAjHCXh3HOksKcv8HNhbS4GOSNc6LE7OkXhkUqn7oZFquHP2GRiIiIqLIEXTPUa7K3o3/Helga2wJv/6ep0al+Ne7mnzweyVw1wgYgxpGJudnmYHairfloohqpQttYZBxZholDrHG+5hOuBchyxmJQsUFRrSsOiYlxcDgSZcgcLmxqamu+GpeWr0cSEREREREVFXRhcYev52RpJU2rKtFJTuTk5Eg3GbGZKRLkopHkTMWIkD6YMDunsLlq0fmM0YAjAu5KyzgzTHpce+hEbkQynEVqMiU4xiQjMtVcbzKykKmnEFHwUI/E8KdpanXeDZWIiIhqh6C8wc0Di//FcZk7cP3/7TE61a/GWawmp+pfq6tcDkRYCS87UdcYjik5rBU3nzOv8GY2YfHpZpjUwyYHYgb4aFfqykeuIwGjdYIMix/ntRwR1RXq0RnV+ZxFIiIiqh2C+m6o6lpF1XmzrlW0nrFov3Yx4Iymo5EIV/lNNQMdC0w2agxnI8FhzlJEcfOFhSMSucjnHUyJiIiIiKiS8dEZlcpq+qmbhLry4LSakRohUvX4UOx80RidACTHqOsRy0gFTWcyXrcuf0xLYTNUojqqXr166NDB902KiIiIiCwMiwHnNG5UY15LqO42artzafRoJCAZQ9S0hDxEFtYsRmNQrLmccTObYuczm546U4ExRhNVs5lqbkKyH3c0jUZSaiwyxpjLJSCGzVCJ6rCOHTvqPiIiIiLfgu7RGb0+3aL7fFtxWVvdR0TlwUdnVJ3yPDpDXYs4Y8aMWvNsRXXDLfUHLKKgchgokOJIEylyNKmsP8tXxTZqiX8LgL1NgNbSUR1wcJec/IeAdi0lyehxVGmC7uulRYPiz5qSphER1SU14QY36kY7+/fv10M1zM5FWHhWJGZn/K1HlN2/ix5HeuQNWFLOVRjLt2+P942uAvtyUJZ7ZiTQSUrSIfI72KwTcGuGlK4D+LdiVXhbvw7YU4l/fw7ANl49B+h+G7B1JXCOHIrYj/QEsWU+cIyMU4dIdY0khF0+Cdgooays/p4K9OgAXPy2HlEJyrsNdQys1xhyHrBKj/e2cxOwYZuRSStNQLYhp/fVPSQ3XIzCGwAGyspXSz5GpZIwP+4Y4LYFergc/Hq/9PmstmPsczPgo7J8XbwXY9uIvbsW2K3nCYRdm4F1WwGfH+GDwJePyEmtAqBsO1S+p0bJi9kgodDbS3JQOrQDsvboEVXrxZOBiHuAf3KAk2VXr5imJyjyNfX5o8BxbcyX0aAVcJEMu/bq6eLAX8D9/YCGevr18hn+x/4h2AjcKC9/kIzfmCVf3TJfUlker/zZNUD7+/WAIr+zz/b1Gue/oAuL70W3NB7A702NU9OIiIrYvw6L536CN557DA/efz8mz5cfNC+Htv2Bma8l4eEH7sf9DyUhddoi/F1Dc05pVEjjozN827PTKLLUCI1PGocBS5ZgyIIn0EKPK7v1Uuo4FXhwmRQWsqVgvRZIjwfefwbIC+Ar/Xs6EN5FCnvuO48HXCVso7t3IwlZ/TQpAK6Vw/T1RODnCcB42WxZHX0iEHc2MFz+rSzl3cZ/M8zXN/V6PaIYH4wAzpCyu2S5ShOQbRwNXBInoXm40Rt0/H2/PEhQ6VDmWlY5iCtlQ2pjhd0koKmeHAgZ18ln7A75otXDdusz5WROAi79AFgj254lwWbRvZJ6fdzg4z8Shk67Gji2gR5Rvbq31z1i9Xzgro+BG+RlrJKX8fXTwGI5xyf/pGeQr6/Uq2S4MbBQkv+PL8u/oyQ8fqmnF6OzZOPqEnRh0dG6Pl79Twujuam9U+PUNCKiIvIWYf73LuztEI4u8gVe1Hp8k56BH3Z0x/nXjMWoweH497dZyJy/Ggf0HFR26kY73bp100PV6DDg+h4YexrQ9VpgnR5d3UIat8bRXbqgTbsWqKfHldlPU4D3QoAvfgSuOUMKap2BwU8CG78BjqsZBa1q0RLo6+vUkwPdSgplneUwnfE/YIIcsg0FeloZND0WmPKtBM1T9IhKUN5tNJeCrXp9rUL1iNpOwsx/5TTPGI8K/FGl5irr+9UyAijft6qkyw6yIbWxwk5Vj+nJlW3VYmB3H+DaQfJFLNuOHgf8thm4/Xg9g83pCZKy0oCe1fwddjRwitfl/91jgdwc2e3BQJi8jLOGAxfKe7hL1yz+uwx4VT63j7wInBMm30OSe5+VZd6Vc3iDOYuHDj2ATrq/utTxVu5ERCJiCMY/cA/GX30y2hdtmCBJ4ncs+/soRJ57Ec7r3QXhZw9DdFQTrP9zCVbampZQ2R19dPXVBRzeCXz/NnBaW6DHOcDM1kDyrf7XThxZ+x5mGk1EO+LDPv/BzEemY/UOPbHQfuzKHI9Pu8l8Hbvj06sm4c/1Vo3eYexdkYH5A4/Fh2o93U/EZ4mfYX0ga6y/fFdKjqOAs72u/21gK2QdzAMSzjcvfFPt1867D1izT08U70qp5+SHpEQj/6p5GkoB8t75gNE6TEo9R0tpssd1gPosDJMSrdWELfkPNYNps8w3VEpG9WS8Wv7yVwH7LRPuk6N+vZSexvQ152kWCbz5m26uVvo2jKZ3epR3590EsK2UpIu9Glpe0z+qpdw64Ie3gOdXStn1P3qa2LEUGHUi0EjWW1+SyeDHZV5bBa33fhRpfngAWDgROFUOhVqHMV99IOVPPV03J5z0OTCiizm960A5N20NAUrdxmFgqbztJ8p5raa36Ak8/qX/NebzpYyulhvzHfDXS3K8rG3Zm0DK65j3KBAux0BNa3sS8L4Ugq2WdH9nAO3lIL8ix0s5LKXgW2U/ekkZf6sM+7WN0uhjZSwnndG8WE9S1HFqdq6cVqfKe9UOeOZlyRZyrNuNAJbbTu+KmnOz3odGwLEDgLd+cR8Hyx45TUfq97OFA3jdPk8px7IsulVm7dNKOSkvkBdxlOykaiJ672xbU3YXECOp/UH5Qh2i52lzhryw9ebk7xLNF3etLIP35I2RfuOgyef9d/2F17a7fCjkhWdJaNyv11tfvqdktkKJ+qT2XtbiMd3XfPIp+E4+gFZT1zYSTifLm6E3lyNfQUUW190935jzWNrLyyyt0vXAFnm19wJz5Ty8TTrlrx8kTMpnoa8tZJ4g5/2un4EV/+gRWpGWD4G0W75f408328LWk+MxLBmwHje4/3fZQf3Cb5nDsEhEhIZN0KSEqptNf/2NrQfboFPPVnpMU3Tu1A6Ntq7H3xI4ahtVo1fXbyqz6Ekpm0hmGfKEZKPnpBwkIe+vufLb2b+EIOGtzVCcrZqJ/pKNU5+9CvU/vxU/JH0Jj1Niz0/YtCwKJ8xfgoGznkPrNROx5M6p5l+Q//ka344cg62dbsXJ38j09AQ0+uJWfP/ST0YmCojtUlo5+2Q5x/VwEVI4SI4FXtoFzFoupaV04N/ngeFSsrZXmy99RdYlSXqFlNAnSgHj2Wuk0KX28hRg2VrgZyllSWEZ7+a7m7CN7m0sKkVzIFZK0ZtHAkvWSMHtAznYE4DbZ3qWiNNlG30ny7Qc4DoppIyV0LpaJdLSt3HMf92jvLtHzjJmMUQnSRC7WFYjb/L/pshmrF20yPyXykejixQE+z0N3Pi6lKEktxpU4JGX8bUczm/kMORKubeJBJLr0wArexTuhxQIfVX4qZa0sfKyjn9ADsVqPe9fsh8RegYt5TUZJ+tf/auco/JyrxgD/Kk3Uto2NswCBsRLvlfntcw3+07gVQlIaVYgLcU5j5nrf1pW3mWUnBJqW6qb5q6x+l0C3pBJ8nmR02W1vI43LpQyZQyQrdNa1+ESeGQf7rxSPmvbpLAs63xXjuNnEq7lY+fXNkp1DJChl1Pr8WX3JjlF5sl7Hg78X2vgq6lyyknm+VZnmECwXsvK74GEE+W0Ph+YLsN2Mz8BhqrmpHLevHianNoXyfsi+6aUdiz9IhkpST5OF0veaibn75Q3gd5+f5FZ/gU2rjP/UqK6Tdvd1xYelAA34hJgp7xZf/4tL/B64AXZyZdtfxBSUiUIjpMTVx2MM+Vzf62chKrV+Cl3mwfpZfkAeTR3/cLdlDTycuBR+W5JlA9spzMlZUmI876u+u6l5nIzx+sRXqzpqvvrO/nuky+M0+UDE6G3kSsf+gH3u5u6fiiv6e5BwOfmmxHxP/fi3t298r5ZBsrLenaIfK1KwB/9jnw+vT6/6lrVu08AGkt4f1AO47vPyrp1q6XD8pVrfO3JIb7xeOBC+bpt1AvwqKDU6x17kvTLhOfkvT3HKn7465B8p1vv5Tr58tpp+0I/Ij94iXKiZbSXLzP5gvnlDfkQynfy9R+b0xscC8yRk/EBCdO/pTMsEhGV5tBhXaLdsRjTXn4az773Deq3a2OUW2urhg2LTQ9VqrputLNOyhT/NJUCuRTcr5Mf/fAyF6xgNhPt2BL1jmqONicNR9RNZ2D/wiXwvOK1OzrdOhbH9u6CDqdcgpNHn4tDi7/CBims7vp5FrbsGYrIJD39tP/itNvPxJ7Mb302R6ocP0uhzyklGwliA6TEcuxgCY9SEFvyrgQ021/tD8j4e+RAde0hJdl7gZayh8YdGaQE1KmzJAApyUi+Q6sO7iZsLfQ55pQU/pMUOt6UpHZCV3MbT98kaWKGO2Up4ZIurpdCYhcpqNx5D3CUKuD4t40Gzd2jvDv7HTKP7QecpwKirPKUgRKoJBR6kADypRT0jkgZVXI+wiRYHCtZWtVErZPy7+eyrteSpfwp4SP8HHkZcigWfGpcGWoo3A9JRL6+H1RB8aBsu5msp7F07fU+Nve6Smaw5PJYKWweI+HjScnQLRdINtcbKW0b30t5r8kt8jZeJ/so850jQfNeCRCfStnZH02ONtffUlZeLxRop/exsxR8jd3cK0FHMsF/pACcKOXsY+SYjbgLuFJeW5auSVSly0EPSWF3jwQYCXKXfwhMlgDs0O9Fqdvwh5T/reOn1uOTnCqdJCQ2kJWqY9FYjl3oIXkPvDJIRahmoq3lPW0shfoYOa0vkdfzjeQkuzPkI3Wd5KDOct5clyjn3kZgYY5M8OdY+qMl0E8CaG8JGY3lnB4o53aX4o5JsSSt9pSF1V9KVHfh6+4/GP3yGbBUPrsvyM5HqmmS+sfLm/juLM/P8IVj5SDIidtDPsf33AhskBCmPsKN5LNb+EbJSVDY3FUOnqrZMsg892QDKyRA9pOEdd2pQF85GOuNJgymVnKQ1XKti/nCtqa3l5MjVYJt/pUSiO4AmuptzH0LiHpSkvVQ+S6T+S58GLhZxs8wLyhsIMfP2C0fnXqPLY7+8p7J16V6KafJ+9bXu52ohPdnf5e3V34MUiQQxspLeTdXT9MOS4hes0pe7hrj9jOe7OuV87e/vLe9yvobVfCS+73s0h14YpmeIPZ8Ix/IbTJuopyc8p1+0kjgqSuABXIySnZEiHyvdpBj2VyO42+7GBaJiPx2aB9279iFXTv3YI/Oj1R+1XmjnRFvy2/gB5J3JCOdKAWBY84HXpLsssFe8CnRfmyYkYD0sHDM7NsXs6X75gH5AfbWtCuaFD5N5igcpUqtRw7iiJR/DmxZhwP/zMCyk607nnbE7LsWyoSD5WqC5lNLKbV8p5p16eEiZEdUky/7BVFdHVK4+0NKMlJiLSSFhvq6wFVfXoNVvvPHtnXympZIUJQCiNWmK/o5GSclUXuh3b7eemXbRlmaofrrKCk4XjxOzg0pD38lL+FfKeAX/AWcb2vpdqyEukNybP3NHsdcJuWxSXLuPShlbiknN5ZtDJb+lar2xUYdCkt7KZSGlSHgbHTBs2lnPeDWH+Vttr+dFbFLTo0COSYSjFSLYWMbEspeU2+zrVyvCswPSN5oKgXi06VMOlKCULBRzWsfPVfK1BLcjTK5hPK35Th4szcnPEreW/X2GsfK32NZJa6R/ZGTTP2lRHVLJrhbJBxSn1UJc6FWbJBX4DhZAqQkXvt5ZW82qvrLTNbbU1LS9D+BVdMlbcmJ/PRXepq//gEe6idvxBkSct+UpGdrNrQuD/j1bvl+sw627GOyvAH7zYNdlmao/mggn4GhjwCPdANelCyu7uuj3n91FI/qCcyR9z9fvg+OrPB9vWKFtJNgb72XR+SH7RlVTanJbxAOyI60tBrSygsMl1T7r3xPy/echyY9GRaJiEpT7yj9Vdn6LFx7/xN4bOyFaLh1q8cfVGubNWvW6L66SV1fdPxFwDu/AVuku70rcN9wKcBfIQVtPU+Jts7Fr7fPQNNnvkHcuk24etMGDHmuv55YjMNbsXbxMoSEn4a2sr1GXXuhUeNTEJb5C4ao5qxWl3lDOW9Q4cMpFwKrU4FZPkqwBilIqb/s/2O7P/7fTmCfFBy6qSJtAHSUtNNIEvmMlV5tuyQw6pqmivK3GWpFNA+TcqeUl9+U8pTHNsrSdFLKpmfcCHydL+WyHcDvnwDbnwfuytTTtYO2AvgmKUi65G2ysnppwuStazVMyvp/e+7ntCv1DBV1NNC7kwRlKXPn29avOo9jLSXjN2WePT2AHyV3vOtV2xYMfnwFmCjv6Q/qaRCqTC4F7ZvkVC/J378DK0KBM1XzZn+PZXWrp0KghLDd1p+x5AR1LgaOk3QcoK+JIrrL9+n5cqC2laX1iezXu9cCzzUHsuTNsQdFpVdfoNMYIM/rYE+6wJjsbzPUMtkvnwHVyVes+lh3lM9nd/kqXGJLh87vgWanyu7J90uVUBdKN5C92W7dllZO3vw/5PtYjo/tDxsWhkUiolK079QBzY/aivUrravP92DDxq3Y36YTuhbWGtUeqkavoKAct3gMRlIAbyM/3ne+Yz7gfOoo+00LjuDwji3YKiUFd7cO23dbJfl/sTd3FbZsdGFlxuP4/t1VaLBzOTZ+/Qe2WTV5R/Zi/5a12Pznt/j58VFY+u4BtBlzkREump4ci05Rv+GveyYi17nFbPF1oAA79zZQmcKtYVs07LADO2bMQ96qtdi45Du4ij7dxbeBdwEXHQKukMLQC3OkpCqhcd2fwIczpeAnBQRICeV2B/DsbcACSSV/yjwJLwN9pcDVx6pW8IN8FoybVrz/nlkQU9fJ5Ok/SPQcAlwqhZLRt0qpWhKM2iwkKe2Q+f0MQIYStuFvM9RSyaGybnDz12/AwzcBv0mhXj0zrb0U3uNlfXeNBebn6QqVvVKWlffaKi+r5wYalwhJeFB/TNotXxlqeLO+kHW7HPoFUsa2xu2UAuMmmbFNC3O65dMngUwJFWofnnsE2CgF1dNVkzRR2jbOkreu8yxgrGTxPP2VtVdVnni9ne3USSjbmPq1LP8X8JNsy/4HsC6S8ddmATN/NNf/l7zmjWoGKTleLG/lOll/wgfABn2BrTpu9axjLZli7r3AQzLvfNnG2xfLZ+x2KRR71aAWuw0/HJDXaxwH6bbLMoekML5ZDct+WJ/QgJB1b9XbKexs29grp+BKOa3/ckrmuAfIluORK4X/X2U+K1oZ75Ec46/keybueqDlzcCgrjLBn2OplfZ+VapThsuHQF7k7Uny4uSz98WDwMtyUl17Ecp0PUZnecND5gHvLZI3Xh1I+UBYLRimS2J+4WPgD9nOulXyAXgW+ETe5OPDzOnq1W7Qb4ARIGW5bfIBUsPWs1c/uRL430/Am69L6NEfjHXygbFumDNYPrz7XgVufUu+C3VQku94hJhtTP1thlqS7UuBdHmJLrVpOZ/fnSBfr/LvdZcYlyKipXyWbzsHeES+cr91SWiUr7M7pwJXXSffMeYqKl/Tc4ExrYEHZOd+kGP9q+zAfXLsB1wDhMv0/dtl5+XYquscDwVhM9ShQ4eWqyOiuuvQnq3YuH491q/fhf3y635ISlbrZXjTP/vMH/tep6DvMYeR+80sfL18LfK/m4EFy3ajfe8TEO7nDwgVpW60c+KJZXxIXCVqJIHgQvk5aKuH5Wcf2yYMMpqYurtofDdXfkTbDMJJL1xh3MUju+/Z+Om1A+h0yzDU3/IZVsbdgD/U5SH1G+Oo3XOxYlBffDHgOriWn4TIL77BwOGqlCianoSzP5qFiL7LsWbMEMxX6z87Dr8vXG1Ot7Q+D8c/eQ0afHM/Fp3RF/NH3oO8X/y9Q4cUtDJkZx7vAzx/OdBNtZWTgDjxI11Ik5iTkCmFp2YSKnsDUXFAkzuBz8YbtWB+a94f+FgKkD9Iga+XvD7VJu/ObCN8Qd34fcoS4Eb5NN3cD+iq9+FdKe2WRYnbCBApB1s3uOl+kuy2FN7fmw6caZTyJPwsAJKkMHWfnCfd1cuQeZO+NRdV1HMDjeaIqgWcDE+51By+VD/8f/1XQOzpeh7pBsrLOfUZeXsuNKdbLh4GvCMZ29gHKedOe1/K6rpQXto2Wp4NLJB9CpdtDT3BnBZ1gRRMzXt4FDpeCqePydvwoLwlXeQ1jZAcYG+Bdv4DwD09gPGyPrWO7rK97/XfmMKkTP7DNCmjvynhtKc5/UwJ1k4pYyp/fwZcnSannJTJT5RTa/hEyRW58q+8Xvt9W0raRmn+knClllHdvXIg1k6R16mG5XgEtN2EBNnT9HYKO72N028BHu4OXCNfY+FnSs4ZJCH9eGCOvK7h8r5uk1J2Uwl9xnsk8106ScbL+/SL5CD5ujGUdiwtpb1flar+yfI9Ih+E5nKQj5XP3iVvS3CUlD9eXmxZ9JPP7kOyrnskLRnfA3KCLtTfZfXlwzZZEtSJkorVCxwlJ9Hd9m3Im3ycfgOGvizDksqi5aCq4fk6+P220GwbfK18cArfLPlw/akvvuwkH57Fc6TnXdmXSHP6KRdLWApc7FYP6n9Afhp6qE1LNr5LcvEjs+WryroJk5wPYz+UrCYvt7+c+6fLV21/OazPyG5WWSgLkS+0pC/kJJIvhXPlWJ9yo3x45EP6tuy48udrsvP6OseClxBSUGC/d3XVyndtRFRviesBVN7gN3PmTN1HRCXJWb4O4WE+2ikI9Znu3CkwVW3NQkPRvHk57jpSDuuz38Ab81xF/krb4oQ43HJ5X+PumOqh/LM//Rw/rdmNg0eFosuJAzDs4jPRtQyVL2W1eM7/0KRFd0Sd/YgxvHlNNv7IvgMDrpGCdzHUDWNmzJiBq666So/xTTVDrRHPOCQit5XAORESIL8EXlQ3jiQiqmZBGxanTZ9u/Ovt0ksuwbhx49F/gHltycIFC5GS8nKAwmI2Eh1jkaEarmt9JsxGerxVhV5RnusPCemDhKx0GKt3pSEuJgsx1rBPavkURJQ4D1HJgjEs1lSVGRaJqAZiWCSiGibomqH6Q4VDFRKtoBhYDkyYnYOcHNVNRmRyDByJ2XpacVSIi0OaSw+WyL3+rAQgOSFNPQoVCItHupMhkIhql+q6GyoRERGVrk6GRUWFxMAHRW/RSJJE58icK3Ew8MLixyHWmYUFfoVMIiK3/futO7BUH3Wjnep6ziJRjdQT+PYIaxWJqOYI2rCompv66qpc2ADEODIxV6fF7EQHoqKijM6scbSali7DxCHWOKGalTrMeR2ORD/CpnftpAtpce5tFa3cVPM7Stmeuc7ExDg/94GIagMV0lTrBCIiIqKSBN01ixZ17WJx1y16UyEycNcsel8TqEJbDPLGOZEUrUcZ7PN6L+c1nJ2IuPzRSI93eYx3pcUhJisGWenxCPNYxtxmVkyW1/WS1jzJQIJ9n0ra3ljkJnivh+oyXrNYdQJ5zeLOnfqe7OLw4cNwuVYgPLy3HlN9tm3bgtat3fcfJSIiopoj6MOiCoIl/atUflhUFxe6g1jUmAxjivsGNV7LGTerScYy241yQkZMhjMJRnhz3+BmBFJlpJlBbeuAWj4P4wqnWcx5ch1OSMp0B8ASt+f9eqiuY1isOoEMi5uth7AJFRY3bHChc+dwPYaIiIioKNYsikoNi0YQ08HN3u8RIn2FxeLDnu/w5m9YHCth0QFn5DgJg3pqubZHdRXDYtUJdFhs3LgBjjrKfAr6gQMH0KBBWR6kR0SBtKfgKOxvehitKvFZrVWxDQomhxHyz1aENDwah5vW0+Oo2hzajaMKDuBI21Y4Yv50V4ugv8GNCoLe/1pd5ZOwFZOMyFQdwlx5cDoi1COSpX8Bspyqx4ewcEQiEyn+3R61KH2dpO/lHYiRgJqKsYizpld0e0RUK6iwGBrayOhatWpW2F+d3ZEjB3yOr/bu8BL8eEE3ZPTQXa8+mH1jMvK31PM9f3Fd4wM4IIWvgyhmuSZHcHjnFuw7EOJ7epV0RyH0/55F6DndENqssXRtETr0PoRuCuQ+yTZ2FyB032Ef0wLVVXwbq99ohGYnNcKSg43wxjmN0PHGRthlTd/VCLf2lOnNdNe2EfqNboQ/9nquw69uUyNcG9UAYf9rhO2+pgeiK+c2jGNgvUbp0v/xPV9J3c4FjRBuW0fbHo1w03uNsK+J7/mL6xockn2X416vmOUah8i2tsv3SGPf0wPRLbhFXsNljbBjZyPcEi7v+SuNcJSP+Xx2B39C6EnqM+Wje2Ol72XK08n3SOiurQg9JJ8BX9MPLkforecgtK3adnOEnn4lQr90FZ1vzzw0Pb4bmlyUVnRaFXQhct6oz9W0zeZxb9m3EZbbpu/6rRFuG9IIHdR51bwRIqIb4dMVtnU0lfnlPOvbwZweGdsIi7bZpkuXP1mmdWuEXxs2wuRzZV3yGd5jm15y9ydCT5ZjOGOHe9z2LIQe4zUuUN0nl6BJj65oOrsS1u1Ph13y+nYGf1i0ahf9rWWsOKdxoxrzRjGqVs52rWL0aCQgGUPUtIQ8RDr0eImSg2LN5cwbzph3UUVyTOENakp//IZdGOLTU43HdljLey8enaSeyRgDR5x69EZFt0dUy+1fi+/fewT/Pa09GoSEYPhHm/QEy36s/f49PPLf09C+QQhChn8E7zmo7NSNdmraozP27IQEO0tLtJ44F0OWLMHAz59GyzWv4I9x7+BvPdUvW2bi277R+G7uBj3Cy+5f8fOIvljw5jI9ohpMvRoY8gRw3otA3lpg2cfA9inA7Hw9QyD8BYzsBtz3lR6uDIHfRsdjAO9KuVs+B9bKYVrxJdDrGyDmTmCznua3drKrI4ARFwEt9KiAK+c2esWbr2/p+8Yqyi8cmLnCXNeXjwLZtwAJWXqan3LfALqcCywu5qbJm+U9OLELkFGFX8gdOgFNdL/fHpUTRR0IexffS08MgJ0/A/+RA5EmB7wIOXgvyWd8nmzvS5m+6jtg2A7gtknARj2LpXkf4Mr/AJeerEdUrwZyDh2t+49sB966Sz53cj7MzwHW/ApccQgYey+kHGvaNBO4YDwwUM7dv5cDN8jLjLkckN5iNZTPeIXO88p02hXAmSMBRzW1spp7q3wAb6h7NYuVS0KX06mfsZgDZ5HnHqoQZ053pichKd09PTpJj7eSpfHcRNu6jPFq/cU1CfWe5rkv5mrt85j74jRujqMGy7o9oiCS8z5uuFUC4LlXY1hHPc5DDt6/4VZ8tOlcXO17hlpnzZo1uo9wWAob30uh4zSg67XAOj0aCMFRLdqiTZcu6HBKHE69pT8Ob9qG6n/oSAAdkILj7VOBu6XU/dKVQM/OUjCRdPHDFjkgx+qZ6qZep+geL81aAZ3lMEWcDTwoQXGbFLjLfE5I2S/+PeDTm4zeylHObTSQZKleX1t5nRUqJNYDWrc313X2GOAOh2STbXpabSRf/cfL6ymXFhJ51IGwdy2q6jIASVnf/iEJSgLj2RFS3jsVeGquJPFXJPnqWSyNewKvSLC9R07uahZ2nO7RQloC98r39FdPSn6Sr6auJwDXXSZf3zuBfWoG+R6fPwU4NAp4OlYyjmTjxBflUP8AZCw2VuFJDn9vWUeNdtLNwPcfAn3K/OeJgKpzNYvqX6sjIjJE3YqftyzHvOevw+nyg1RUFG79eQuWz3se1/meoVZRNXoFBQV6qO5ShYzv3wZOawv0OAeY2RpIvtX9l2zgCA7v2IKta9di4y/p+Dn1ZzS74jxVZhQb8fN/2+PjGzIgscqw7eP/4v3IG7BEVT3uXISFZ7XH+8ffim34B1tvOhnvt5dh6dKT1TWn5vLv9xyGtSuBvc9eWDjdvk7sX4XfHonFp91kWsfu+DQmEb+udEcTY5tnPIxFk6805+l8LDIfyMJGd/VoyRZLoXF9ODDyLD1C87ie9QAwfbwULBurO6tJ6as/8OV6PU2sfB2ofwbw7lN6nkbAOQ8Cm/UtEW6X4RAppH59CHh9iLkO1Z3xslHAMxzYBDwxSArQUixRy59wFfD7Hj1RLLhdxkvq+eh/QEs1T3Pgqnd0KVGUtg2nlLv0KO+u171GcdpNAkG7Espmu/4B1q0D8iRnPy6F0ZH/BdroaYdk2pvXyHBDWbccwl5DZZfstTde+1Fk22L1POCSvnoder6Bb7prvF84CRgs5fyUGKChTGvSHXjsCzmH9HR/tvHPr8A1fczlG0goHPqMnJFy6AJK1rdN3lZ1rL6bDLwsXzlXWafZUglesu1EOYaW544HIhOBHdK/4XM5lWT68QkysEJOJ/natV7Pe+rU08t3Ggajlce1kr2s6fZ17pKMNFpOzQYyXr3OiyfK/LbXqbZ50dPAA+ea8zQJA56XQGKdlhZVwyxnWOU4vBVIvRJoJSdMiLzpfeQE+lVOJMv/yRvYUU6y1+QzqOapJ+f+lWny4tTEtXIyyI63kheQJ4N3yJtqHYhRs9QMQk7miC7APCn3rrQ+U/IZamC7JnGtfJas5TyW1byn+5pv13LgFgmiTWS82scB8maulu8ORTZ7vdeiVtdksLtm0CCHoIP1gSqOfLW4FgA3y3t3t3ztGPf1lu+ChVnAWZJzrTsnNJIw2E/e72w5X+wayFeFfN1XEtngvEeB8FDzBXaQEzBDvuStO8RkyHtpvPgBwB9ysp0vXzjqy+I/SfLB1DM9I6+o8CBFAT94Va17TC9mvl/fkh83tW6Z1lrmf14+GIXn/m9y0GT8s+8BZ+t5esiH6Qd93v0mXwhq3CUSVPFZcIdF+/WJJXVEVMc1bIImJV7L3xBNSp6ByqFevXo48cQT9VDVWvQk0FYKJEbry+ekDCUl1L8kN8VLDnLXwmzHtgmDMLtvX8y7+HHsk5n7jDwJTfXUEoWehFMzlmDIgifQwtacVXUDbpACHdqizwsy/N276CSF/UZjPy6cPvDpQbogswerJt+MpVO2o+0b3+DCL19F+yMfY9kNLyFvtzGDac0n2Ljpcpz+9Y84/eGTsPfNB/DHV37+MWC3FA6OnCcF1BLO7x/kYMVJIBwvB2jtMuAyWfcFscCf9iK1pI8PJa58mQ98+ziwRA7siz+Ykx6WouBa6T9TtnH1R9Kvm+F9fp37T9avXCjJS0qU6b/LNAnTg/6UwqaqtrPfg08KLtmqTaKk8amXAx+PlvllPUpp2+gFfKFHeXf/d4+7cNlR8upMKSd1lQLr8ZJNJ19hFLU9vHIx0EXK3r0ukPftNuBBCW1WU9UMWWbMLxLkpFy2Nkf6ZfeH3Sjnl5XvbfvxaOGlKDarpAA8Qg7t6VJEU4dCz/uh7Ed9PYvy7QtSrhwr65WX/Vo/WVcc8InVoru0bcjhu0nKqb/8R0KcbC/nMzkFngdufL8cNaQlkVNhqOyLOlYXSLi94w3JNT30tFK0O1/Kq7L/Xz8sA7bmrKoboWr3IoH50v/Hu2ZQf9l2rO62WlBKBntoODBNZvhaXucPElhXPijhUU4jHWEMC16VdTwmuyvbuLsDcM9dwLJ/9URxghzn9+V9VefI4BcljHr9XcUvO+Qzo1Kz0W2Qj7ZVapfPUKacROO/BV76Ud7/bwDHQtmQ7IT9jwybZ8gLkOTzsxzUaf+T8/5WYLq8KPWnq/fkRedKulatwOzNXZ+VLzPD0XLw5YQ5Sg5WpLzAOEnMK2xhVOl4qV5OPsdyPhVROF116vMXL+vrBsSepGeQ13evvGmfyxuumrqunC/LyIG+Ut54dSzlQ/SctbhXly95pau5EjSUlzjzE+BEOdhd5HM17QH3H2Isf8pXURtJ7j1HAmfI6m+1KkHls3ZAv7E/y0sMl6/Zz7YAx/U1x1nUejPlfJe9N97bD+WrpMy2b3a/n1vUd6ger+TIDg6X779LPpXv5lzZQfnFuGQo8KMOcoNekpNbwn7rNcAUed8mZMsHMVlOZjnZp+nYfPPX5sFZIIHbF2u66tb8JD9kLeTFyAvpLQFV2SLf1cNukPdAQqtL1vmyfMffNwT4dLU53TJZwv5Tcs7kzpHTRN6zCfJmqL86Rd1srjtNvowwKHjDorq7aVk6IqK6QoW0Zs0qrfFbrbBuqRS25Tf8uvukk9/QcJ+HoxXavLYYV2/ahKv//g6n9F2C388dhm8W25NaMY5qjOYdu6BNuxaoZ2vOqrqjW0kSkbFN2slwh1Y4SlJASLPWhdPbtA1VLfgkyC3DX1OXoEH84zh7cG+06zMEp99/LRou+0SCiK3qMPRMdP1fLMJ6hCHyynFo320XDuyw1cpVVLqk6XAptd0nBY7Okj4mSkmsoRRsZ0saKiQx4xY5mMd1Bs6+A/ifvMbNukDaupMsJ0U+9bKb6jacqmtvXUknJf03pUt+U8olx5nbeOppYOdbUuqzB1IpiN56vdlUNm6CBEMpcBfoR8KUto0GQAc9yrvrIMncKgwdLZu+SEKUKnIdI4HtAikLq1Xa3SNlK/WkqSOy6QltZf5jgQ/U5Z1/yb9fAHdJWfHKU2XdEcBtT0mhdDawyKoqtu2Hz1aI8nL3y8tqITvQWBJoCynbq3nbeZ2fbYcB46T82a07cK2E2/9KYXzaIj2xlG389X8SJuVQvf4scKoEjAgJB08lyNs5TcqYep4SSRY4U1Vk+Oh6SL4v/DOFvF3fbjeP1U45Zq0lOxx7pZRd7UmtGPXks9lR9r+1SmjyYbCas6qumfpwyJuiXqNqKqsGW8r7YE237vy6SU7RjyRPqdrfs+R1nizbflJC9WcSijfYTqvOl5l/JOom79foe2VdchB22vaxu5wH58t5oA5lHwnZ58h8ZfbwuWZqNjpZ2ULrSEtwfFvS0TB5M66VVBN2hnwOpIC/UULEIlvt/WF5AbdLQIuQiDNMgmQ/+Q4qUClMXn07edHt5UCovybYm7u2sf1Zq6e88D8l5L0ln5//kwBybG/5zNmq2+rJCWYsJwfS+suHXeF0Caf/yEk+Wvb5uc+Ai+X1KFvkYKfLd9JkCaVGU1d5HU9JMv9B3nSVT+TcaKN3y7vr1M79h5D6cj5fNFjee+lXn8UY+Sxaf8ixHDsa2LpPcrXknA1y3p4nm/GIvup8kwznks/jZlVN7cW+XvXeDrbyblmMkSRqvZ8nyvtib16dlSon7BjggYskBcuH4F4JghF/AjPkO04JlQ+fOnFD8uTFS8AbLDt01sVy3OTA/6Uvvm2pP/hHF3O1sTVdteR4bxzw04VAhryvreRAK6rp6hr5YL8ogbG7HNSrH5IAK+fKBxIy7cH2qlvlXJJzoZcsf698oWyW81L9tDRsaa6/lfpTWZPgrlkkIiLfevbsqfvqphFvA799IIUMKUieKL+Jx5wPvDRDCh9Ws0ZvR4Wi0/mj0Pn4xdi4IFePrGSHD6n/46jmoYXltyY9espP93bsWWO7YU5IfRxl/ZpLv/zff6Gq0CIFiGWF7ZOKOiBBsI2aTw83kMLHKVLw+NPrutfCpqvyr4+QUjwpoKyQ0vutUbINnToaSuFlv2zXY7dkpSoZGORFlmUbZWmG6i/Zlz6XStCQ8vl738jwLinAyoqekVxgrbv+icBSKXwdtBfQSiIfy/fny3p/APpLf3N541VT1i90hYOlvrx2Wb1JcvLJcg7vt/39oCS75NTZLuXUc9VbqvfzxLtlH+Vw+7Wbkltm6EoN7+57KbjLaouoJ4F8pGpFORX4xq9EWnGH5XioTGh/AlMPdR2cBMg1ttZ69dQfa2z9hadYIE1aZqZmo5M34CIp7BtkWL1xR9siUUsVtjbLftoTiOxVfb1n6q9LZfmMWxrLNq99Wd4o2f6zElDG3waU9f5iue8B/5GA8ZCc8Lfbquz2bZSAK91QiXnWSRUmQeWwnFTqTShLM1R/yHLHnAm88Yp8DclLWqjuMCXjjK8g+bf/JNnsTuCGcPn8Ff+kqfL7UEKd9X6unS7vnx6vqA9SCznhrfeoXnugrwwv86rVU46RD65BdnS27PCjErL9JvMnxwDPHyOh/H1Zhe3PWgfVXzskaDa3viRlOydISF0pH3z73zqtc0pRXyrFYFgkIqJqU113Q1WXxR1/EfDObxJVpLu9K3DfcCDyCqOCqGY4qp76vxR6dhdej/bvqpX4Fy3RtJt55WSFRZ0GNJX3IDXLKLf61EAKIVttTa0OSKHnF0lxx6qGXIHQxQyft8s+eKePfrbCTEX08q8ZaoVIefCEdsBl7wJ/e23j0jK8XZ3OAaZ8K0VBedPXSEH3knVAXKJnq0RVFix8u9YDi2Wehn4GiNY9gHZSuH33D899XCs5wK/dlDJleyl7WjVD9q6jrZa2uqlMpfZlpy0YrlKVafL6u/lsSVAdJNmoN86qIVdUknfJidRDDmZlqCehYfDFwN6t7mt+/bH1ayB2tJyMH0nQ9GrbGRom4VAO6ss/ep1UXxifPX+boZbVv+qLUcLoHvWvfE2dfh7w/XdGjDLsl4z+nXyFRHvdLKdS1Zcd2SFB3/rjzSEJlktkuE93PSIQ5Pt3+i0S2v8FPnvdMygqRvDbIQfCqiKXL4jf5f3uGWE2mygjhkUiIqoW6kY7u3bZSnLVQcpqbY4H7nxHymtbgKmjJDvpSao4bt3gZuuaZfj9+buwelFbtOijijaN0LR7Zxz8fgbyflqFzctmYvErC6V08jf++e1P7LAKCo06onHnHdiRMQN/Lpf1rF2Ddbl/u29G0rg9mnSuj/2zpmHJb6vMm+k4V5rNqkL74JiRfXEg7UF8N2e5bGM2fnzyXezvczm6RJWnasGHFpKYXzofSIsD4lOApVKoMO5IIolnsS5Jxt0lJbongKeksLjOCUyYIK/zdGBIlDndL1L47dUYmPk+8LOEU7UNpxSKjcTTWwqfw4AXbgDe/9m8xknZIoUdq0rVLyVsQ8pO/jRD9Yd1g5t1kpk/vQ9IzgXOUZehdpJDeC2QfpuUmbOlqKZrRVXObqgz7wF5Scay0u2QctxBOf03qeHNuhK1AFgop5FLj9urrqWV87KlhDv73/3//kAO10wJk2ofnpFyo5RFh0juV0rbRqdzgWvlNd8mZc3sfL3dPcA/0mOP5i3ay3bl34/Szf1Z+hOwYb85zS+yPusGN6sXA/fcDOSdIGVm1bJOVty7FTDjU2DZGjnV3gYmyam1M0fKtPKarFaiLbsBrVZJsJ2tj4lMy1e1SFpLSbdt5c37SI6HquhW28qVeZT2copeKcHwQXk/vnfJNiTj3C+vZfjVEmprTOlXXsD1l8uBuFte5BJ5kT8ACQ/LSSlh7kw5ofzVRN6srvKd8MmH8kbJAVAH4k9dX7dDAtwtDwBZ8tkyxn8FPPmSbOMU+fIzZ8EuOahq2jo52dSX0x59km+Uk0nZLgnsggvlzZD13CPLbVTzSrdVN3dvJeNuks/xvfImz/5TTkI1Uk6WAvkOUSeu+p718dlTnb0ZaonkfPpmOrBIVq82/bucE6Pkq6nVCGCA+ruVnLzD5b2uN0V2I1OC6Ap5mePk3JPz4OKqvOtpzFg58ScDT8ySD6rsxNMJcuIfCwxTOyEvYusG+W7Tf3wzrn2UY258CC1y3KzjW6COv/yYWB+k3XrGmXKcL5cD8NKbEtLlPVDT1m2U8K//hHTWVUA3eZ9vk+mr5Xx4/zEJlbLsfyVNy3vht4495cvxW4ZFIqJDu7dig3zZrlu3zfhD3N5/Nkv/Omz8Z59ZaDm0W77f1fR12GbOgM1q/o3/YJ9VqqlFVEj77bff9BBZGknB6cKh6tYzFvcNbmaf0h9/vLEBLR5/B2cOlNINWiHylufRpds3WHnRWZh3zadoePV/0XjPYqy9IxkrrVairc7G8cl3IXT58/jlXFlP31OQfe+X7uu6GoThhEeS0bZ+OnIGnmHeTOfqt7DOSItN0WPMqzhuVEtsufFcfHH+zdgUcgX6vHkrIsrx1+FixUuhY44UApc+DZygr8OJe1FK3bqZ6Rn3SwIaLQlokEyTVPSpJJf5Uho7tixFCEkID00DHFKAOT3C3EbfeyXF6MLNlVLInXkN8LoERnXnRjV9+Cfu1OCXUrYRINYNbrqEAdfJbl8nu3mHvqlK9FPA1w9JeVnKh32OMee78Hn3JU0r0vSy0j0s4cj1ChCphuWlq1Nm398SbiQ399DzRMVIOJJw98mDni3dwqSAfFQq0FPvwy0zgP9FmtNK24ZakbqnxUOSUxKGAMeoaccDz1vXPGpN5DW9LG/9rxPM/fnPJcD/bdUT/WG7wU2YZImPJRFMnQqcpM5dKdw//bq8vVKWPS5c9l3yzB1xsn9yWsW/JtnFXAO6yet/QwLA7FH6mMjrffYXPVGofXzzOXmNSXKs9PEe9ZmZd1QQekz6L5V9Pk9C4xlj5Hg9LqeYlKPtwbt6yWcoVj5rL58D3Cqppoe82c7+8nmUF2W1VPVHQznfX3xDQpoc1OPlIKkDMUJSk6piOyRhY/M881a0anwf+ZJbPdhzG9Pk5FDT1PWU6jGlH0uiVsMXysmk7JLQ86sc1e/l5LY+n6q7e6E5Xd0WbMIXEl5k+UfkRAlT0+WEDOQzu+VlfP2MZNYoc9N9r5BR0i2U89uK1e3lpc1/GfIdKtlZXZYpXwlZn8pLDtDf1vwSJd+Vn8n36fTL5ASWY/CShLnpM+U7SVVnS6C7Vb5DrescjWsf5Tuv8AdByZETVh/fAXJiq9vcDpHQpoZn6BmXfS0vXkLmzXLOWO9Fl2h5j3Qb07byXT1DPlwbHpb3Qs6H8TL/U/I9f1kZazdPvwV45jyEFBTsCOy3aBnkuzYiqndnPUREtUHO8nUID/P9K6Y+0507BaRBF5qFhqK5/WKTSrQu82qcMOIDdfM8D8c+uAg/PXYGmq3LxNUnjMAHRWfAop8ewxmVtJuL5/wPTVp0R9TZjxjDm9dk44/sOzDgmuIvwlA1dTNmzMBVV0mJyGbz5p1o1aopGjSoZ4TFpUuXVtudSO3U8x67dQtUc0ai4KcenfGKlPV/lmxf+x/kQ0Q1HWsWiajO6xz7PrYcOYIjXl2OCormDHh/S9HpR3IqLyjWFQyKRERENVfQhcWhQ4eWqyMiqivUozPq+t1QiYiIqHRB1wxVBb9p06frIf+oB/PzWYtE/skJwmaoNVWgm6E2bdpIgmJZrm6vfAcOHECDwkcuEBERUU3CsCgCFxazkegYi4wj7kPaZ8JspMeH6aHyUOtMQURWOjxX47mtkJA+SCgyTyAUt32qqxgWq87iL/5n/HuM4zrj3382/YqVS17EhTesMoZ9KSks1jSHDx/Ghg0udO4crscQERFRTRKUYbE8AhcW7cHKDHSZsalwJkUbc5RdSWHRPd6VFoeYrBhkpcer5+UGEMMieWJYrDpLv56AtbnpesjUpFlXnHfFN3qoqOLCYkGB/Um8wPbtBWip7sdfjVRYXLs2H926RegxREREVJMEfc2iqjUsraYxsDWLXsHKlYa4mDyMcyahfHHRv7BYeaGOYZE8MSzWbMWFRbuadDdUIiIiqrl4N9TKFjYAMY5MzLUeNaPCo8OBqKgoo/N8BI0LaXHFTVNUcHPA4cdza7IT3etxz6+Wj0NaWmLhtLg0/dBWxbZvDkeizE1ERERERHUVw2KVkrAWk4zIVCdycnKQM3sCcsdKeDPymgqKMciKyTKnSefZclVNHwvIsr6atLrSUpDpiMEAXfsXnaS3kTMZsZkpehuKE8l5g8xpk0fAmfy6DoVq37IQk2Uu50wFUuxBkoiChrobarNmtavW9uDPwLH1gWd/1yMC6d8CbC34Vw8QERGRhWGxSjgQoUKcKx+5iMUgK+uFxWNcrBN5KpO5FiDLGYtxxbT1zEowg6RnTnRi4hCzhjAmORKp9usVs63awzHI1KNMDiSM1iuJHiR7k4t8Y/tq39zrixqTAaexY0QUjGrbozO+eh9YNRy49jg94shmrHj7Nnx2XBjeb98e73ftjWlXvQDnhgN6Bj8dWYufbjgBsx2XYVG+HufTEfydOgjvD3kda/UYIiKiYMewWNmMEBiJ8Apd7+eUzuEjvDkwYbZZC+m0XxOpmpOOBSYbNYuzkeDQ40sVq5fR6yz3TXmIapn967B47id447nH8OD992Py/M16gmUnlmd/jMnPPGpMf/DRZzB52iL8vV9PpoDYuVNFMh9ygUdfBW6W77UOxq/WfqyefB1+vCcb9W94E+cuWYwBGYlotmoq1v+xw1jEbyHt0GHwEDQ960K076bH+WmP7O8h3U9ERBSMGBYrldXsVAe5sHBEwvP6xZRMXdOor2303fTTgZjkdKRirOc1hsVx5cHpiDBrGY2waowtmd43Nj2lOilvEeZ/78LeDuHo0liPs1mX/Qk+/TIPh8L64bKbb8JV/bphz2+zkDl/NcpYj0Xe9gG/ZQKDugL9JsPn8fw5HfjuVOCW8yTbyfCR1R/it0d+QejjU3HR7Rege5eu6Hzadbjw+29x/sA25kJ+a4hjrnkDl2SMQ3gZH/c4dSTQ9Uwg9RsJjkyNREQUhBgWA87dlNNh3EXUaWs6Go2krATkjtU3kTGuEbRqBMMQn56KyOQY3Xy06A1uopPU/DFwxKWhxEgXPRoJSMYQtY2EPET6VbNo7hts2/fnRjpEQSFiCMY/cA/GX30y2jfU42w6R1+O6+NvxOjLo3F8t2MQFd0PfbvWx5b1q1Hznl5YOnU31N9++00PVY99G4DMhyRstQJOugz4ZxDwSAxQX08v9A/w1gvA8FvkbTLC3BFs/ToLO44ahu6XRxqzFHFkOb4b1N5snnpjJjbMuQ/pYaqp6rGYOSUHB73nUV2nCVhqLGzZjw2z7kNm764yvSs+vmIKth7Wk7QBDwIjGwN3SohtJWF3VCqwZo+eSEREFAT46AwRuEdnEAW/4H50hhPTn/kAG0+5HWMuaKfH+bIWC15/E1/X649bR52H6n1aoafa8OiMt4cBY+Qrt9U5wD2JwHXnA619hHQl93XghInAgiXA2cbpoK4dvBDZj5+Ik9ZPxHES6vZs3Ix/jQQIHNW8PVq3OCLjNmHNO9fgpy+i0Pm8E9H5vwNw4O3r8Ns7J+G4pak4qaW13BFs+UDmm3SqXp/pyOq38flp92Bv3Cs44/4zgWXvYNm976Kgw13oP3s0uuj5lL0bgdlTgIefBf6QsDjwKWDqXUBLPZ2IiKi2Ys0iEVFZrV+BlRsOom2n7ghMNK5bViySwNobuFsC1Yhziw+Kqgow/Xng1NuA04r7u8GRVfj1mr6Y3Vd1J+Orj1fJyIZo2qELQps1kJC3Cc3ib8KxEb1w3IjhaLR/Ff6VcGfN06aLns+Du/ay11NxRjPX7oMmoFu/3Xq6p8YdgP6XAfcnAN2PAL87JUDqaURERLVZUIZFVVNodd7DvjoiIv/txM/Zi7C6XiROPbMbyniZW42gHp1RnXdDfTQfmCfBKvMGIOxo4HQJWh9IgNzl1c5lw2fAUzLvLXHwOM6Nm7eSPLcW/66XgZDeOHvuJly98RuEn2RO9xDSA031jWtCTrkHIzfOxlnFtF6127vzH1mgFRoUVg82QOtenm36D0siXJwBXHkC0K4XcMM7wPWfAktfBXzXvRMREdUuQRcWVXPS8nRERKXbid8zpmCmsx6OH3IxTj+69n6FVudzFuvLpvuNAr7aAOTNA87ZCFx7FnDuRHWloNuMF4GOicCIjnqEIQRtTo9G6OEvsfbzXD0u8MxA+g8ObNcjcADbVnjeLey9WOAUCbI/S/icKZMKVgCPjADa1sa/IBAREfnAZqhERH44tC0HX7z5Mqb+cRROuvRGjDy5Fb9AK6o+0LMfMOkrYHueBC0JjNYx3fV/wMTvgNuukuCmx1lCel+JXte1x64HR2LWCzOxcuVabF27Dvu26Rn278C2tWuxe5e6t+oe7JP+Ig/d1/Ns9Z5v7UbsOSCB9LwYtDg8AyvuS8fqtX9j9dwk/PVlqLmsFjUOcErQXZEOXBjlWftJREQUDFjWIaI679Cerdi4fj3Wr9+F/YdleG+B9K/Hpn/2wbgBZv4cTH7xA3y9rjXOHD4CZ3T4V8+/Fbtr6SMTCgoKdF/N0KwnMPxc991Qv0gBtl4NjIzQIzy0xnFPzsVpz0Tj4Jvj8P1ZfTH75Guw8fDxCO3aHEdWvY/svifjp+Rl8mZORU7fvpjzlKRPG3Me8zpH+3yzT74ev62SQNr9Kpz+Vjwafnk7vul7Jr5P64quo7vrpU2nD5XA2FYPEBERBaGguxsqEVWuYLwb6vrsN/DGPJd65J+HFifE4ZbL+6KZczqe+eAXFH3ce1f0v30MSrxxahWrDXdDLVUucN4JwICvgUdO1+OIiIioyjEsElGZBPejM2q/YAiLB3cBmyWZt+wENFVP4SciIqJqwWaoRER1jLobasOGxT2vovqpG+B06sygSEREVN0YFomI6qCoqCjdR0RERORb0DdDHTp0qO4rSjXTKqmpFhEVxWaoNduHH36o+9z4PUdERETlUSfC4rTp0/WQm/Uw/gsuuAC333670U9EpWNYrNn279+P9PR0BkQiIiKqsDrfDHX+/Pl44YUX9FBFZSPR4TCad1ldXJpLT6v9shMdRV9PdiIcidmAKw1xjjgE0cslIiIiIqrTeM2iUIExcByYMDsHOTmqm4zI5BgzTNVKKvy6A2D0oFg48zzTYPbcTMQOigbC4pHuTEd8mJ5ARERERES1WtCHxZkzZ6JB/fqod5TnS1VNU62u8kQjKSsBjsy5EruCQFiE12vJxtzMWKisSETBa/UHQLOuwNzNeoTf9mPXhk3496AeJCIiololKMPipk2b8MQTTxjXK6pu2LBhePrpp7GtoAAhVX0r9rABiHFkYq6VsIzmmu6mqp6Vji6kxXlP86zd8xzW/dnudZotQuMK1+HRbNS2bYcjUYc+vY60RK9l1PixyDiyDBOHyPxqxd6vJXsuMmMHSSQ2Bjz308e2VDNW9+v1Mb81sYT9TEyMs40jokq3D/gsFTj2NuC8A59jzrHtMfP9dXqiZRuW3XMS3r/sfWzVY5SdXz2G2Scdh1lPLcIePa581uHXMcci/ZH/w249hoiIiCpf0IVFFRTHjx8vQcOhx5i1iGr4tttuQ8HWAj22OkjgiUlGZKrTbKY6ewJyx1qBSQXFGGTFZOkmrDlI8qvGzonkFCDZKeucPAIZY6KQgGRzHTLsTH7dHbZk3TFZ5radUvhLKUxqso68QV7LRCNJZhoR0sdoVus0diYMA2IcyM03lytsglqE722pZqyZVtKUoJkrb1HWAnNdrgVZQIRqw1ryfuZGJMPpTNIBlShA9q/D4rmf4I3nHsOD99+PyfO9q9B2Ynn2x5j8zKPG9PsffBTPTJ6GRX/v19NruYPyCv/V/V42LwCe+gO4LQ5o3Lk7QtvqCR7+xYEde9GgSzs00GOUpuH/QZszT8XRZ4SjiR5XUxyW9LqLNZ5EREQlCrqw+Prrr+Oyyy7H0Is9H5mhhtX4N998s0iT1MrnMHOQKx+5sDXbDIvHuFgnjMsAXQuQ5YzFuDJf9OdAQnK8xDgRPcgIdzED9DpkOFa2aGQ7Y9tOo5bQqEEck2G7/lDWMVrvlH0ZH8IGxKiEJ9HWhXxJe8br8lbctlQz1tx8WVJlxVzEjHOvS2VFY79L2c/C10YUSHmLMP97F/Z2CEeXxnqczT7Xj/jm+7/QKGoQrrh5HEbFnoQWmxfjq2+XYZeepzY6WAAsSAH6tAHu+UaPtDsMzH1VQt9NwMU91IhGaNCqIfbm5WM3tmL1l7OwdMl6yZo7sXfNLtQ7uiXqGwua6nUbjAGZWRgwqD1q2vP1d84BWnUArkwG8mvzm0hERFSJgi4sLlq0qEhQtKjxavpRVRkWjRAYifAakXFiMVnVHurOrC0sI9UUFVlYkC2vS/qKz24+tmUt68rG3FxZNloN58GljpHHugKwn0RlETEE4x+4B+OvPhntG+pxNo3CzscN992N+GFnoU+3Tgg/5VT07tgQBw8ewCE9T21SkAukXA20aQ8MSgR63w5c426MUejfpcBLEqpulnlbGWOao3G3Zjhy8LB0q7H6wf/hj8k/SGDehwP/7EfjHsegqcy19fMx+Lh9e7yvO+9mq8b00yfg+5RRmBrWEe937olpd2Zg/T49w8GNWP7yNYXTMp/6HvskuHrY+Rt+vHUgPuks25B50q94HjkbdVXhslcwveOl+OGvw9iccQM+7jEaSzYBa6cMxQenP4Ll24HQs4G0G4CfHgZ6yovreyUwP9+oZCUiIiIt6MKiL+qZilZXtaxmp7rZZFg4IuF5/WKKdYMYfT2gu8mlJQwRDl37qKjrBHVvmehtF11/WammqMDEMRNVVaBZo+mt2G2Zy2YlpCDXWFYN52Lu63nudQVsP4nKoGETNKmn+0uzfzOWzp6F7zd1xhnnnISWenStIIHpjj5A++OB1yWYvf6dZK5twPRHgbO66nlsslOA/DjgiuP0CHRGq95tsS/3L+zbtBZ7Wp6Gprs3YPfff2NPQTs0bNfImKvVgMcxcMkSDJn/PI5ubYwq6u/p2PjXYPRduAhnPdUfBz+8B7/PM5v/bl/wLH59/Ac0vns6LvhpNo5t+zXW/Z+9+m8Llj7xP+TOaYWu6T9g4OdPoMVfz+PXOz/GetUyuLWE1lZrsPuvndi9ehPqtyvAv9v248DOf3AkLAJt5U2r3xG49hlgRQHw+2fAieprqCfQ4Szgqy3mVoiIiOq6OhEWq5a7CaXDkYKILKft2kPz7qi5Y/XNW4xr86zr78IQn55qPGrDaH4pnXm/Fxk/Lta4FtFYZq6qdysPc9uwrb/0R3pEY1Cs+Xrs86qmqH3szV2LKH5bRjNWp25yqodzM3Nt6yrPfhJVhU349r1n8PBjL2Dqr0fQZ9CFOPsYH9WQNdkeYIl8/toPAO65BbigL4oNyYdXA69+CFx/E9DNNk+D5q0QsmsX9m5YiQOnxKD5vr+xY/chHDkcivqhZiPUeqFt0aZLF7SRVHZUce1PD56ETuMuRUSPMPT871h0Cv8HB/45IBO24e8vv8SBU+/EyTecjY5dInHs/+LRto2tzm/jj1j7+d9ofucTOOPsHuhwypXoO2EwQuZl4K8Nh+UFdkHTo3fj4O6/8c/y9mgd0wr7Nq6S/i1o7AiDvaVxiOTbPucBY+4DLo0ECpYB6yt2Nx4iIqKgEVJQsOOI7q9y+a6NiOrdWQ8FhroLqrqZja+mqDM/n4mcHCceeOAB4y6pduoRG0RUupzl6xAe1kEPeVKf6c6dmuuhimkWGormzZvpoarixPRnPsDGU27HmAva6XFe9m/Gn9/Nw6wFeWh23rX43wVhqEmRcf/+/UhPT8dVV12lx3j6dz0w603g3icBl+z4hTcCt0sXfawEQT2PsugB4D9zgF/+DzjRlq5UE9J5j3dA77u2YM3fQ9EpZyqOXHY81lz9Hbr9+ilOt3+lr/sccwaMwsEHfsXQq90TjHWM2orwwvl/xzf/uQDbb1bzAb+OGYClWx/AkE+vRhtjCXU31AHI6/AmhjzyH4T6WO+hxRORMXgqjp4+DwP+8ze+7X8+to16H63nfIvmI/dg7T9D0WbOddgwOBsXX3cMQuSXb+tS4J3n5HdDQvE/knMvGAc8eSdwWkdjlURERHVe0NUsjh49Gp9++okRDO3UsBqvphvDEg7tHRGRXxq2w7HRl2PQCQ3x1++/In+vHl9LNOkExD0I5G6TQJgGNP4MGBQF3DZXz6BsBtKmAFc95BkUlTbde6PB5nXYsdKFeh26o2mbrdidvw1H2nVBE7MVagU1QYMWslFVe2ndbPbgZuxc9o8eEPXqIUR+vQ7t2ll4jWHB6uXS3w2hx6g/VrRG6LGtsH/579jVNAwdw4/BYdcy7F7TBI07hho329meAbQ9AXhggbz2dImjcjzmPsugSEREZBd0YbF9+/Z4+eWXjRpE+7WKaliNV9OJiCpmH/YfOCwh5gD218Y73IijmgCnxgHTciUo/QTE2q5ZXC4B8sOmwA3n6RF2jZqj/oG/sWdlAzQJ64zQTnuwfeFiHAxtiYZGK9SD2LtlHbauXYutW7bj8BHg8I7NxnDBtr0ovSlLa3Q9/3w0+Pl5LH7zO2xYm4s/p7yGzZtt91ntcDq6XNwVO59/AD98twobf/kISybOwZGBI3BMR/Wz1h4two/G4bxlONStB5q274H6P36OHQUd0KSDugUP0CAM+Ow3YNtfwMPDgI4BCbpERETBJSivWVSBUDU1tdccqmEGRSLy5dCerdi4fj3Wr9+F/ZIBD+0tkP712PTPPvX0CEkUTvzfgkVYtkbNk49fsj7Fgpx/0TayD3qFGquoveRXoNOpwCDrbqg7gPeeA067CzjdvAWqp+bt0ajZz9j6+T40btcEzXv2xN6FP+CgvnGMurbzzwcHYHbfvph9wZ0SEGWVjww0hhe8+LNfD+dvOeBunPTgGdj77CWYf9oQ/FlwPrqcZ2+S3BbHPfAWIgf/g7/jzsC8ix/AjmPuxEnPX4FORpvg+mh09NHY9+XnOHhMGEI7dEXT7T9h578RaNbZfOJj05OBYSeoh4EQERFRcYLumkUiqlzBeM3i+uw38MY8F6wnN1hanBCHWy7vi2ar5uH1T77Dmp37jfBYr1EbHHPiORg85Ax0rWH3uCntmsXSbJ4NnHAt8NrvEqY66ZFERERUJzEsElGZBPcNbmq/iobFf7cB2w4A7dp73vCGiIiI6p6gbIZKRETl06Q10JlBkYiIiATDIhERERERERXBsEhEFERUE1Tlww8/LOyIiIiIyoPXLBJRmfCaRSIiIqK6gTWLREREREREVATDIhERERERERURtGHx0KFDyM7OxuOPP45rr70WF198sdGpfjVOTVPzBFY2Eh0OREVFFXaJ2db4OKS5vPpdaYgrHE9ERERERFRzBGVYdLlcGD9+PH777TcjHL762mtInzbN6FS/GqemqXnUvIHlwITZOcjJMbukaD3al7B4pDvTER+mh4moeuxfh8VzP8Ebzz2GB++/H5Pnb9YT3Pb8tQTffvMLVv2rhpyY/ozv+YiIiIiCRdCFxfXr1+OBBx7AhAkTcPOYMejYqRPq1aunp8LoV+PUNDWPmlctQ0R1WN4izP/ehb0dwtGlsR7nZfXi+Zj9XR7+CXSDBCIiIqIaKujC4pQpU3D33fegc5cuekzx1DxqXrVM9fDRPDVbNU01m7LGFbZPdSEtzt281Wzaqka753U4EmUNRFQuEUMw/oF7MP7qk9G+oR7nYRM2b/0XIa3aohtv0EpERER1RNCFxcWLFyOyd6QeKp2aVy0TOE5MHGKGurIHOCeSU4BkpxM5sydIT4IZJLNfR3JkqlfTVgmXMVmIyZJ5ZZwzFUjhxY9E5dOwCZq4GyD4sAVbtuxD86PboYkeQ0RERBTsgvYGN9XHfc2i05mEki5ZLMqBhOR4GJcwhsVjXKwTeSr/hUXAkTnWVtMoXPnItQXTqDEZcBozE1HArd2ALXsboE2HrgjVo4iIiIiCXdCFxZNPPhm5y3P1UOnUvGqZmseFfOtlGDfCcSIZCZ7NUBGLybq20QinJd5Nh4jK61BBAQr2t0Cb9k31GCIiIqLgF3RhcdSoUXj22Wewbu1aPaZ4ah41r1qmZnAia4GuHXQtQJYzFoNs+S8sPh2zJ/RBbr7MExaOSGSy6SlRFVizbiP+bdQSLRpsM26ItX79Luw/LCFybwG27uYdb4iIiCg4BV1Y7NSpE5544glMnDgRr06ejA1SsLM/T1H1q3FqmppHzauWCRxb01DpPJqOlsqByDyz9jBqyEREpupmrNmJheuLSY7EOONZG9FIykoAkmMKpzncVY5EFDB7sLVgOw7uy8eXaSlISVHdZ/hjF7D++3fx6fcFej4iIiKi4BJSULDjiO6vcvmujYjq3VkPBZYKhd98843RrVixAtu2bTPGt27dGr169cK5555rdPbHalQvdTfUFERk8bmLVLPlLF+H8LAOesiT+kx37tRcD1VMs9BQNG9eNbcePbRnK7Zs34/DWIOv3v4MW46/Fpee0gL1mhyNtq0a+firmnrO4gfYeMrtGHNBOz2OiIiIKLgEbVisfRgWqXYIxrC4PvsNvDHPhX162NLihDjccnlfFN0LhkUiIiIKfgyLNQbDItUOwRgWiYiIiKgoPjqjxohGkpNBkYiIiIiIagaGRSIiIiIiIiqCYZGIiIiIiIiKYFgkIiIiIiKiIhgWiYiIiIiIqAiGRSIiIiIiIiqCYZGIiIiIiIiKCOrnLP7xxx/47LPPsGjRIj3GdOaZZ2L48OE4/vjj9Rgi8hefs0hERERUNwRtzeILL7yA++67r0hQVNQ4Ne2NN97QY4iIiIiIiMguKMOiCoHz5883+i+//Aq8+957mDZ9utGpfjVOUbWOgQ2M2Uh0OBAVFVXYJWbrSdVC7U8c0lx6kIiIiIiIyE9BFxatpqfKc889h8suvwyhoaHGsKL61Tg1TVHzqmUCx4EJs3OQk2N2SdF6NBERERERUS0SdGHRCoqq9jCsRw/s3r3b6CzWsJpmr2EkIiIiIiIit6ALi9Y1ihcNvcj4V7n2mmsKQ6Lqt1jz+LquMXBcSItzIM5qC5qdCEdcmow1BsxmotlpiNPNVwvnE9mJ7iatjsL2rHqZtMTCafZl4LKvK1+P1GzTHI5EWZNiri8xMc42joiIiIiI6rqgvcGN1fRU/auuU1QhUXWq3z4t8JyYOEQHPCN8hSE+PRWRya9LvwSzsUBqeryMtTiRnAIkO53ImT1BehIKrzGMTpJxRnPWyYjNTLFdeyjL5A0yp00eAaexbkXWH5OMyFRzuWRkIdMYr6hpWYjJMqc5U4GUwhU6kRuRDKczCWw1S0REREREStCGRYvVBFWFRNUp1rjK4b5m0R2+opEk4WxM1BhJit6BzIGEZB0ew+IxLtaJPCvDZVu1h2NsoU+RZUbrtUQPQixyka+WceUj15EAa1JY/DiZpqlptiAbNSYDzsINORAzwB1fiYiIiIiIgjYs2gOhvempvb9yQ2N5uJCfa/WmIW4sMNmoWZyNBIceXyGxen06zPLuO0REREREVIygC4vqgfvKrJmzjH9LaoZqzWMtU3nM5qeTcyYDY72vC3Qia4Gu4XMtQJYzFoNUhnPlwemIMGscjfGqpxRh4Yh0JuN1vQFXWoq7RlJNkyF301MiIiIiIqLiBV1YHD58uPHvJ598DNeqVUa/FRjtQVFNU/Mo1jKBYWvqKV1cWjbS4sYiN2E0ouV/oxNyMbbwBjeKA5F5Ceb8QyYi0mqmGj0aCUjGEBnvSMhDpF81i6q5aywyxpjbTkCMuxmqmpaVACTHFO6b+6Y5REREREREnkIKCnYc0f1VLt+1EVG9O+uhwHnhhRc8Hsqv7npqhUTV9FTVKNqD4o033mj0Vz11J9IURGSlI56XDFItkbN8HcLDOughT+oz3blTcz1UMc3kM9u8eTM9RERERERVLSjDovLGG2+U+vzE6g2KCsMi1T4Mi0RERER1Q9De4EaFwKeeesrn9YhqnJpWvUGRiIiIiIio5gramkUiqhysWSQiIiKqG4L+OYtERERERERUdgyLREREREREVATDIhERERERERXBsEhERERERERFMCwSERERERFREQyLREREREREVESdCIubNm3CrbfeanS7d+/WY4mIiIiIiKg4QR8W//jjD4wfP14PAfHx8cjPz9dDRERERERE5EtQh8XPPvsM9913H4YPH46nnnrK6FS/qmH88ssv9VyBlI1EhwNRUVGFXVyaS08jIiIiIiKqPYI2LH744Yd44403cNVVVxldaGio0VnDkyZNMuYJPAcmzM5BTo7ZpceH6fFERERERES1R0hBwY4jur/K5bs2Iqp3Zz0UGEOHDtV9ZTNz5kzdVxGqZjEFEVnpYEakYJWzfB3CwzroIU/qM925U3M9VDHNQkPRvHkzPUREREREVS0ow+K06dP1kH8uveSSSg6L5njEApmZkUh1JkFGYEyGeehDRkyGMym6cL6I1BhkjU3GsiNHMGJyDkbnx2HIxGXGvH0mzHbXVrrSEBdjzhcSMsJYr1oLUWViWCQiIiKqG/jojIBzYuIQ9zWLidl6tIzPjUiGUwe66CSnbqo6GbGZKXBf2uhEsuTKZKdMnzwCGWOikIBkc14Zdia/LpFSkWAZk4WYLHM9zlQghddHEhERERFRgDAsBpznNYtGhaHBgZgBturG7EQdKMcgU48yOZCQHA9jzuhBGBHSx72cDMciF/kqE7rypc8WTMdkwJnHsEhERERERIHBsFgdVPPRscBkI1DORoJDjy+zWL0OszObshIREREREVUcw2J1cOXB6Ygwaw9dC5DlNMaWTVg4IpHJpqdERERERFQpGBarQ/Ro4zrEIVFRcCTkIbJcNYvRSMpKAJJjCq+PdLgvkCQiIiIiIqoQ3g1VBO5uqETBj3dDJSIiIqobWLNIRERERERERfCh/BprFon8w5pFIiIioroh6MIiEVUuhkUiIiKiuoHNUImIiIiIiKgIhkUiIiIiIiIqgmGRiIiIiIiIimBYJCIiIiIioiIYFomIiIiIiKgIhkUiIiIiIiIqgmGRiIiIiIiIigja5yzaH86vHrhf2jAR+YfPWSQiIiKqG1izWBlcaYhzOBAVFWV0jrg0uPQkD8Z8cUjzOTEbicVOIyIiIiIiqlwMi4GmAmBMFmKynMjJyTG61Mg832ExLB7pznTEh+lhIiIiIiKiGiJom6FWDxfS4mKQN86JpGg9qtxUzWIKIrIYJqlmYTNUIiIiorohaGsW1TWJVufPcEC4FiDLGYtBxQZFs2lpYmIcHI5EGfJqamprvhqXlq9HEhERERERVT02Qw00RwSsikBXWpx5zaLHtYdO5EYkw+lMgmemlOAYk4zIVLP5ajKykKmnEBERERERVTWGxUBzuq9PDItPl+A3GbF62ORAzAAf7Upd+ch1JGC0TpBh8eO8liMiIiIiIqo6QRsW1eMwrM6f4YAIC0ckcpHPO5gSEREREVEtx2sW9XBgRGN0ApAco65HLCMVNJ3JeF0v6EpLYTNUIiIiIiKqNmyGGmCq6akzFRijn7EYFTUGuQnJftzRNBpJqbHIGGMul4AYNkMlIiIiIqJqE7SPzrDXGKqmpqUNE5F/+OgMIiIiorqBz1kkojJhWCQiIiKqG9gMlYiIiIiIiIpgWCQiIiIiIqIiGBaJiIiIiIioCIZFIiIiIiIiKoI3uCGiMintBjd1Db/DiIiIKFgxLBJRmfgTFk/pG2H8G+x+WZLH7zAiIiIKWmyGSkRUC8xfMR+xb8ci6tmowk4Nq/FERERElYFhkYiohkv5NgXjM8Zj+ableoxJDavxajpRbbHk1xzdR0RENV2daYY6dOhQ49+ZM2ca/xJR+ZS5GWr+a7io/wrcsToZF+hRmJ+A7qOmmv0jp2B1sjkl/7WL0D9pqdF/XOJCzLop3Oi3uKcfh8SFs2BOzsdrF40HXraGq05VNENVNYcqEJbm5REv44JehUfYZiESo1LQM2saRvWQocQojEUqcpL66+ne1PzzMDAnCcXN4T+1rrHI0EOAAwl6P/znuf+eSppWMxjHWw6AIyEL0wK2kzX/dRfnm28XY/ESJ24bd7Ue4+mXxebnn4iIagbWLBJRJVEhrju6j5+hhy3zkTAqR8LeaqxeLYXenFFIUC0pJUD2nzEMC1eb44fNGI/X8s0lTPORak1fOAwzUs3ml/mvjceKO6o+KFaVkmoN406Kg6Ojw+j3q3ZxYWIpQVHpj6SABEWLCog5yMmRLrU3kmMSJerUFQsxL8N8/YELirXTtn92YO7874ygSEREtQfDYmVwpSHO4UBUVJTROeLS4NKTPBjzxSHN58RsJNqnZSe61+dIlKmlsS1f4naIKks4bpolwW7WHYjSYwzz52DqyDt0uAvHwGHHIWdlPvJX5uC4YQNljDUemDHPIy0Wlf8axq+4A7piMihZTU9bNG6Brq26Gv2KCorPxT5XGBa9m6gWJcF8LJDqERRVDZX5vRKVaEU4Ne5STFll65/i/v651Jyg+Vq+BP0HYoTRY643MfFSRF06BeYabesq3L7NAvc+FL8pX/tj25aMV/uvavs851H8eS3ueS6dMsVYr3s/vZdXw6pW1SkB2dpnc188lynPsZ6nx1ns0zxfd/HrqzobNm7Bt98tQc6fpXyeiYioxmFYDDQVzGKyEJPlNP+SLl1qZJ7vsBgWj3RnOuLD9HBx1DqlkDdZr8+ZFYH80tOim8d2vEJokWGiymWEwl7uasDwnlFYuiLf/HfGPJjFyXzMm+HdHO0CjB02A/27d0f3/jMwbGw4Xhu/AndUYlKcM2cO7rzzTo9OjasODw9+GFk3Zxnh0AqKd2XehfRf0/UcJctKUM0WPWsMFxrpUX2vZCFheUrRgGaQsLNyoK4ZHAFn8hsSQ0z+Le+2akoKMhw9YX7lObG8ZzJypo2CqnNT61qekKW30xvJCVaIVDz3IWOs79rJ4vdHbysrAZLcMG+gzCP9jox5ZXot9n1MRpatea2v5VUNbaqEY7NmscTK3EIlH+vC4zMQpWxbTyhhfVXpt9+XY2X+Gj1ERES1SVCGxRdeeMG4RlH9Wxx/5ik7F9ISkhGZ6hkAo5OSEK37y8WVB6cjQhewhIS/+AqtkKgGuiAZU6IkzKgw2H08VkQdpye4hd80C6uNZqqzMHCean6ajPDXLpL51TIXeTVbrbjBgwejX79+eghGvxpXHR6d8yj+/udvfHz9x2UOiio0OJ1OZC2wJyDVRFJCx1hV6xSDZJm+0ucfjSTs3KiTjlEzuBz5xmr8Xd6sWVM1WzHJvZGqw6Fab8wAq2mm2VyzcFhtx5kF9+4Wtw92Je2PXnePcPSW/p7qy9ToL8tr8dzHHqPG6VpSxd9jUZqSjrXX8TH7RMmvu/TjVvlOPKE3eoZ300NERFSbBF1YVOFv/vz5uOCCC3D77bfrsUWpaWoeNW/AAqNrAbKcsRhUbJAza/ESE+N0U1KvWj1b89W4NFupN3oQYp3JSChS/aeXz7Yv56uEYm1H/TsWGUeWYeKQKDgSE72GdXWlbT/cTV69952ofKyaRIu9pvGCZBUEzTA4GEsR1bOYCxELm5/6vo4xkIYPH26ERNWp/qrWu31v498de3fgirevwCLXIp9B0ZrPN1W7lYreyQleNWZqvKqRMjv/ar/s/FnePk8gr4X0pSKvpyqORWWpzm2XrmOHtjjn7L6IOraYzzMREdVYQRUWraCoqH9VzaF1F1Q7a7x93oAFRlsNoCstTgcuezNPJ3IjkuF0etc2ShiLUbWSTuPHXjVxytRTJC0iyamatsYY67MyncmJ5BQYf03OmT1BehJKaFKq1pOKESF9MGF2DpxJSV7Dao/Ufrib0cpkpBSusLh9JyqD8F44buoc6NvTYN4MYNhAr0Lk/ASMyknEWJ8tTPMrvfmpNxUSqyMoKuPOGaf7zMA4+uPRPmsU7fP51h9JHs07w9DT4V3bWBYVXd6uPwaOsK1r4TxkOGJQWPEo3z3WNLMpq32apSL748+yXvOofTT7hL/bNucrrPnzWEdJArHt6tW6VQtcMOBM9IrorscQEVFtEFSPzrCHRTv1uAwrNNr77UqrifSLcb1iHsZ5hClVI5eCiCzVNNXe7zUNsqy6nCY9Xn76vZczRpiMbZihMim66DzZiQ7MHeQ9rbh+YwnPYb3+ZUfcp0XIiMkSJFFkW1Q3lfnRGerup93nYHAxj85wPyJDzTcK5tiRmGKf32Z+QnfMGby68KY2vh+nUTWq4tEZirrT6SvfvqKHirrlnFtKCIvqRidej85YnoAs1Rx01RRcKp938/6UI5Bq1PzZ5/dc1ntdktx8LG/nvbzF13g1znrMhqop89ymaneZkaG2VHRayftjn6e4/uKW9WKfZ8QIjMhYXoZtGxNklxMRpZ6loXisw3veEvavXNv2sS/V5Ov/+wXn/ecUPURERDVZ0D1n0QqMqhbgxhtv1GN9P2fxjTfewGeffRaYoGgoGt48x5UQ1PwNi0LVWMbkjfMR4FxIi4tB3riKhkXvwKsUvz9Ut5Q9LAavqgqLinreogqN9rueqqanKiT6fr4iVaZVUy41WnsYoVuPIyIiCjZBd82idS2iCoElNS1V0wIbFJVojDZutleOa/rCwhHpTMbrhZcNpriboWan2ZqWurAgywlHhJXYVPMjPbHUayb9oPZDtuxuekpENYEKhJnXZyLn7pzCTg0zKFYdFRDVpQCqi0kGEpIZFImIKLgFXc1icXzVLFYa9UzEMe4rSvpMmI10ozqulFo923J9JkxAZHKWnqbmUzeiMd8qs1movr5Qlkesap61zJg2YnIOjEke6/bcjmqqOibjSOF6vIe9m6KyGSrZ+VOzWJdU1XcYERERUVVjWKzVvMImURUoLSwWN42IiIiIaheGxVqNYZGqHmsWiYiIiOoGhsVajWGRql5JYZGIiIiIgkedCYtEFBgMi0RERER1Q9DdDZWIiIiIiIgqjmGRiIiIiIiIimBYJCIiIiIioiIYFomIiIiIiKgI3uCGiMqEj84gIiIiqhsYFomoTPhQfiIiIqK6IaiboVrPVizuXyIiIiIiIvIt6K9Z9A6GDIpERERERESlC7qwqMKgFQhnzpxZ4r/WvAEPkK40xDkciIqKMjpHXBpcelLly0aibduqS8zWk4iIiIiIiPwUlDWL06ZPN/61QqCvMLhv/35jPmvegFFBMSYLMVlO5OTkGF1qZF4VhkXFgQmzzW3nzJ6A3LGJEiGJiIiIiIj8F/TNUK1axKrhQlpCMiJT0xEfpkeJ6KQkROv+KhcWjkjkIr9q0yoREREREdVyQR0WvZudKpUaHl0LkOWMxaBik6FqIhqHxMQ4OBy6ts+ryaq7yag5b1phyLMP6/5s97Jx7hk9Zc9FZuw4d3j1uT0JuXEO9zqyE6u46SwFtx+QctkluMzW3Z3xt57mi5r/LmSs1YMeSppWHNsya6fh7jIvT0RERFQ3BW1YVM1MS+oqjSMC7lwWZwQyh0focyI3IhlOp6ptlNAXo2oidZNVo8mofd6SOJGcAiQ7ZVlZDskJHtuYOERfLzkWSE2y0mtx2wtDfHoqIpNflzlkHrVMenzh6yCquB64ctJ0fPqp2T07oqseX8W6XIpnP30OI7ro4SLKE0aJiIiIglPQN0Otck739Ylh8ekSyiYjVg+bHIgZoGOYKx+5MrWwJjIsHuNincjzKyw6kJCsA12R5dzXLDqzIpBihdUStxeNpFRgTNQYlS6rr9ksUR0xdepHus/EYQ7bcZjDdhzmsB2HOWxX2cNB91B+dTObst605tJLLglQ81TVPDQFEVn2axbt47ymGzfDycM4o5bRlJ3owNxBTiRFe6+rhPUYzUhjkDfO13K2aWElbc8YQNSYDIyYnGMOE/lQ9ofyq9q6T9Flko8aPdUs9I4P9B9Y+iHh09twujV/wtn4PtmcFnblS7o20mtdJSyP84Cvvz5Gxp2JHwuXsS//NzLuvhUfmQvjvIR7gORn8LU5KCPuwafjzihmG0RERETBjzWLARWN0QlS3ozx8+6jxs1nMjHXmlnCY0qmVfMXhgiHrbZQXXuoe01OZC3QE0u6VtKY5kCECo4lbk9C5lhgcs5kgHdPpYBbhY/ucF+zmPKjGifB7Y7vcJbVPFU+O+mF1zLK/OnAbcb4fnB9NA3GIh5KXv6vLnfI+BKC3Y/T8NExEgh109hxp5+BcZ/eIxlTN5lVQbHEbQRGoP8CyGEO23GYw3Yc5rAdhzlsV9wwaxZF4GoWNV1DZ+kzYTbSjWo+71o/YdQuJmPZkSMICemDBPs023pCRoxAbGauR82iat+akbHMmO6uDVTTxiJD1qcUWafP7Zm1j1kxWcZ+qmstY7JkmNctkg8Bq1n0qLHTjNo8eM1vX97Wj8Asj8JaS+95ZbDYfVRBkoiIiCi4sWaxMkQnmTeQ0Z0ZFI0JSHLagpsSFo90dZMadX2h9zTbepxJSUWWjRitrok0p7ubjaptuJ/xWGSdPrenbnDjLNxPda2lk0GRqoRq1qlr7VRX5hBWgeWNm91Mx22YZKvt9KWi++hboP7iZ+Ewh+04zGE7DnPYjsMctittmDWLIuA1i5XORw0lURUJ3DWLavwz+MujZk/xnt8+7N1fkeWNmQ1rM+7Ci7hD1rPWx7KlbaP09RMRERHVRkFZs6jCX1k6IqoOZ2DcpP8CH91aeC3jZSk/6Gn+qODyP75YuNwdHx2DOCMMnoHTz9PXVxrrqug+EhEREdVeQVezSESVq+w1i0RERERUG/GaRSIiIiIiIiqCYZGIiIiIiIiKYFgkIiIiIiKiIhgWiYiIiIiIqAiGRSIiIiIiIiqCYZGIiIiIiIiKCMqH8pdH7XooP1H14aMziIiIiOqGoAyL06ZP10P+UQ/mZ1gk8g/DItVmA6c2133ky7yRO3Wfbzx+NVNp7xsFl8r6HPI8Il/qZFjcu+lPrP5sPLoPfxmN2x8bwLCYjUTHXAxyJiFajyEKNhUJi2o6UaCV5Q8UqpDFApFv/hwbHr+ah+9J3VMZ73lZ18nf87qjTobF5W8MxP4da9GwRRf0vnEewyJRGVQ0LJ7SN0IPEVXcL0vySjwf1W/Mvn2H9BgWrEvifWx4/GoHf943qr2q6nNY1vNITefved1QJ29wo2oUVVBU/xIRERER1Vb7163H6hvHY2nvvkbnumEM9uWv0lOJKiaow+K7K/cj868DeshNNT1VNYrq38qjahnjkJadhjiHA1FRUUjMBlxpcUa/6uLSXHpemTvRnEd1DjWjxeVePi4tzVyntZhtmsORKFskIqLy2v3jT1g95jY4TzkHf4RHwXnqf7B67O3Y/dPPeg7yy5EjKFj3m/Ev1Xzf523HqLQ/4bj/B3S8/Vv0kX9veGs5Fq3coeegmkwFxRUDh2L77Nk4vHun0e2YMw95Qy81phFVVNCGxcTFe/HsH3vxwOJ/fQbGquFEcgqQ7HQiZ/IIZIyJQgKSkZOTYww7k18vDHjRSTKPGp8zGbGZKToQSuCMSUZkqjktGVnINOZW1LQsxGSZ05ypQIotfBIRkX+OHDyItfc9hJWXXIntn8/CwY0bcWT/ARzcsAHbZ8zEyhFXYG3iw8Z8VLo1OTPwReq5WOP8XI+hmujgoSO46+M8XPTC78hYvBkbtu/H/oOHsV7+nf7LJsRM+g0TPllpzEc11/qHk3Bo+3YcfebpCLvrVqNT/Yd27MC6R5P0XETlF5RhUQXFGX/t10OoxsDoQEJyPMJUb/QgjAjpg5gBxpAxHItc5Fv5LjtR1yyOcQdCVz5yHQkYrS+ADIsfJ8toapqE0YlDzNrIqDEZcOYxLBIRldW6Bx/D1vc+xFFNmugxntT4re9+gHUPPa7HlOCrB3DSSccZ3ZXv+PpOzsZDenrJ81nU/JfB9ywlTaseRw4fwu/znzT6f5v3qDFcJqUcv68eOg4PfaUHDD6OgVrHQ2xrU5p7pq7EW//nrnlqUP8oXNvvGONfy5Rv1uG+9Hw9VAJ/z/ti3hfXO5fJsvp9dL2FKyt6Xnuso+Z9TgJp59f/Z/zb4pwz0f2x+41O9Su7vvrW+JeoIoIqLG4/cASbzr3JIyhavAOj6n/lz316qJqp5qRjgclGzeJsJDj0+FLF6mXMzpnE2+pQLZX/Gi7q3h3dre6i1+BH8aSGmI8E+753vwivlWfnjWNQ2rJqW+VcP/m0+4efCoPiyV/NRucrR+opJjWsxluBcc/Pv+gpvkih9DbgxV+X4tdfU9Br0t3FFFAduCNTzWN2H12n/4gYBFb9/il2bPrT6N+5ZQVcv001+v1T+vHrd34sZnxpv1RjFVbAiTlfuWd0uXIR1TN4jmll+C5vu0dQVDq3aoQHhoejU6uGeoxJBcYf8ktqkur/eR+1ItXHtGykTXLqfhH2P3z066cwPxbeQc/P4OexjrosBHv27MHJJ59QpLvllpv1PIHi/VvYHQnz9aSAsf8GVtfvodpugvw3UIp5Td5lgvkJtmMbyO2XLqjCYssGIdjW4yw9VJQVGFWn+idLWFS1kNXOlQenI8KsgXQtQJb1nRkWjkhnMl7Xv4uutBR3raOaJkNsekq1nvpC7D8DwxauxurVZjclakU1hcXy/vgch0S9/wsTgaTx5Qi74Tdh1upZuClcD5dJdf1o1n5b3nrP+Pfwv/9i7fMp6Dl5Erpce7UxrtMVccbw+pQ3jenK5rc+MP716av5mDHsAvQzBqIRfwc8QkywO3zoAJwLntZDpj8WPCHji/4B1yd/jl/3nhI4VsEa65Ig3+uOu4CVhWPw1RxgcD+GxZK8+fU63ee2esu/iLwzG39tKVouevPrtbrPhzKc9716+ZhmLB+LYXqQyqbZuWYt4o5vF2H1Q08anepXmkefgwYNGmDu3C8Lu2nTMtGlSxcMH17YVi2A3L+Fqku+QI8uVTD+hlXwNdnLBKqcNAqYoo/r6oW9sLIK02LQXrNYHBUSVWdRtZCqNnLTpk16TDWIHm1cyzhE3agmIQ+RhTWL0UhKjTWudVRNTRMQ426GqqZlJQDJMbr5qteNcYhqhXy8Nj4JUVM8Q9IFycnw+zemhgm/6Q6MXDoD8xjcaoXdP7lrCtd/nI6VY+5A+EtP49iU5xDx6gvG8Np339dzmDfBKY53jVZYWCRyCkOMH4ymc1bz1Afg0dpytXtasc1WfS5v1sQ89JBq5ue1zgBb+cu72Flg3oFx7CvmdW67t/2F/MXu41cSv45fWH8MxmyYecMMhj379UCvGfP1a3NhZU6kLGsMGM1WreaR7iaQ3sdE11a946spZUk1WyUtJ2zvx5XvvOW5nhLeq2LXF0DF3bzmyAcxus/T93nFP6ahLOd9z/ix6DXpTdt56MI7r+bijnj7N751jNW/4zADTkyKlePx0ANew9Zf0ks4lkV2w3u8fVj317L3s1Pi3ajXogUKFv0I13MvGZ3qr9eqJTo/nGjULFoOHz6MZ599GgMHXohBgwbrsVTj5a/A0uN6obCYJEHypiosJNW5sOiLqo1s3769HqoICXCFz1hU/emIL/z+LGk4DPHp+kY16UlISrfNF51U2Mw0fQCQi0iEW9PC4pGubp7DZqhUW+XPw4ylIzG4pC89jyaqVtMLCZkXWePcTV3mJ7jHdS9s/6L/ujffvR41Kf+1iwrnvcj405+abxSmYimS+tuW97l9f5nbTkhQ29LLeqzP3kzH66+QpW5XzS/TEhJ87Le/r9nk73FzL1PSNFGhY+Y2Z84c3HnnnR6dGhdIh7YV6D7Tuo+mYvN7H6PD/642/lXDdocLtuq+itCFXV2ANK/Bk4Jl7GwMtpqnvgi8WliwlPlfBZ4yxscix6OwbSl5+RU9n5XxT+jan8A7fHAvlmUn6yFPfyx4BocOuv9IWzFhCOvlxMrVql+CIYagX1g0zh+WK6FFRnnUcgH9HtPH49cUDJthbwLpfUzkGK+8QB+74o6xL8Utp96P59DrRXP7T0nAnWGMV0p5r8u1H2VTsLtsN2vauitQ931Q71UmvrRelGsh5hjvoR72EI3H1PtmNdt+7AmvYVXmKelYlkftez8bhfdAr/mz0OKiITiqWQujazk0BpHzZuGgBMYDB9w1+1OmvIkjR47gllvG6zFVwfy9cP8Oev9+q+kB+O31Ob/+rXrN3YTT47eqCLVvZfnNKm79gXhNet1qdRcMxsilSRjva9/L/Lp9l59K2jeGxVok+/Vkd3NVomBh+2uZO8zoL0j1hWdvojoFmKQmzE9FUtSUIk1dLkjW88mMI6dOsjX/kC/sScDLxjpGYuqo7hiPl/U6R2JpUqps6QIkq+WsZjTGSovZfgnyX5uEqccNw8DCPwEuRU4vtS1VW6rWp2pS9foWJiJnlPVa7UrbrvqyN9qkyH4m+9hvxZ/XbPLruJnta/2YVvZjVpzBgwejXz93vFH9alwg1Wt9tO4zqWsU211zBTa+9b7xr/c1jEcd3Ub3VYTnNYuPqZeor70rDJG3ZdpqZ2T+p/5nfvf3u0AKyzoY2ZWyfGU3y8z94U38u8N3U8W9O9cj78c0PVRxhdctqmDYq4dxXLr3NJs3FrlesfDGK6pGys77mMgxjtd/cC3uGPtUzHLq/Yi6C/H69A27bqxM00p7r8u1H2VzdGh93eefNs0a6L6K6xd/F1a8+pZEfXl70iSA3azP7fIo8ViWR+18Pxt27oSw117GcX8uNrrur76ESe+9haysmXoOOdZfZeO77/4PTz89EfXq1dNjA02HoyKBw/Y7WOT3OxC/vSXNL/u0YrAe7/nbFxi+1h+Y8oSbWt9CDJvR3zi2hQGvPK/bZ/mp5H0LurC44rK25epqJhfS4tzPXxybGYvUdH13VaJgsdR9fWL4TbPki0p9wWr5K5Fj//EZNVVml7nDe+G4qaOK/oWw8AJw9Rc9O/nCfvkmM5Sqv9DJ8DArzRnDOVjptSpDcdsvwj1P/6QoTJmlt2WwbctYn60mNfwm3DFyKYqsspTtzhjfHzOGLSzlepAyvGZ/jluRfS1mmt/HzD/Dhw83QqLqVH+ghZ5xmu5zX6OYf+u9+HPcXci7+XaPaxiVZmeervuK8m5+V/YbrcTqm4Tozqg5KYuKLl8+B/fvRs43k/SQb8u+Spb5dukh3/w+fvq6xa9k+rDzzdcY1m8IsHKh5/WKqmlg4Y1XZuKOKHN0zVA975Xl7IhWus8/5/RqofuKKvN5bzUl/uotvLrCHcDKr3qPpakm7IOn2NhL8Pzz7tp+1f/ccy+gVauyvfdlo8OREUTsl5PYfn+K+/22K+vvSInzyz6N1XtS3O99Ya1afyQtnYpRRr89lJXEj/UrFf5tDMdNs+S4Gn9k1vtWntft6/iXsm+sWazR3M1TjWamhU1ciYJEuBT6ivtiLTTSfVG36lRCMi78Xo2XMd79ha6+7AsvAF+IxOPMpSvOx/aLKO4HsiKK2+5S6Y4r449MCfw+bvlYmaN7i/Ce5s8x858KiZURFJV2N1yPIyEhxt1Ou9w5zuMaResaxk7jbih8rEbb664y/vVJhZjCa+fUHR7LcKOVsB7ohczyN6Gr6PIV8Od3r2Dvrs16yPTLHM/HjOzbvRXLv5ush4rh7/EzwsZzuE2m9+xujVPXLT6HSbbrFbFaCkBRPWHMopo7Fnv+liQMPaOsZq9C1Wbq3hKp/cl5Dmm6zaHrnVT3ctX4Xlluju6MkBD/n58Yf25n3edDmc/7MFx3cyQm3faczNi/Yn8AL/OxDM7305fIyN74V9+YS1H9aly18/X77VNZf0cq8Luj98n8DXSvp4I/XT4E4LdR9vVl+aGeOsc6cGVcZ7HHv/j1MCwSUTW6AGNVC8b+xbTdN8Lk1GKbaqiayIXypZmj0qb9AnDjWkhjloopZftlptdX+B0vQW3SVB/XbJa43eMw7OVZmIJS/jLrrxKP21LMsO7UU+T60mKmBfqYVbKmJ5+EttdcZdztdHG/IUWuUVTDarya3vb6q9H01FP0FB/U7fpfBG7TzR7xYllu3R+NxzLvAiYNNZuyqa5Mzwqs6PLlc2Dvdiz/NkUPueUsMu8ya5fzfy9i/7/b9JAPfh+/MPQb7ACi7Ne6qWvh5B/b9YrodwPukFAZq9Z330r0KlfNogo2sZhxmz6mX8om9JSSyfvxonu5+zDEtlz1vFd2p/Zojvj/dNFDbiH/zdJ9bjf264QzwouvWSzXea/em6hY3FzqjOp91U08jWNUdLhsxzI438/ayOP321tZf0dqw+9ORfZx/mu2S0DyMU9+qI/rJb/aFVinx/EvZT0hBQU7/P/TUoDluzYiqncJf60iohonZ/k6hId10EOe1Ge6uGmKmn5K3wg9ZKOaQY5yF9KPS1yIWdbtUVXNV/8koz7NMHIKVg+eY5tf/TVM1eap6/hUExIZddxIGZuDXhKqbgqfj4Tuk9BroXXH1ZKH1c1ejFWr7ai/rPnavsdf7rzXZ+djmsf6VI1kMfvlc7uwzaNfLxKxcNZNyPfYb/t8auGSXnPJx01GYOpUcy9GTrFd31DsNFHqMQucX5bklXg+qt+YffvcD4YfOLU55o30vLPjkYMHjQfuq+coFkcFxU6PPICQ+mW71qs28T42/hw/9eB951fP6SFTi3a9cPUjuXj/kV7YsTlPjzX16ZeAEwY+pIfqENUkNnYlbq6Emwz58775cvDQEeOB++o5isVRQfHJS3qifr0QPYYMlfh+evP3e8wX9TxF9bgMZdCg87F48e9Gvy9lPY/UdM/fc/W74Hkpg/lbnu/5++Pxe2/9fqvR/vz22n/bvH7XSp1fjfRaplzUOuZgsLHf3uvzHK7Ya/Lutx1ba31KWV93vu/jX9LvNsMiEZVJpYRFEurL3PoBqgnsP1R6VKGSplWtQIRFi3rgvnqOono8xqGtW1CvTVs0O+N0CYr/RdNTT9ZzBS9/Cov2efbt3oLPnj8Bh/YVvRaxRbuIIkFRqdegKYbf9TsaNQvEHchrD/UIj9tW3IXMjypwM5dilLWQ7009cF89R1E9HmPLrgNo26wBzo5ojhvO64LTS6pRrMMq8/30VtbvMbuqDYsUrNgMlYioJpg/B1Ptz1GiKqeamHZ/5Xk4fvoGx+fnGP8ek/JcnQiK5bFtw1KfQVHxFRSVQwf2YNtGpx4KZi68c6VukijdbTNi8WIVBIvyUE1M37g+CkufOB0bXjjH+Pd1GWZQtKs976ddp06djJCoOtVPVB4Mi0RE1Uk1/TDuPpbjvrsoUS3QsWc0rnxiR5k7tVzwC8N1H9nujlkFzRWpMtXO93PWrC+M2kTVqX6i8mBYJCKqToV3Yav+Jp2e1HOditunkqYRERFRsKgT1yx++eWXmDRpktF/xx134Pzzzzf6iajsKnrNIlGglXTOefP3Wp+6yJ9jw+NX8/A9qXsq4z0v6zr5e1531Imw+MQTT2DRokVG/5lnnokHHnjA6CeisqtIWCSqbqpARMXzJyxSzcOwWLdU1ueQ5xH5EvRhcffu3bj88sv1kOmTTz5BaGioHgqkbCQ6UhCRlY54v656Luv8SnmWIQochkUiIiKiuiHor1m0ahTtfI0jIiIiIiIit6CvWbSaoKrmp4rVXzlNUVmzSMGvtJrFqmhaTkRERESVL6hrFlUTVKsW8ayzzjI6RY1T06pSdqIDUVFRRudIzNZjNVca4hzm9Lg0lx4pbOMdjkSJiURkp4JrVaiq7VS2YHkdREREVDWCOizam5uq2kSrdlGxT6sK0UlO5OTkSDcZsZkpcGdCJ5JTgGSnTJ89QXoS9LRsJMZkISbLXM6ZCqTYgyQREREREVElCuqw+P333xv/qpCobmijOiswWtOqTHairlkcg0w9yuRAQnI8jBalYfEYF+tEnsqErnzkSpCcOMSsjYwakwGnMYGIAkU1R1eP1pkyZYrRqX7eLZmIiIjIFLRh0bsJqqVamqKq5qRjgclGzeJsJDj0+CJcyM/VvYZYvYzZOZOi9XgiCoQBAwYgPDwcffv2NTrVr8YRERERURCHRXszU/VA/qFDhxqd9XB+pcqaorry4HREmLWHrgXIchpjNSeyFugaQ2NaLAapTBgWjkhksukpUSVSwbBHjx7YuHGj0W3btg2rVq3SU4mIiIjqtqANi/40M62cpqi2pqPWDWuiRyMByRiiblSTkIdIj5pFByLzEsz5h0xEZGoSzPrDaCRlJQDJMYXrKnJjHCKqZqsw5VL35z3q0ikypqwWIjHqUkyployqtm3bf+kSF+pJARGA17ZqCi4tXEd1HisiIqK6JygfnWF/EL+6/sh+YxtF1SiqR2oolfeAfqLgVJMenaH2JZDbU7WKqvNuiupzOyrExCSjd2oOkvq7x01xjcIoa9gvKgCloGfWNIzqoUdVkqKvw2vbxmtaiXE5SSjTSyhWoF9b1R0rIiIiCtKaRat5qf2GNnbWDW+UKmuKSkQ1Xn5+PhYsWKCHSrIKUxK8gqLSo6xBsYbpEY7eWI581twRERGRCMqwaDUvtd/Yxps1rcrvikpENdb5559f2OqgRKvU9cUjMLCkYGg0nyymeadt2qVT8vVIzWO5RAS0VWhpFs5Dxohx7lo7n/vi2fTW/bqKGy9c9tdrJVGzSWli4qUyXq/b5/bM+TyanpawPvd89mHdP8W6K7V9OeHxfkwpuj0iIqI6KijDomp6OnPmTNx+++16TFFqmpqHt8knonJx9DRvWuWThBPdRNW4m3FWApaPtQUX27RkZCHDWEZR09TzVfVy6vmqlZ5anEiO0QFtLJBaWFVazL4sfAPJvVPNcdKZs6ugGIMsmd9zvKKfJWusYwScyW/Imi1OLO+ZLPOrZq/+vnbb+ozruhP8DHay3MqBet32/Sjp/SAiIqrbgvYGN0RElcq5EsXeq3hVPpbDVvPYYxTGjXBipVpATXMk4EY9rceocTKnZixnD28ZspnKviOyAwlWQMvqiRSrVq24fQnrCUfGWK+aObOmdZzPCwnVs2RHwZjSf6C8VnszVwdiBuhl/H7ttvXZj2upZDnroNv3o6T3g4iIqI5jWCQiKqseAxDjyMA8e1PLgBmBVBXcrM7joshKZrwue/jysS8S0KZJfzLMuzgH9u6pZX3tq5C/XPcSERFRwDEsEhGVWQ+MGjcCGWOLXos4RQ0bN4qxhUkZn5KhaxrVNGcy3tDTVk1JcTd71MtVftPTYhg1hA70VO1rS9mXHqOmISvBgeWqek6H5wrtt9+vXT2bVs/jce1oGHrag666/lL3lqik94OIiKiOY1gkIiqP/kn6WkTdbFJ1CcAAI7j0N56TWjjNuBbPehyFTEs1g6aaloAYW7NHczn781WjAlt154Ot6aexn9ZjKYrZl4Xum8TEJPfWTU8lPE9LRW/bvGXfbX9fuwO9V+pn0xrXGlrH1R3gjWnzVD2lP0p6P4iIiOq2oHzOIhFVnmB+zmJxqmo7lS1YXkelUndGDeizJomIiGov1iwSERFpC99IhrPEO90SERHVHUFXszh06FDdVzbqMRpEVDrWLNZerFn0xXzsR7JTDxo32WGtIhERkRKUYXHa9Ol6yLfjMnfoPrcVl7XVfURUEobF2othkYiIiMqizjZD7dz0KMy9oJnxb+BkI9ERhzTvZ3650hDna3yx1Hoc7ps8SJeYrScRERERERFVgaCtWbz0kkv0GJO9tlHVLE7vF4rI1vWQu+0QLvlqd4BqFlXIS0FEVjriy3TBi/dyXsMqbMbkYZwzCdFqMlE18rdmUc1HRERERLUXm6FqNToslnu9RIHnb1gkIiIiototaJuhqppFX52yNLZFka5yqbBnNUN1IS3O3cQ0MVtNG4uMI8swcUgUHL7am2bPRWbsOHdQNJq12tdhjDTWG2e1dc1OhCMuTcYSERERERGVXZ2sWbRCo11g7oZaXA2gbbxLQtzcQXAm2RuUei9nBUjzrQkJGYHUwiao5jQZAWMVRhNV9SBttayaNheDnIMw1/iXzVYp8FizSERERFQ31JmaRTsVJr27KhMWAUfmWHcNYLEcmDA7Bzk5OXBmRSDFqpl05SMXsRhkpcCweIyLdSLPWF00klKBMVFjJEwyKBIRERERUfkFbVgsKQyqaxa9uyoj4S7d6UQyEvy/y2nYAMQ4rEBIRERERERU+erUNYt2M848bFyrmHmmHlHFwuLTMXtCH+Tm+5EAXQuQ5XQgQjVRDQtHJDIx1wqZrjSkZFo1jdlIHAtMzpkMjE2UISIiIiIiovKpMzWL3rWLN/9eHxv+2Yuxvwf6EDiNG9VYN58p0tw0O7FwWkxyJMYZFylGY1CsuZz7Bjfu9TgKr0lU46ORlJWA3LHmDW7MaarJqbrBzVjkJoyW/miMTsjFWN7ghoiIiIiIyomPztAC8+gMouDHG9wQERER1Q1BGRbLIzB3QyUKfgyLRERERHVD0IVFIqpcDItEREREdUPQXrNIRERERERE5cewSEREREREREUwLBIREREREVERDItERERERERUBMMiERERERERFcGwSEREREREREUwLBIREREREVERfCi/xofyE/mHz1kkIiIiqhuCMixOmz5dD/nn0ksuYVgk8hPDIhEREVHdwGaoAZWNREcc0lx60OJKQ5yv8cXITnQgznvm7EQ4ErPLvC4iIiIiIqLyCOqwqGoMfXVVLiwe6c50xIfp4SI8Q2b0oFg48zzTYPbcTMQOivZjXURERERERBUX1GFRNUf11dV4YRFwZM6VCGnJxtzMWKisSEREREREVBXqZM2i1VUde82hC2lxDkRFRRldYraaNhYZR5Zh4pAos6lp2ADEODIx10qL2XORGTsIZlb0aupqNEs11+dwJBoBUzVjVasx+ZjfPZGIiIiIiMinOlmzaHXVIvt1JEemIicnx+iSoqOR5EzFiJA+mDA7B84kFQnDMCDGgdx8M+EVNkEtQoJgTBZispzGumQ1SJFUqJqxZlpJU4JmrgPIWmCuy7UgC4hgG1YiIiIiIioZr1msakYT07FFb2DjJWxAjEp4cMn/8iXt+cx3rnzkwmnUSBo1lWMyzGsd1TZy82VJlRVzETPOvS6VFWMGMCwSEREREVHJeM1iVTNuUONEMhJ0M1Q93ptqioosLMheIP+NQfH5LhaTdS2lUbuoaiatZV3ZmJsry0ar4Ty4XKWti4iIiIiIyMRrFqtJWHw6Zk/oU9jUtCjVFBWYOGaiqgqUIR/CwhGJTKPpqSdz2ayEFOQay6rhXMx9Pa/4dREREREREdnwmsWAszULlc7X8xKtaTHJkRhnPAMjGoNizeWMG9xoqilqn5A+JTQbjUZSVgKQHFO4Tmt5oxmr093kVA3nZuayCSoREREREfklpKBgxxHdX+XyXRsR1buzHgqMoUOHljkIqlrGmTNn6iEiKknO8nUID+ughzxVxmeaiIiIiKpHUIbF8mBYJPIPwyIRERFR3RB0YZGIKhfDIhEREVHdENTXLBIREREREVH5MCwSERERERFREQyLREREREREVATDIhERERERERXBsEhERERERERFMCwSERERERFREQyLREREREREVATDIhERERERERXBsEhERERERERFhBQU7Dii+6tcvmsjonp31kOBMXToUN1XNjNnztR9FZGNRMdYZMamwpkUrce5udLiEJMMJGSlIz5MjyyVWmcKItQySENcTBZiSlze3IeMI+63dcTkHCRF29bj97aJispZvg7hYR30kKfK+EwTERERUfUIyprFadOnF/5bUmfNE1gOOHJTkObSg4Wy8XqyU/eXU1g80p3+hD0HJszOQU6O2fnIrdVEBdY4H8eGiIiIiIhqmqBthmoPgX/99Zfu8xT4oGiKjASyFnglouy5yIyNRaweJCIiIiIiqsmCNixeesklug+YkJCAaenTcOjQIT3GZJ8nkCJGj0Nk8uvI1sOAC2kpuUgYPUgPa640xDkciIqKgsOR6J7fNj4uLV+PVDxr5rITzXmM5RPdW/OLz23r9We7p6nVquaz1nbi7NWCJa0jLdFrGTVeNY9dholDyrG/RERERERUpepEzeLBgwfxzTff4L577/WoZaysmkUgGoNiMzHXykOuBchCDAZ4NB+V8GRcf+g0moo6U4EUK1TFJCMy1RyfLEtmmgsUEZ1kzpOTMxmxmfamr04jkHmGOLvitq04kZwCJDtl2uQRyBgThQTZC2M7MuwsDMGlrCNvkNcy0UiSmUaE9DGayPq6ppOIiIiIiGqOOlGzqDzy6CNGzWLiffdh3bp1xrjKqllUokcnIDclDUb8e13C37h4eGRFVz5ybaEuakwGnHkytxrvSMBonaXC4scV33Q126q9G+MVKN3XLDqdSRLTvBS3bYMDCcl6X6MHGeEuxkq5MhwrS+arWUtbh/UC7MsQEREREVGtUSdqFpVHHn4E9erVQ9JTT6FzZ/NujZVXsyjCBiAGWViQnYaUXHf48xSLyar2TXdlqm1TTUDHQi8/GwkOPd5vFdh2oUCsg4iIiIiIaqI6UbNYv359nHvuuXjq6adxzDHH6LGVW7MoaRHx4yIxccxEIGaAZ62iEhaOSGTamm5qarwzGa/rtqOutBTfzVBdeXA6Isz1qmauZbnRanHbLotArIOIiIiIiGqsOlGzODE5GZfGXWrULNpVas2iEj0aE/qMwDifz7qIRlJWApAco5uSWjd9kfGpsca1gmpcAmLgsxmqrFtdSzhELZeQh0iPmkVb81DpPG5KYyhu22VRnnWoaznNfeMNboiIiIiIaragfCi/CoGq1rC0MGjNo/4NzEP5iYIfH8pPREREVDcEZVgsD4ZFIv8wLBIRERHVDUEXFomocjEsEhEREdUNQXvNIhEREREREZUfwyIREREREREVwbBIRERERERERTAsEhERERERUREMi0RERERERFQEwyIREREREREVwbBIRERERERERdTZh/LzIfxE5cPnLBIRERHVDUEZFqdNn66HfLv0kksYFonKiWGRiIiIqG5gzWJAZSPRMRaZsalwJkXrcW6utDjEJAMJWemID9MjiWoZhkUiIiKiuiHowmL1UmExBbkOSCj0DoQ6SMLBsEi1GsMiERERUd1QZ2sWvQWmptEMi4gFciOSkW5PhNmJcMyVSZm5iGBYpFqMYZGIiIiobgjKu6GqaxbL0gVaxOhxiEx+XaKjxYW0lFwkjB6khzVXGuIcDkRFRcHhSNTzq8AZh7S0RGO86uLSXMaUwmnWYJFhIiIiIiKiwAjaR2eom9jYu6oVjUGxmZhrpUXXAmQhBgO8m6XGyNgsJ3JycuBMBVIKU58TyXmDjPE5k0fA6RE8iYiIiIiIKl/QhsXKrj0sTfToBOSmpEHFv+zXkxE5Lh4eWdGVj1wJhROHmLWHUWMy4MyzwqIDCaP1DXKiByFW5sxn7SEREREREVWhOlOzaO+qRNgAxCALC7LTkJKbACv7eYrFZFV7qDtfd1AlIiIiIiKqDnWmZtHeVY0wxI+LxMQxE4GYAZ61ikpYOCKRaWt66o8wRDicKKyAzJ4rayAiIiIiIgq8OlWzWOWiR2NCnxEY5/PWp9FIykoAkmMKb2TjSCztykQVQGORMUbPr+6uqqcQEREREREFUlA+OqOstYcqSFbOQ/qJgg8fnUFERERUN/A5ixrDIpF/GBaJiIiI6oagC4tE5L8XU97XfcW7bdzVus/EsEhERERUNwTtNYtEVDrvIOittOlEREREFLwYFonquOICIYMiERERUd3GsEhERYIhgyIRERERMSwSkcEKiAyKRERERKQwLBJRIQZFIiIiIrIwLBIREREREVERDItERERERERUBMMiERERERERFRF0D+UfOnSo7iubmTNn6j4iKgkfyk9ERERUNwRlWJw2fboe8s+ll1wSoLCYjUTHWGQcMQ9pSEgfJGSlIz7MGKzh1L6nIMLYX8/XoYyYnIOkaD1AdRrDIhEREVHdUO1hkYhqn5LCIhEREREFh2oNi0RERERERFQz8QY3REREREREVATDIhERERERERXBsEhERERERERFMCwSERERERFREQyLREREREREVEQIxi3g3VCJiIiIiIjIA2sWiYiIiIiIqAiGRSIiIiIiIiqCYZGIiIiIiIiKKHLNouvRs9D96MZ6qGxWF+xF2MPf6yEiIiIiIiKqrYqExSMv90fn+7/VQ2Wz7slzEDJ+oR4iIiIiIiKi2orNUImIiIiIiKiIagiLnTDr5f5GDabVzTpLT6qo7hFY8fKZeL67HiYiIiIiIqJyqaaaxX8xKXmh0WQ1JHkNIq86AaP0lApZnYde4xfhztVqQIVSBkciIiIiIqLyqP5mqKt3IxdN0YehjoiIiIiIqMao/rB4VjvELFutawOF0ZTUaqJq1TiatYSzbj7TPa6E+Z7vrv49FjFogjsSZPrNnYypRERERERE5J9qCos6xKmgdxVww6vr9XgJeQlt8bnVRPVD4N5LWuhpTRC5ySnjf8eUEudT1uOi8X8iy2ruWrh+IiIiIiIi8kcNuGZxD+61ri3sHopIjyDZBhHtQ81FZJnPf9lh9pY4HxEREREREVVUDbhmcRM+39wEvTvrYWzFDSpEWl2xtYL+zkdERERERERlVf1hsXt7XNzuXyxfJ/3GzW7aeDUp9cHf+YiIiIiIiKhcqv+aRePaQ+txF+txUfIaoP8p5jTV+bw5jT/zrcf0ZbzBDRERERERUXmEYNyCI7rf4Hr0LHQ/urEeMi1bvxtXvr0MW3YdMIbbNmuAj67vgz6dPK8TXF2wF2EPf6+HiIiIiIiIqLYqEhZ9uXdgd8Sf1QmXpS3FwUNH8Gn8cfhk8UY8Otul5yAiIiIiIqJg4ldYVB6J6YHL+rY3+j9dsgmPZK0y+omIiIiIiCj4+B0WlTsHdDP+fX7BGuNfIiIiIiIiCk5lCotERERERERUN1T/ozOIiIiIiIiohgH+H1daPKk2TNBkAAAAAElFTkSuQmCC;" vertex="1" parent="1">
          <mxGeometry y="-827" width="907" height="1031" as="geometry" />
        </mxCell>
        <mxCell id="GEeOSVL4NO5q1AFvLIhu-2" value="" style="rounded=0;whiteSpace=wrap;html=1;sketch=1;hachureGap=4;jiggle=2;curveFitting=1;fontFamily=Architects Daughter;fontSource=https%3A%2F%2Ffonts.googleapis.com%2Fcss%3Ffamily%3DArchitects%2BDaughter;fontSize=20;fillColor=none;strokeColor=#b85450;strokeWidth=6;" vertex="1" parent="1">
          <mxGeometry x="20" y="-760" width="260" height="950" as="geometry" />
        </mxCell>
      </root>
    </mxGraphModel>
  </diagram>
</mxfile>
